{
.appVersion = "3148";
.formatVersion = 3;
DisplayStrings = (
"AÁÂÄÀÅÃÆBCÇDÐEÉÊËÈFGHIÍÎÏÌJKLŁMNÑOÓÔÖÒØÕŒPQRSŠTUÚÛÜÙVWXYÝŸZŽaáâäàåãæbcçdðeéêëèfghiıíîïìjklłmnñoóôöòøõœpqrsšßtuúûüùvwxyýÿzžﬁﬂªΩμπ0123456789⁄½¼¾¹²³/.notdef  .,:;…!¡?¿·•*#///backslash -–—_(){}[]‚„“”‘’«»‹›\"'ƒ@&¶§©®™°|¦†‡€¢¤$£¥+−×÷=≠><≥≤±≈~¬^∞∫∆∏∑√∂%‰◊¨˙`´˝ˆˇ˘˚˜¯¸˛"
);
customParameters = (
{
name = fsType;
value = (
);
},
{
name = "Use Typo Metrics";
value = 1;
},
{
name = vendorID;
value = TYFA;
}
);
date = "2023-01-15 00:19:32 +0000";
familyName = Fred;
featurePrefixes = (
{
automatic = 1;
code = "languagesystem DFLT dflt;
";
name = Languagesystems;
}
);
fontMaster = (
{
customParameters = (
{
name = typoAscender;
value = 950;
},
{
name = typoDescender;
value = -450;
},
{
name = typoLineGap;
value = 0;
},
{
name = hheaAscender;
value = 950;
},
{
name = hheaDescender;
value = -450;
},
{
name = hheaLineGap;
value = 0;
},
{
name = winAscent;
value = 950;
},
{
name = winDescent;
value = -450;
}
);
id = m01;
name = Regular;
}
);
glyphs = (
{
glyphname = A;
lastChange = "2023-01-15 02:08:54 +0000";
layers = (
{
hints = (
{
horizontal = 1;
place = (-50, 663);
place = (-50, 663);
type = Stem;
},
{
place = (347, 62);
place = (347, 62);
type = Stem;
},
{
horizontal = 1;
place = (231, 50);
place = (231, 50);
type = Stem;
},
{
place = (342, 64);
place = (342, 64);
type = Stem;
}
);
layerId = m01;
shapes = (
{
closed = 1;
nodes = (
(265,511,ls),
(243,478,o),
(223,440,o),
(201,401,c),
(138,321,o),
(85,201,o),
(41,104,c),
(36,102,o),
(33,99,o),
(30,93,c),
(30,88,o),
(28,82,o),
(28,77,c),
(22,74,o),
(19,71,o),
(19,66,c),
(-14,-28,l),
(-8,-42,o),
(3,-50,o),
(19,-50,c),
(33,-42,o),
(39,-28,o),
(39,-9,c),
(50,5,o),
(55,22,o),
(58,41,c),
(80,93,o),
(105,146,o),
(135,193,c),
(140,192,o),
(145,191,o),
(149,191,cs),
(155,191,o),
(161,192,o),
(165,195,cs),
(193,212,o),
(223,223,o),
(254,231,c),
(256,230,o),
(257,230,o),
(259,230,cs),
(263,230,o),
(268,231,o),
(273,231,c),
(284,237,o),
(295,242,o),
(309,245,c),
(320,245,o),
(331,245,o),
(342,248,c),
(342,179,o),
(350,110,o),
(367,44,c),
(375,38,o),
(380,33,o),
(392,27,c),
(396,26,o),
(399,26,o),
(403,26,cs),
(422,26,o),
(436,38,o),
(436,46,c),
(437,48,o),
(437,51,o),
(437,53,cs),
(437,57,o),
(436,61,o),
(433,66,cs),
(413,105,o),
(406,156,o),
(406,229,cs),
(406,274,o),
(409,321,o),
(409,387,cs),
(409,401,o),
(409,414,o),
(408,423,c),
(408,473,o),
(406,517,o),
(400,555,cs),
(395,591,o),
(375,610,o),
(342,613,c),
(317,588,o),
(295,555,o),
(278,519,c),
(276,517,o),
(270,514,o),
(267,514,c)
);
},
{
closed = 1;
nodes = (
(334,511,l),
(339,492,o),
(342,475,o),
(345,453,c),
(347,451,o),
(350,448,o),
(350,442,cs),
(347,415,o),
(347,350,o),
(347,308,c),
(298,297,o),
(245,286,o),
(187,281,c),
(291,440,o),
(219,370,o),
(331,511,c)
);
}
);
width = 479;
}
);
note = A;
unicode = 65;
},
{
glyphname = Aacute;
lastChange = "2023-01-15 20:39:03 +0000";
layers = (
{
hints = (
{
horizontal = 1;
place = (-69, 985);
place = (-69, 985);
type = Stem;
},
{
place = (363, 59);
place = (363, 59);
type = Stem;
},
{
horizontal = 1;
place = (212, 50);
place = (212, 50);
type = Stem;
}
);
layerId = m01;
shapes = (
{
closed = 1;
nodes = (
(368,664,o),
(368,664,o),
(368,667,c),
(399,681,o),
(426,702,o),
(453,727,c),
(455,727,l),
(457,729,o),
(459,729,o),
(464,729,c),
(468,734,o),
(476,742,o),
(484,744,c),
(504,755,o),
(525,767,o),
(542,781,c),
(544,787,o),
(544,793,o),
(544,797,cs),
(544,801,o),
(544,804,o),
(542,809,c),
(533,812,o),
(524,815,o),
(514,815,cs),
(500,815,o),
(487,810,o),
(473,798,cs),
(470,797,o),
(468,791,o),
(468,788,c),
(466,788,l),
(405,744,o),
(347,699,o),
(290,650,c),
(290,646,l),
(287,639,o),
(285,633,o),
(281,627,c),
(281,625,ls),
(281,612,o),
(285,604,o),
(297,600,c),
(299,600,o),
(303,603,o),
(306,603,c),
(329,622,o),
(349,642,o),
(366,664,c)
);
},
{
closed = 1;
nodes = (
(281,460,ls),
(259,427,o),
(239,389,o),
(217,350,c),
(154,270,o),
(101,182,o),
(57,85,c),
(52,83,o),
(49,80,o),
(46,74,c),
(46,69,o),
(44,63,o),
(44,58,c),
(38,55,o),
(35,52,o),
(35,47,c),
(2,-47,l),
(8,-61,o),
(19,-69,o),
(35,-69,c),
(49,-61,o),
(55,-47,o),
(55,-28,c),
(66,-14,o),
(71,3,o),
(74,22,c),
(96,74,o),
(121,127,o),
(151,174,c),
(156,173,o),
(161,172,o),
(165,172,cs),
(171,172,o),
(177,173,o),
(181,176,cs),
(209,193,o),
(239,204,o),
(270,212,c),
(272,211,o),
(273,211,o),
(275,211,cs),
(279,211,o),
(284,212,o),
(289,212,c),
(300,218,o),
(311,223,o),
(325,226,c),
(336,226,o),
(347,226,o),
(358,229,c),
(358,160,o),
(366,91,o),
(383,25,c),
(391,19,o),
(396,14,o),
(408,8,c),
(412,7,o),
(415,7,o),
(419,7,cs),
(438,7,o),
(452,19,o),
(452,27,c),
(453,29,o),
(453,32,o),
(453,34,cs),
(453,38,o),
(452,42,o),
(449,47,cs),
(429,86,o),
(422,137,o),
(422,210,cs),
(422,250,o),
(425,304,o),
(425,344,cs),
(425,353,o),
(425,363,o),
(424,372,c),
(424,422,o),
(422,466,o),
(416,504,cs),
(411,540,o),
(391,559,o),
(358,562,c),
(333,537,o),
(311,504,o),
(294,468,c),
(292,466,o),
(286,463,o),
(283,463,c)
);
},
{
closed = 1;
nodes = (
(350,460,l),
(355,441,o),
(358,424,o),
(361,402,c),
(363,400,o),
(366,397,o),
(366,391,cs),
(363,364,o),
(363,331,o),
(363,289,c),
(314,278,o),
(261,267,o),
(203,262,c),
(248,331,o),
(297,397,o),
(347,460,c)
);
}
);
width = 500;
}
);
note = Aacute;
unicode = 193;
},
{
glyphname = Acircumflex;
lastChange = "2023-01-15 20:40:07 +0000";
layers = (
{
hints = (
{
horizontal = 1;
place = (-11, 21);
target = up;
type = BottomGhost;
},
{
horizontal = 1;
place = (805, 11);
place = (805, 11);
type = Stem;
},
{
place = (17, 53);
place = (17, 53);
type = Stem;
},
{
place = (364, 63);
place = (364, 63);
type = Stem;
},
{
horizontal = 1;
place = (-25, 21);
target = up;
type = BottomGhost;
},
{
horizontal = 1;
place = (248, 53);
place = (248, 53);
type = Stem;
}
);
layerId = m01;
shapes = (
{
closed = 1;
nodes = (
(386,877,l),
(348,855,o),
(318,825,o),
(298,786,c),
(296,786,l),
(293,783,o),
(290,781,o),
(285,781,c),
(285,778,o),
(282,775,o),
(282,775,c),
(279,767,o),
(274,764,o),
(271,761,c),
(249,747,o),
(238,728,o),
(229,703,c),
(207,681,o),
(191,659,o),
(177,632,c),
(177,629,o),
(177,629,o),
(180,629,c),
(183,615,o),
(191,610,o),
(205,607,c),
(207,607,l),
(238,634,o),
(262,670,o),
(279,709,c),
(282,709,o),
(282,709,o),
(282,712,c),
(290,720,o),
(301,731,o),
(312,736,c),
(312,739,l),
(326,761,o),
(342,778,o),
(364,789,c),
(384,753,o),
(419,698,o),
(452,673,c),
(454,673,ls),
(471,676,o),
(485,678,o),
(496,684,c),
(496,687,l),
(499,696,o),
(500,705,o),
(500,713,cs),
(500,719,o),
(499,725,o),
(498,731,c),
(476,747,o),
(450,792,o),
(439,816,cs),
(425,841,o),
(409,860,o),
(389,877,c)
);
},
{
closed = 1;
nodes = (
(367,593,l),
(362,604,o),
(351,609,o),
(334,609,c),
(315,604,o),
(307,593,o),
(304,576,c),
(296,571,o),
(290,562,o),
(285,551,cs),
(274,524,o),
(265,496,o),
(254,466,c),
(243,455,o),
(238,441,o),
(232,430,c),
(221,419,l),
(196,370,o),
(169,320,o),
(138,270,c),
(136,265,o),
(136,259,o),
(133,251,c),
(114,223,o),
(100,196,o),
(92,168,c),
(75,143,o),
(61,119,o),
(50,88,cs),
(42,61,o),
(31,33,o),
(17,6,c),
(20,-11,o),
(28,-19,o),
(45,-25,c),
(70,3,l),
(70,11,o),
(70,19,o),
(72,28,c),
(97,72,o),
(114,113,o),
(130,157,c),
(130,163,o),
(133,166,o),
(138,168,c),
(138,171,o),
(141,177,o),
(141,179,c),
(196,273,o),
(249,370,o),
(301,466,c),
(307,480,o),
(315,488,o),
(323,496,c),
(349,437,o),
(362,376,o),
(362,316,cs),
(362,303,l),
(359,303,o),
(353,301,o),
(342,301,c),
(301,292,o),
(257,281,o),
(218,268,c),
(210,262,o),
(199,257,o),
(188,251,c),
(183,240,o),
(179,236,o),
(179,228,cs),
(179,214,o),
(185,206,o),
(198,203,c),
(226,206,o),
(249,212,o),
(274,226,c),
(304,237,o),
(334,243,o),
(364,248,c),
(364,201,o),
(367,149,o),
(373,94,c),
(373,58,o),
(381,28,o),
(395,0,c),
(406,-5,o),
(417,-11,o),
(433,-11,c),
(444,-5,o),
(453,6,o),
(458,19,c),
(445,55,o),
(435,97,o),
(431,143,cs),
(429,173,o),
(427,202,o),
(427,231,cs),
(427,244,o),
(427,256,o),
(428,268,cs),
(428,336,o),
(425,400,o),
(414,460,c),
(409,471,o),
(406,485,o),
(406,499,c),
(400,510,o),
(397,518,o),
(395,529,c),
(384,546,o),
(375,568,o),
(370,590,c)
);
}
);
width = 500;
}
);
note = Acircumflex;
unicode = 194;
},
{
glyphname = Adieresis;
lastChange = "2023-01-15 20:37:13 +0000";
layers = (
{
hints = (
{
horizontal = 1;
place = (-17, 21);
target = up;
type = BottomGhost;
},
{
horizontal = 1;
place = (225, 74);
place = (225, 74);
type = Stem;
},
{
place = (314, 47);
place = (314, 47);
type = Stem;
},
{
place = (405, 70);
place = (405, 70);
type = Stem;
},
{
place = (259, 67);
place = (259, 67);
type = Stem;
},
{
place = (438, 39);
place = (438, 39);
type = Stem;
}
);
layerId = m01;
shapes = (
{
closed = 1;
nodes = (
(300,872,o),
(300,873,o),
(299,873,cs),
(293,873,o),
(290,863,o),
(290,858,c),
(285,826,o),
(259,745,o),
(259,715,cs),
(259,700,o),
(280,681,o),
(293,672,c),
(297,679,o),
(318,684,o),
(326,686,c),
(326,689,l),
(336,696,o),
(342,708,o),
(342,719,cs),
(342,729,o),
(337,739,o),
(326,744,c),
(326,751,ls),
(326,789,o),
(335,796,o),
(345,831,cs),
(347,838,o),
(347,853,o),
(347,866,cs),
(347,889,l),
(340,898,o),
(329,902,o),
(318,902,cs),
(314,902,l),
(314,900,l),
(306,896,o),
(300,888,o),
(300,878,cs),
(300,876,o),
(301,874,o),
(301,872,c)
);
},
{
closed = 1;
nodes = (
(414,856,l),
(394,829,o),
(387,757,o),
(381,719,c),
(381,712,ls),
(381,690,o),
(394,648,o),
(418,648,cs),
(421,648,o),
(425,649,o),
(428,650,cs),
(437,654,o),
(443,675,o),
(444,683,cs),
(448,718,o),
(469,831,o),
(458,797,cs),
(450,773,o),
(463,805,o),
(463,832,cs),
(463,849,o),
(458,865,o),
(441,872,cs),
(439,873,o),
(438,873,o),
(436,873,cs),
(429,873,o),
(424,867,o),
(424,860,cs),
(424,859,o),
(425,858,o),
(425,856,c)
);
},
{
closed = 1;
nodes = (
(8,-38,o),
(12,-6,o),
(37,27,c),
(37,41,o),
(123,199,o),
(136,226,c),
(143,225,o),
(151,225,o),
(158,225,cs),
(202,225,o),
(248,239,o),
(293,242,c),
(306,255,o),
(356,263,o),
(385,263,cs),
(391,263,o),
(396,263,o),
(400,262,c),
(404,223,o),
(405,185,o),
(405,146,cs),
(405,118,o),
(404,90,o),
(403,63,c),
(399,63,o),
(397,61,o),
(397,57,cs),
(397,51,o),
(403,41,o),
(406,38,c),
(406,20,o),
(414,3,o),
(422,-14,c),
(429,-17,o),
(437,-19,o),
(444,-19,cs),
(448,-19,o),
(452,-18,o),
(456,-17,c),
(458,-10,o),
(463,-3,o),
(469,0,c),
(475,13,o),
(483,32,o),
(486,47,c),
(479,53,o),
(469,73,o),
(469,83,cs),
(469,102,o),
(475,119,o),
(475,139,cs),
(475,143,ls),
(475,211,o),
(477,285,o),
(467,353,cs),
(459,414,o),
(411,629,o),
(359,659,cs),
(354,662,o),
(349,663,o),
(345,663,cs),
(323,663,o),
(308,631,o),
(290,620,c),
(285,601,o),
(274,584,o),
(260,570,c),
(258,563,o),
(125,292,o),
(116,281,cs),
(109,271,o),
(98,268,o),
(94,253,cs),
(74,182,o),
(-13,34,o),
(-52,-39,c),
(-49,-50,o),
(-41,-59,o),
(-30,-61,c)
);
},
{
closed = 1;
nodes = (
(351,322,o),
(279,299,o),
(224,299,cs),
(207,299,o),
(192,301,o),
(180,306,c),
(204,336,o),
(222,371,o),
(237,407,cs),
(241,417,o),
(243,432,o),
(249,441,cs),
(254,450,o),
(265,459,o),
(271,468,cs),
(290,502,o),
(294,530,o),
(323,562,c),
(368,506,o),
(364,434,o),
(378,413,c),
(378,386,o),
(381,359,o),
(392,333,c)
);
}
);
width = 547;
}
);
note = Adieresis;
unicode = 196;
},
{
glyphname = Agrave;
lastChange = "2023-01-15 02:08:54 +0000";
layers = (
{
hints = (
{
horizontal = 1;
place = (-4, 21);
target = up;
type = BottomGhost;
},
{
horizontal = 1;
place = (167, 71);
place = (167, 71);
type = Stem;
},
{
horizontal = 1;
place = (676, 45);
place = (676, 45);
type = Stem;
},
{
place = (372, 57);
place = (372, 57);
type = Stem;
},
{
horizontal = 1;
place = (-7, 21);
target = up;
type = BottomGhost;
},
{
horizontal = 1;
place = (-26, 21);
target = up;
type = BottomGhost;
},
{
horizontal = 1;
place = (-21, 21);
target = up;
type = BottomGhost;
},
{
place = (400, 54);
place = (400, 54);
type = Stem;
}
);
layerId = m01;
shapes = (
{
closed = 1;
nodes = (
(346,850,l),
(365,812,o),
(390,779,o),
(418,748,c),
(448,721,o),
(484,696,o),
(522,677,c),
(525,677,ls),
(530,676,o),
(535,676,o),
(539,676,cs),
(551,676,o),
(558,679,o),
(564,685,c),
(565,688,o),
(565,692,o),
(565,695,cs),
(565,704,o),
(563,713,o),
(561,721,c),
(558,721,l),
(547,729,o),
(534,734,o),
(522,740,c),
(522,743,o),
(522,743,o),
(520,743,cs),
(518,743,o),
(516,746,o),
(516,750,cs),
(516,752,o),
(516,754,o),
(517,757,c),
(487,784,o),
(462,814,o),
(437,848,cs),
(423,867,o),
(404,883,o),
(379,892,c),
(365,883,o),
(351,872,o),
(346,859,c)
);
},
{
closed = 1;
nodes = (
(385,580,o),
(382,575,o),
(379,566,c),
(360,550,o),
(340,533,o),
(327,508,c),
(318,495,o),
(310,481,o),
(299,467,cs),
(277,434,o),
(255,395,o),
(239,351,c),
(214,318,o),
(189,285,o),
(170,244,c),
(150,233,o),
(134,216,o),
(120,197,c),
(122,194,o),
(122,191,o),
(122,187,cs),
(122,182,o),
(122,178,o),
(120,172,c),
(106,150,o),
(93,128,o),
(81,100,c),
(54,65,o),
(29,32,o),
(2,-7,c),
(4,-21,o),
(7,-26,o),
(18,-32,c),
(21,-29,o),
(21,-26,o),
(24,-26,c),
(48,-15,o),
(70,4,o),
(84,32,c),
(84,37,o),
(84,45,o),
(93,54,c),
(109,76,o),
(123,98,o),
(134,123,c),
(142,131,o),
(150,139,o),
(156,150,c),
(178,161,o),
(205,167,o),
(233,167,c),
(249,175,o),
(269,180,o),
(288,183,c),
(294,186,o),
(296,186,o),
(296,186,c),
(309,191,o),
(322,194,o),
(335,194,cs),
(345,194,o),
(354,192,o),
(363,189,c),
(370,172,o),
(374,155,o),
(374,137,cs),
(374,123,o),
(372,110,o),
(368,95,c),
(376,65,o),
(382,32,o),
(390,-7,c),
(401,-12,o),
(407,-15,o),
(415,-21,c),
(423,-21,o),
(434,-12,o),
(448,-4,c),
(451,8,o),
(453,19,o),
(453,30,cs),
(453,47,o),
(449,63,o),
(440,76,c),
(433,110,o),
(430,142,o),
(430,175,cs),
(430,185,o),
(431,195,o),
(431,205,cs),
(431,214,o),
(434,219,o),
(440,225,c),
(441,228,o),
(441,231,o),
(441,234,cs),
(441,243,o),
(437,251,o),
(429,255,c),
(430,265,o),
(431,274,o),
(431,284,cs),
(431,294,o),
(430,305,o),
(429,316,c),
(437,329,o),
(443,351,o),
(443,373,cs),
(443,393,o),
(448,412,o),
(454,426,c),
(454,462,l),
(462,483,o),
(467,508,o),
(467,536,cs),
(467,553,o),
(465,570,o),
(462,588,c),
(456,594,o),
(451,599,o),
(443,602,cs),
(439,603,o),
(436,603,o),
(432,603,cs),
(414,603,o),
(399,597,o),
(387,586,c)
);
},
{
closed = 1;
nodes = (
(280,340,o),
(294,360,o),
(305,384,c),
(307,395,o),
(310,404,o),
(316,412,cs),
(365,470,l),
(376,495,o),
(385,508,o),
(396,517,c),
(399,514,o),
(400,507,o),
(400,498,cs),
(400,484,o),
(398,468,o),
(398,458,cs),
(398,453,l),
(393,445,o),
(390,354,o),
(382,351,c),
(379,327,o),
(376,305,o),
(371,291,c),
(372,287,o),
(372,284,o),
(372,280,cs),
(372,271,o),
(370,263,o),
(365,255,c),
(351,252,o),
(332,249,o),
(307,244,c),
(299,244,o),
(291,241,o),
(280,238,cs),
(268,234,o),
(256,232,o),
(245,232,cs),
(233,232,o),
(222,234,o),
(211,238,c),
(219,249,o),
(258,299,o),
(260,321,c)
);
}
);
width = 500;
}
);
note = Agrave;
unicode = 192;
},
{
glyphname = Aring;
lastChange = "2023-01-15 20:37:28 +0000";
layers = (
{
hints = (
{
horizontal = 1;
place = (-17, 21);
target = up;
type = BottomGhost;
},
{
horizontal = 1;
place = (225, 74);
place = (225, 74);
type = Stem;
},
{
horizontal = 1;
place = (704, 44);
place = (704, 44);
type = Stem;
},
{
horizontal = 1;
place = (888, 44);
place = (888, 44);
type = Stem;
},
{
place = (405, 70);
place = (405, 70);
type = Stem;
},
{
place = (428, 41);
place = (428, 41);
type = Stem;
}
);
layerId = m01;
shapes = (
{
closed = 1;
nodes = (
(456,849,l),
(444,871,o),
(424,888,o),
(400,899,c),
(395,899,o),
(390,900,o),
(384,900,cs),
(345,899,o),
(313,890,o),
(289,868,cs),
(258,839,o),
(238,803,o),
(230,755,c),
(232,713,o),
(249,685,o),
(287,672,c),
(300,672,o),
(313,671,o),
(327,669,c),
(329,672,o),
(332,674,o),
(338,674,cs),
(351,675,o),
(362,680,o),
(373,685,cs),
(413,702,o),
(444,729,o),
(466,764,c),
(468,772,o),
(469,780,o),
(469,788,cs),
(469,805,o),
(465,823,o),
(458,839,c),
(458,840,o),
(459,841,o),
(459,841,c),
(459,843,o),
(458,844,o),
(458,849,c)
);
},
{
closed = 1;
nodes = (
(357,719,ls),
(354,720,o),
(352,721,o),
(350,721,cs),
(346,721,o),
(343,719,o),
(339,716,c),
(304,716,l),
(295,721,o),
(285,725,o),
(278,729,c),
(273,739,o),
(270,749,o),
(267,759,c),
(275,789,o),
(285,813,o),
(301,836,c),
(305,840,o),
(309,840,o),
(316,843,c),
(319,838,o),
(325,835,o),
(333,835,cs),
(336,835,o),
(339,835,o),
(343,836,c),
(345,840,o),
(348,842,o),
(354,843,c),
(356,847,o),
(358,849,o),
(362,852,c),
(369,852,o),
(375,856,o),
(383,856,cs),
(385,856,o),
(388,856,o),
(391,854,c),
(400,852,o),
(405,843,o),
(415,840,c),
(416,830,o),
(419,819,o),
(424,808,c),
(425,803,o),
(428,796,o),
(428,788,cs),
(428,772,o),
(414,765,o),
(406,750,c),
(396,745,o),
(387,738,o),
(379,729,c),
(369,729,l),
(367,723,o),
(362,722,o),
(358,719,c)
);
},
{
closed = 1;
nodes = (
(8,-38,o),
(12,-6,o),
(37,27,c),
(37,41,o),
(123,199,o),
(136,226,c),
(143,225,o),
(151,225,o),
(158,225,cs),
(202,225,o),
(248,239,o),
(293,242,c),
(306,255,o),
(356,263,o),
(385,263,cs),
(391,263,o),
(396,263,o),
(400,262,c),
(404,223,o),
(405,185,o),
(405,146,cs),
(405,118,o),
(404,90,o),
(403,63,c),
(399,63,o),
(397,61,o),
(397,57,cs),
(397,51,o),
(403,41,o),
(406,38,c),
(406,20,o),
(414,3,o),
(422,-14,c),
(429,-17,o),
(437,-19,o),
(444,-19,cs),
(448,-19,o),
(452,-18,o),
(456,-17,c),
(458,-10,o),
(463,-3,o),
(469,0,c),
(475,13,o),
(483,32,o),
(486,47,c),
(479,53,o),
(469,73,o),
(469,83,cs),
(469,102,o),
(475,119,o),
(475,139,cs),
(475,143,ls),
(475,211,o),
(477,285,o),
(467,353,cs),
(459,414,o),
(411,629,o),
(359,659,cs),
(354,662,o),
(349,663,o),
(345,663,cs),
(323,663,o),
(308,631,o),
(290,620,c),
(285,601,o),
(274,584,o),
(260,570,c),
(258,563,o),
(125,292,o),
(116,281,cs),
(109,271,o),
(98,268,o),
(94,253,cs),
(74,182,o),
(-13,34,o),
(-52,-39,c),
(-49,-50,o),
(-41,-59,o),
(-30,-61,c)
);
},
{
closed = 1;
nodes = (
(351,322,o),
(279,299,o),
(224,299,cs),
(207,299,o),
(192,301,o),
(180,306,c),
(204,336,o),
(222,371,o),
(237,407,cs),
(241,417,o),
(243,432,o),
(249,441,cs),
(254,450,o),
(265,459,o),
(271,468,cs),
(290,502,o),
(294,530,o),
(323,562,c),
(368,506,o),
(364,434,o),
(378,413,c),
(378,386,o),
(381,359,o),
(392,333,c)
);
}
);
width = 500;
}
);
note = Aring;
unicode = 197;
},
{
glyphname = Atilde;
lastChange = "2023-01-15 02:08:54 +0000";
layers = (
{
hints = (
{
horizontal = 1;
place = (212, 50);
place = (212, 50);
type = Stem;
},
{
horizontal = 1;
place = (623, 66);
place = (623, 66);
type = Stem;
},
{
place = (363, 59);
place = (363, 59);
type = Stem;
},
{
horizontal = 1;
place = (711, 64);
place = (711, 64);
type = Stem;
},
{
place = (242, 53);
place = (242, 53);
type = Stem;
}
);
layerId = m01;
shapes = (
{
closed = 1;
nodes = (
(537,732,o),
(520,739,o),
(496,739,c),
(496,737,ls),
(496,725,o),
(477,698,o),
(468,689,c),
(464,689,ls),
(460,689,o),
(456,689,o),
(451,689,cs),
(446,689,l),
(444,689,l),
(405,720,l),
(405,725,o),
(403,729,o),
(400,736,c),
(387,744,o),
(375,755,o),
(366,766,c),
(364,766,l),
(350,769,o),
(341,775,o),
(325,775,c),
(325,772,l),
(318,770,o),
(311,766,o),
(303,766,c),
(303,764,l),
(297,758,o),
(291,752,o),
(284,747,c),
(284,744,ls),
(281,719,o),
(242,685,o),
(242,656,cs),
(242,645,o),
(253,625,o),
(264,623,cs),
(267,623,ls),
(273,624,o),
(289,636,o),
(295,640,c),
(295,669,o),
(308,688,o),
(325,711,c),
(327,711,ls),
(337,711,o),
(340,698,o),
(344,692,c),
(347,689,o),
(353,687,o),
(355,684,cs),
(365,672,o),
(374,657,o),
(383,645,c),
(386,645,l),
(393,641,o),
(420,624,o),
(427,623,cs),
(433,623,ls),
(456,623,o),
(499,638,o),
(515,648,c),
(515,651,l),
(521,660,o),
(528,668,o),
(537,673,c),
(537,676,l),
(542,680,o),
(549,697,o),
(549,705,cs),
(549,708,o),
(548,709,o),
(546,709,c)
);
},
{
closed = 1;
nodes = (
(281,460,ls),
(259,427,o),
(239,389,o),
(217,350,c),
(154,270,o),
(101,182,o),
(57,85,c),
(52,83,o),
(49,80,o),
(46,74,c),
(46,69,o),
(44,63,o),
(44,58,c),
(38,55,o),
(35,52,o),
(35,47,c),
(2,-47,l),
(8,-61,o),
(19,-69,o),
(35,-69,c),
(49,-61,o),
(55,-47,o),
(55,-28,c),
(66,-14,o),
(71,3,o),
(74,22,c),
(96,74,o),
(121,127,o),
(151,174,c),
(156,173,o),
(161,172,o),
(165,172,cs),
(171,172,o),
(177,173,o),
(181,176,cs),
(209,193,o),
(239,204,o),
(270,212,c),
(272,211,o),
(273,211,o),
(275,211,cs),
(279,211,o),
(284,212,o),
(289,212,c),
(300,218,o),
(311,223,o),
(325,226,c),
(336,226,o),
(347,226,o),
(358,229,c),
(358,160,o),
(366,91,o),
(383,25,c),
(391,19,o),
(396,14,o),
(408,8,c),
(412,7,o),
(415,7,o),
(419,7,cs),
(438,7,o),
(452,19,o),
(452,27,c),
(453,29,o),
(453,32,o),
(453,34,cs),
(453,38,o),
(452,42,o),
(449,47,cs),
(429,86,o),
(422,137,o),
(422,210,cs),
(422,250,o),
(425,304,o),
(425,344,cs),
(425,353,o),
(425,363,o),
(424,372,c),
(424,422,o),
(422,466,o),
(416,504,cs),
(411,540,o),
(391,559,o),
(358,562,c),
(333,537,o),
(311,504,o),
(294,468,c),
(292,466,o),
(286,463,o),
(283,463,c)
);
},
{
closed = 1;
nodes = (
(350,460,l),
(355,441,o),
(358,424,o),
(361,402,c),
(363,400,o),
(366,397,o),
(366,391,cs),
(363,364,o),
(363,331,o),
(363,289,c),
(314,278,o),
(261,267,o),
(203,262,c),
(248,331,o),
(297,397,o),
(347,460,c)
);
}
);
width = 500;
}
);
note = Atilde;
unicode = 195;
},
{
glyphname = AE;
lastChange = "2023-01-15 02:08:54 +0000";
layers = (
{
hints = (
{
horizontal = 1;
place = (210, 53);
place = (210, 53);
type = Stem;
},
{
horizontal = 1;
place = (435, 58);
place = (435, 58);
type = Stem;
},
{
place = (443, 44);
place = (443, 44);
type = Stem;
},
{
horizontal = 1;
place = (387, 72);
place = (387, 72);
type = Stem;
},
{
horizontal = 1;
place = (500, -20);
target = down;
type = TopGhost;
},
{
place = (373, 56);
place = (373, 56);
type = Stem;
},
{
horizontal = 1;
place = (177, 69);
place = (177, 69);
type = Stem;
},
{
horizontal = 1;
place = (214, 53);
place = (214, 53);
type = Stem;
},
{
horizontal = 1;
place = (241, 55);
place = (241, 55);
type = Stem;
}
);
layerId = m01;
shapes = (
{
closed = 1;
nodes = (
(705,427,o),
(752,435,o),
(768,435,cs),
(770,435,o),
(771,435,o),
(772,435,cs),
(788,435,ls),
(808,435,o),
(825,438,o),
(839,459,c),
(839,474,o),
(829,500,o),
(814,500,cs),
(810,500,o),
(805,497,o),
(799,491,c),
(792,492,o),
(783,493,o),
(775,493,cs),
(749,493,o),
(722,487,o),
(701,481,cs),
(650,466,o),
(602,459,o),
(549,459,cs),
(538,459,l),
(534,451,o),
(502,454,o),
(487,448,c),
(482,482,o),
(474,508,o),
(458,514,c),
(430,491,o),
(403,490,o),
(382,455,c),
(380,453,o),
(376,452,o),
(372,452,cs),
(370,452,l),
(368,450,ls),
(341,420,o),
(317,384,o),
(291,349,c),
(217,278,o),
(153,199,o),
(96,108,c),
(91,107,o),
(87,104,o),
(84,99,c),
(83,94,o),
(80,88,o),
(80,83,c),
(73,81,o),
(70,77,o),
(69,73,c),
(24,-15,l),
(28,-30,o),
(39,-40,o),
(55,-42,c),
(69,-36,o),
(76,-22,o),
(79,-3,c),
(92,8,o),
(99,24,o),
(105,43,c),
(133,91,o),
(166,141,o),
(201,183,c),
(207,181,o),
(213,180,o),
(219,180,cs),
(224,180,o),
(228,180,o),
(231,182,c),
(261,194,o),
(293,202,o),
(325,205,c),
(329,202,o),
(336,204,o),
(344,202,c),
(355,207,o),
(367,211,o),
(381,212,c),
(387,210,o),
(393,210,o),
(399,210,cs),
(404,210,o),
(409,210,o),
(414,211,cs),
(415,211,ls),
(416,211,o),
(418,211,o),
(420,212,c),
(408,178,o),
(373,56,o),
(373,-6,cs),
(373,-23,o),
(376,-36,o),
(383,-40,cs),
(391,-45,o),
(405,-47,o),
(416,-47,cs),
(421,-47,ls),
(464,-46,o),
(508,-40,o),
(547,-32,cs),
(593,-23,o),
(684,-14,o),
(721,-3,cs),
(729,-1,o),
(780,19,o),
(788,24,cs),
(798,30,o),
(823,62,o),
(827,73,cs),
(828,75,o),
(828,77,o),
(828,79,cs),
(828,88,o),
(820,97,o),
(811,100,c),
(782,98,o),
(770,81,o),
(744,70,cs),
(710,53,o),
(631,47,o),
(593,47,c),
(587,39,o),
(542,33,o),
(525,21,c),
(522,24,o),
(516,25,o),
(508,25,cs),
(485,25,o),
(444,16,o),
(429,15,c),
(431,57,o),
(442,144,o),
(463,177,c),
(520,181,o),
(574,191,o),
(629,207,cs),
(647,212,o),
(666,214,o),
(684,214,cs),
(722,215,o),
(757,231,o),
(796,233,c),
(799,242,o),
(810,241,o),
(818,241,c),
(832,252,o),
(839,261,o),
(839,272,cs),
(839,279,o),
(835,287,o),
(828,296,c),
(796,296,o),
(680,281,o),
(658,263,c),
(648,266,o),
(638,267,o),
(629,267,cs),
(590,267,o),
(563,246,o),
(520,246,cs),
(510,246,o),
(498,247,o),
(486,250,c),
(487,254,ls),
(487,255,o),
(486,255,o),
(486,256,cs),
(486,265,ls),
(487,273,o),
(487,280,o),
(487,287,cs),
(487,312,ls),
(487,339,o),
(489,366,o),
(505,390,c),
(509,388,o),
(515,387,o),
(522,387,cs),
(554,387,o),
(616,403,o),
(633,411,c),
(637,410,o),
(640,409,o),
(644,409,cs),
(652,409,o),
(659,413,o),
(662,421,c),
(668,421,ls),
(675,421,o),
(681,422,o),
(687,426,c)
);
},
{
closed = 1;
nodes = (
(433,440,l),
(436,440,l),
(438,427,o),
(440,414,o),
(440,400,c),
(437,394,o),
(435,389,o),
(434,383,c),
(437,378,o),
(440,374,o),
(443,370,c),
(437,343,o),
(432,311,o),
(427,269,c),
(390,266,o),
(351,263,o),
(310,263,cs),
(295,263,o),
(280,263,o),
(265,264,c),
(318,325,o),
(376,371,o),
(433,427,c)
);
}
);
width = 900;
}
);
note = AE;
unicode = 198;
},
{
glyphname = B;
lastChange = "2023-01-15 02:08:54 +0000";
layers = (
{
hints = (
{
horizontal = 1;
place = (-25, 61);
place = (-25, 61);
type = Stem;
},
{
horizontal = 1;
place = (314, 75);
place = (314, 75);
type = Stem;
},
{
horizontal = 1;
place = (585, 60);
place = (585, 60);
type = Stem;
},
{
place = (111, 61);
place = (111, 61);
type = Stem;
},
{
horizontal = 1;
place = (-3, 21);
target = up;
type = BottomGhost;
},
{
place = (79, 58);
place = (79, 58);
type = Stem;
},
{
horizontal = 1;
place = (-14, 21);
target = up;
type = BottomGhost;
},
{
place = (394, 60);
place = (394, 60);
type = Stem;
},
{
horizontal = 1;
place = (-14, 58);
place = (-14, 58);
type = Stem;
},
{
place = (405, 62);
place = (405, 62);
type = Stem;
}
);
layerId = m01;
shapes = (
{
closed = 1;
nodes = (
(253,648,o),
(225,645,o),
(195,645,c),
(143,639,o),
(102,620,o),
(74,582,c),
(82,562,o),
(96,551,o),
(110,540,c),
(111,526,o),
(111,512,o),
(111,499,cs),
(111,462,o),
(110,425,o),
(104,389,cs),
(99,364,o),
(93,339,o),
(85,314,c),
(82,295,o),
(79,276,o),
(79,259,c),
(63,221,o),
(49,182,o),
(38,138,c),
(38,113,ls),
(38,107,o),
(35,102,o),
(33,96,c),
(33,83,o),
(33,69,o),
(30,58,c),
(33,47,o),
(33,36,o),
(33,22,c),
(52,11,o),
(71,5,o),
(96,5,c),
(102,0,o),
(113,-3,o),
(124,-3,c),
(124,-11,o),
(126,-14,o),
(132,-14,cs),
(148,-14,o),
(162,-19,o),
(173,-27,c),
(181,-27,o),
(190,-25,o),
(201,-25,c),
(212,-22,o),
(222,-21,o),
(232,-21,cs),
(242,-21,o),
(251,-22,o),
(259,-25,c),
(264,-19,o),
(272,-14,o),
(281,-14,c),
(308,-8,o),
(330,3,o),
(344,19,cs),
(352,28,o),
(361,33,o),
(372,33,c),
(385,41,o),
(394,55,o),
(399,72,c),
(413,80,o),
(424,91,o),
(432,105,c),
(438,121,o),
(443,132,o),
(454,146,c),
(454,160,l),
(460,163,o),
(463,168,o),
(463,174,c),
(466,187,o),
(467,199,o),
(467,210,cs),
(467,243,o),
(454,269,o),
(427,289,c),
(427,295,o),
(427,298,o),
(421,303,cs),
(410,312,o),
(396,320,o),
(380,328,c),
(344,342,o),
(308,353,o),
(275,364,c),
(341,405,l),
(350,408,o),
(355,408,o),
(363,411,c),
(391,427,o),
(416,444,o),
(441,463,cs),
(446,466,o),
(449,469,o),
(449,477,c),
(454,480,o),
(460,480,o),
(468,482,c),
(487,504,o),
(498,535,o),
(504,573,c),
(496,587,o),
(487,601,o),
(474,615,c),
(429,637,o),
(383,649,o),
(338,649,cs),
(323,649,o),
(307,648,o),
(292,645,c),
(289,648,o),
(283,650,o),
(281,650,cs)
);
},
{
closed = 1;
nodes = (
(303,446,o),
(292,441,o),
(283,427,c),
(261,422,o),
(242,411,o),
(223,403,c),
(203,391,o),
(184,389,o),
(159,389,c),
(159,397,l),
(168,428,o),
(172,461,o),
(172,493,cs),
(172,512,o),
(171,530,o),
(168,548,cs),
(165,562,o),
(165,571,o),
(165,579,c),
(187,583,o),
(208,585,o),
(230,585,cs),
(238,585,o),
(247,585,o),
(256,584,cs),
(267,584,o),
(275,587,o),
(281,593,c),
(322,587,o),
(363,582,o),
(402,573,cs),
(413,571,o),
(424,562,o),
(432,554,c),
(429,537,o),
(421,521,o),
(402,510,c),
(388,499,o),
(374,491,o),
(358,482,cs),
(355,480,o),
(355,477,o),
(355,469,c),
(341,466,o),
(330,458,o),
(319,446,c)
);
},
{
closed = 1;
nodes = (
(311,58,o),
(300,52,o),
(289,44,c),
(278,44,o),
(270,44,o),
(256,36,c),
(236,36,o),
(214,33,o),
(192,28,c),
(159,30,o),
(132,41,o),
(107,61,c),
(91,113,l),
(99,135,o),
(102,157,o),
(104,187,c),
(110,198,o),
(115,209,o),
(121,221,c),
(121,225,o),
(120,228,o),
(120,231,cs),
(120,251,o),
(128,270,o),
(137,287,c),
(137,303,o),
(137,314,o),
(146,325,c),
(154,325,o),
(162,320,o),
(176,314,c),
(181,314,o),
(187,314,o),
(195,317,c),
(223,309,o),
(253,300,o),
(283,289,c),
(330,281,o),
(369,262,o),
(399,229,c),
(402,218,o),
(405,204,o),
(405,193,c),
(396,185,o),
(394,174,o),
(394,157,c),
(383,143,o),
(374,127,o),
(366,107,c),
(361,107,o),
(358,105,o),
(355,99,cs),
(347,85,o),
(338,72,o),
(327,61,c)
);
}
);
width = 534;
}
);
note = B;
unicode = 66;
},
{
glyphname = C;
lastChange = "2023-01-15 02:08:54 +0000";
layers = (
{
hints = (
{
horizontal = 1;
place = (-7, 67);
place = (-7, 67);
type = Stem;
},
{
horizontal = 1;
place = (516, 54);
place = (516, 54);
type = Stem;
},
{
place = (33, 69);
place = (33, 69);
type = Stem;
}
);
layerId = m01;
shapes = (
{
closed = 1;
nodes = (
(524,203,l),
(502,203,o),
(488,198,o),
(482,181,c),
(466,178,o),
(452,170,o),
(444,156,c),
(433,145,o),
(422,137,o),
(411,129,c),
(394,112,o),
(375,98,o),
(350,93,c),
(331,79,o),
(309,68,o),
(281,60,c),
(268,60,o),
(248,57,o),
(229,54,c),
(223,63,o),
(215,65,o),
(207,68,c),
(141,82,o),
(105,129,o),
(102,206,c),
(101,212,o),
(100,216,o),
(100,221,cs),
(100,225,o),
(101,228,o),
(102,231,c),
(102,258,o),
(105,286,o),
(105,319,cs),
(105,325,o),
(110,330,o),
(113,338,cs),
(116,349,o),
(116,360,o),
(119,371,c),
(124,374,o),
(130,382,o),
(130,396,c),
(144,405,o),
(152,418,o),
(160,432,c),
(177,440,o),
(190,451,o),
(204,468,c),
(226,471,o),
(243,482,o),
(262,495,c),
(276,498,l),
(307,510,o),
(342,516,o),
(376,516,cs),
(381,516,o),
(387,515,o),
(392,515,c),
(408,512,o),
(422,504,o),
(433,495,c),
(449,498,o),
(460,506,o),
(466,523,c),
(463,539,o),
(460,550,o),
(452,556,cs),
(435,567,o),
(415,571,o),
(394,571,cs),
(388,571,o),
(382,571,o),
(375,570,c),
(353,570,o),
(328,568,o),
(298,561,cs),
(279,557,o),
(257,545,o),
(237,534,c),
(196,517,o),
(155,493,o),
(119,460,cs),
(86,429,o),
(64,385,o),
(50,333,c),
(44,300,o),
(36,269,o),
(33,242,c),
(33,223,ls),
(33,170,o),
(44,126,o),
(66,85,cs),
(91,41,o),
(131,14,o),
(182,2,cs),
(208,-4,o),
(231,-7,o),
(253,-7,cs),
(272,-7,o),
(290,-5,o),
(306,-1,c),
(367,24,o),
(422,57,o),
(469,98,cs),
(494,120,o),
(518,151,o),
(535,187,c),
(535,195,o),
(529,200,o),
(524,200,c)
);
}
);
width = 535;
}
);
note = C;
unicode = 67;
},
{
glyphname = Ccedilla;
lastChange = "2023-01-15 02:08:54 +0000";
layers = (
{
hints = (
{
horizontal = 1;
place = (-339, 62);
place = (-339, 62);
type = Stem;
},
{
horizontal = 1;
place = (-144, 62);
place = (-144, 62);
type = Stem;
},
{
horizontal = 1;
place = (-4, 21);
target = up;
type = BottomGhost;
},
{
horizontal = 1;
place = (578, 58);
place = (578, 58);
type = Stem;
},
{
place = (37, 60);
place = (37, 60);
type = Stem;
},
{
place = (299, 60);
place = (299, 60);
type = Stem;
}
);
layerId = m01;
shapes = (
{
closed = 1;
nodes = (
(448,614,o),
(398,636,o),
(352,636,cs),
(324,636,o),
(299,629,o),
(280,610,c),
(256,604,o),
(176,554,o),
(162,536,cs),
(158,531,o),
(158,527,o),
(154,522,cs),
(149,517,o),
(142,515,o),
(137,511,cs),
(124,500,o),
(116,480,o),
(107,467,cs),
(66,410,o),
(37,377,o),
(37,291,cs),
(37,217,o),
(58,120,o),
(101,65,cs),
(120,40,o),
(172,10,o),
(200,-4,c),
(197,-21,o),
(172,-79,o),
(162,-93,c),
(162,-110,o),
(148,-126,o),
(148,-141,cs),
(148,-150,o),
(153,-159,o),
(170,-167,c),
(215,-161,o),
(227,-144,o),
(271,-144,cs),
(277,-144,o),
(284,-144,o),
(291,-145,c),
(297,-150,o),
(299,-158,o),
(299,-168,cs),
(299,-209,o),
(252,-277,o),
(192,-277,cs),
(185,-277,o),
(161,-267,o),
(154,-264,c),
(145,-269,o),
(133,-283,o),
(133,-296,cs),
(133,-298,o),
(133,-300,o),
(134,-302,cs),
(144,-327,o),
(181,-339,o),
(210,-339,cs),
(220,-339,o),
(229,-338,o),
(236,-335,cs),
(251,-330,o),
(265,-319,o),
(280,-313,c),
(289,-294,o),
(296,-283,o),
(311,-269,cs),
(345,-235,o),
(359,-185,o),
(359,-138,cs),
(359,-132,o),
(359,-126,o),
(358,-120,c),
(343,-111,o),
(334,-98,o),
(325,-84,c),
(311,-82,o),
(297,-82,o),
(282,-82,cs),
(269,-82,o),
(255,-82,o),
(241,-82,cs),
(225,-82,l),
(233,-54,o),
(244,-27,o),
(267,-7,c),
(302,-2,o),
(332,8,o),
(363,26,cs),
(368,29,o),
(371,29,o),
(377,29,c),
(399,48,o),
(423,67,o),
(448,84,cs),
(465,95,o),
(471,109,o),
(484,122,cs),
(497,135,o),
(519,143,o),
(519,165,cs),
(519,176,o),
(512,187,o),
(501,191,c),
(462,184,o),
(402,91,o),
(300,65,cs),
(286,61,o),
(268,58,o),
(248,58,cs),
(219,58,o),
(189,65,o),
(173,84,cs),
(130,138,o),
(97,223,o),
(97,300,cs),
(97,329,o),
(102,357,o),
(112,382,cs),
(122,405,o),
(145,464,o),
(170,472,c),
(180,485,o),
(205,518,o),
(217,525,cs),
(255,547,o),
(285,565,o),
(330,574,cs),
(343,577,o),
(354,578,o),
(364,578,cs),
(390,578,o),
(406,568,o),
(432,544,cs),
(435,541,o),
(440,541,o),
(445,541,cs),
(451,541,l),
(470,546,o),
(473,566,o),
(473,583,c)
);
}
);
width = 500;
}
);
note = Ccedilla;
unicode = 199;
},
{
glyphname = D;
lastChange = "2023-01-15 02:08:54 +0000";
layers = (
{
hints = (
{
horizontal = 1;
place = (-1, 21);
target = up;
type = BottomGhost;
},
{
horizontal = 1;
place = (537, 72);
place = (537, 72);
type = Stem;
},
{
place = (30, 75);
place = (30, 75);
type = Stem;
},
{
place = (141, 49);
place = (141, 49);
type = Stem;
},
{
place = (507, 61);
place = (507, 61);
type = Stem;
},
{
horizontal = 1;
place = (10, 45);
place = (10, 45);
type = Stem;
},
{
horizontal = 1;
place = (570, 62);
place = (570, 62);
type = Stem;
},
{
horizontal = 1;
place = (-1, 56);
place = (-1, 56);
type = Stem;
}
);
layerId = m01;
shapes = (
{
closed = 1;
nodes = (
(372,609,l),
(374,610,o),
(374,611,o),
(374,612,cs),
(374,613,o),
(374,614,o),
(372,614,c),
(361,620,o),
(345,622,o),
(325,625,c),
(320,628,o),
(311,631,o),
(300,631,c),
(296,632,o),
(292,632,o),
(288,632,cs),
(276,632,o),
(268,629,o),
(262,622,c),
(258,627,o),
(253,629,o),
(247,629,cs),
(242,629,o),
(236,628,o),
(229,625,cs),
(220,622,o),
(215,617,o),
(204,611,c),
(182,611,l),
(154,603,o),
(130,592,o),
(105,578,c),
(99,567,o),
(94,559,o),
(86,553,c),
(88,540,o),
(91,531,o),
(99,526,c),
(121,534,o),
(146,542,o),
(174,553,c),
(157,509,l),
(157,487,o),
(152,468,o),
(141,446,c),
(141,435,ls),
(139,419,o),
(132,408,o),
(127,391,cs),
(124,377,o),
(124,363,o),
(121,352,cs),
(110,314,o),
(97,275,o),
(83,237,c),
(80,203,o),
(72,176,o),
(64,146,c),
(52,137,o),
(44,126,o),
(36,112,c),
(36,104,o),
(33,96,o),
(30,90,c),
(30,77,ls),
(30,66,o),
(33,55,o),
(33,44,c),
(36,24,o),
(44,16,o),
(61,16,c),
(63,8,o),
(70,4,o),
(82,4,cs),
(86,4,o),
(90,4,o),
(94,5,c),
(100,8,o),
(105,10,o),
(110,10,cs),
(117,10,o),
(124,6,o),
(130,-1,c),
(165,2,o),
(198,8,o),
(226,16,c),
(248,35,o),
(273,44,o),
(300,49,c),
(309,63,o),
(317,71,o),
(331,74,c),
(336,82,o),
(345,88,o),
(353,90,c),
(378,104,o),
(400,121,o),
(416,143,c),
(436,176,o),
(460,203,o),
(488,226,c),
(507,261,o),
(529,297,o),
(546,333,c),
(561,359,o),
(568,385,o),
(568,414,cs),
(568,429,o),
(566,444,o),
(562,460,c),
(529,531,o),
(474,581,o),
(397,609,c)
);
},
{
closed = 1;
nodes = (
(311,126,o),
(298,115,o),
(284,96,c),
(278,96,o),
(270,96,o),
(259,93,c),
(237,77,o),
(209,66,o),
(174,57,c),
(166,56,o),
(159,55,o),
(152,55,cs),
(136,55,o),
(122,59,o),
(110,66,c),
(105,77,o),
(105,88,o),
(105,99,c),
(119,135,o),
(124,168,o),
(127,206,c),
(146,256,o),
(163,311,o),
(176,369,c),
(187,388,o),
(190,408,o),
(190,427,c),
(207,452,o),
(215,482,o),
(218,515,cs),
(220,531,o),
(226,542,o),
(229,556,c),
(246,566,o),
(263,570,o),
(281,570,cs),
(290,570,o),
(299,569,o),
(309,567,cs),
(339,559,o),
(361,551,o),
(383,537,c),
(386,536,o),
(389,535,o),
(392,535,cs),
(395,535,o),
(398,536,o),
(402,537,c),
(411,526,o),
(422,515,o),
(441,512,c),
(441,507,o),
(444,501,o),
(447,496,c),
(452,496,o),
(455,493,o),
(463,490,c),
(466,482,o),
(474,476,o),
(482,468,c),
(488,449,o),
(496,432,o),
(507,416,c),
(507,397,o),
(505,374,o),
(499,347,c),
(491,333,o),
(480,317,o),
(469,300,cs),
(466,294,o),
(466,289,o),
(466,283,c),
(455,275,o),
(447,264,o),
(444,250,c),
(414,228,o),
(386,198,o),
(367,165,c),
(347,157,l),
(345,148,o),
(339,143,o),
(334,135,c)
);
}
);
width = 548;
}
);
note = D;
unicode = 68;
},
{
glyphname = Eth;
lastChange = "2023-01-15 02:08:54 +0000";
layers = (
{
hints = (
{
horizontal = 1;
place = (-16, 21);
target = up;
type = BottomGhost;
},
{
horizontal = 1;
place = (211, 70);
place = (211, 70);
type = Stem;
},
{
horizontal = 1;
place = (478, 66);
place = (478, 66);
type = Stem;
},
{
place = (78, 66);
place = (78, 66);
type = Stem;
},
{
place = (477, 64);
place = (477, 64);
type = Stem;
},
{
horizontal = 1;
place = (-23, 21);
target = up;
type = BottomGhost;
},
{
horizontal = 1;
place = (230, 66);
place = (230, 66);
type = Stem;
},
{
place = (139, 56);
place = (139, 56);
type = Stem;
},
{
horizontal = 1;
place = (-37, 56);
place = (-37, 56);
type = Stem;
}
);
layerId = m01;
shapes = (
{
closed = 1;
nodes = (
(-20,258,o),
(-26,262,o),
(-38,240,c),
(-29,218,o),
(-13,211,o),
(13,211,cs),
(46,211,o),
(86,218,o),
(116,218,c),
(114,183,o),
(103,110,o),
(78,85,c),
(78,71,o),
(75,58,o),
(72,44,c),
(88,28,o),
(80,2,o),
(94,-17,c),
(97,-16,o),
(100,-16,o),
(103,-16,cs),
(111,-16,o),
(119,-19,o),
(125,-25,c),
(130,-25,l),
(131,-24,o),
(134,-23,o),
(138,-23,cs),
(160,-23,o),
(218,-35,o),
(229,-36,cs),
(234,-37,o),
(239,-37,o),
(245,-37,cs),
(308,-37,o),
(372,-4,o),
(406,49,c),
(420,55,l),
(420,56,o),
(453,106,o),
(458,121,c),
(471,125,o),
(497,177,o),
(505,190,cs),
(522,217,o),
(541,248,o),
(541,281,cs),
(541,289,o),
(540,298,o),
(538,306,cs),
(513,411,o),
(445,468,o),
(348,507,cs),
(298,527,o),
(250,544,o),
(200,544,cs),
(175,544,o),
(149,540,o),
(122,529,c),
(118,521,o),
(94,494,o),
(94,494,c),
(94,478,o),
(109,465,o),
(125,465,cs),
(140,465,o),
(172,478,o),
(196,478,cs),
(199,478,o),
(202,478,o),
(205,477,cs),
(221,474,o),
(324,441,o),
(340,433,cs),
(388,408,o),
(477,325,o),
(477,261,cs),
(477,226,o),
(437,169,o),
(414,146,c),
(410,130,o),
(350,65,o),
(334,49,c),
(323,47,o),
(314,40,o),
(306,30,c),
(273,24,o),
(251,19,o),
(226,19,cs),
(210,19,o),
(194,21,o),
(172,25,c),
(168,32,o),
(159,34,o),
(152,36,c),
(152,42,o),
(148,48,o),
(144,52,c),
(144,93,o),
(161,178,o),
(174,218,c),
(203,226,o),
(233,230,o),
(263,230,cs),
(284,230,o),
(305,228,o),
(326,223,c),
(338,229,o),
(352,232,o),
(364,237,c),
(367,249,o),
(370,260,o),
(370,273,c),
(345,295,l),
(337,296,o),
(324,296,o),
(309,296,cs),
(279,296,o),
(242,294,o),
(229,289,c),
(188,298,l),
(193,321,o),
(195,344,o),
(195,368,cs),
(195,397,o),
(192,426,o),
(185,455,c),
(176,461,o),
(170,463,o),
(164,463,cs),
(152,463,o),
(145,453,o),
(133,441,c),
(136,416,o),
(139,387,o),
(139,358,cs),
(139,330,o),
(136,303,o),
(125,281,c),
(83,281,o),
(37,276,o),
(-5,273,c)
);
}
);
width = 500;
}
);
note = Eth;
unicode = 208;
},
{
glyphname = E;
lastChange = "2023-01-15 02:08:54 +0000";
layers = (
{
hints = (
{
horizontal = 1;
place = (9, 59);
place = (9, 59);
type = Stem;
},
{
horizontal = 1;
place = (256, 62);
place = (256, 62);
type = Stem;
},
{
horizontal = 1;
place = (554, 60);
place = (554, 60);
type = Stem;
},
{
place = (9, 52);
place = (9, 52);
type = Stem;
},
{
horizontal = 1;
place = (72, 49);
place = (72, 49);
type = Stem;
},
{
horizontal = 1;
place = (77, 61);
place = (77, 61);
type = Stem;
},
{
horizontal = 1;
place = (229, 77);
place = (229, 77);
type = Stem;
},
{
horizontal = 1;
place = (551, 36);
place = (551, 36);
type = Stem;
}
);
layerId = m01;
shapes = (
{
closed = 1;
nodes = (
(86,482,l),
(90,468,o),
(98,460,o),
(110,460,cs),
(115,460,o),
(119,461,o),
(124,463,c),
(127,457,o),
(128,449,o),
(128,441,cs),
(128,432,o),
(126,423,o),
(122,414,cs),
(100,369,o),
(86,328,o),
(75,284,c),
(58,267,o),
(53,251,o),
(50,234,c),
(36,207,o),
(22,174,o),
(9,132,c),
(9,110,o),
(9,91,o),
(0,69,c),
(3,58,o),
(3,50,o),
(6,41,c),
(20,30,o),
(36,22,o),
(50,11,c),
(63,10,o),
(75,9,o),
(86,9,cs),
(121,9,o),
(151,15,o),
(180,28,c),
(183,27,o),
(186,27,o),
(190,27,cs),
(199,27,o),
(209,30,o),
(221,33,c),
(226,39,o),
(232,41,o),
(240,44,c),
(279,50,o),
(317,58,o),
(356,72,c),
(397,72,l),
(405,74,o),
(408,74,o),
(411,80,c),
(419,80,o),
(425,80,o),
(427,77,c),
(439,77,ls),
(472,80,o),
(499,88,o),
(518,107,c),
(516,121,o),
(510,135,o),
(499,146,c),
(472,140,o),
(447,138,o),
(422,138,c),
(394,135,o),
(370,127,o),
(348,116,c),
(344,119,o),
(340,121,o),
(334,121,cs),
(330,121,o),
(326,120,o),
(320,118,c),
(304,116,o),
(287,107,o),
(268,102,c),
(224,96,o),
(185,85,o),
(144,72,cs),
(131,69,o),
(118,68,o),
(106,68,cs),
(91,68,o),
(76,70,o),
(61,74,c),
(61,96,o),
(64,118,o),
(69,140,c),
(69,149,o),
(72,152,o),
(75,157,c),
(77,185,o),
(86,209,o),
(97,229,cs),
(99,233,o),
(102,234,o),
(106,234,cs),
(110,234,o),
(115,232,o),
(119,229,c),
(138,234,o),
(157,245,o),
(182,256,c),
(192,256,ls),
(213,256,o),
(232,261,o),
(248,273,c),
(290,276,o),
(328,284,o),
(367,300,c),
(373,299,o),
(379,299,o),
(387,299,cs),
(394,299,o),
(403,299,o),
(414,300,cs),
(427,303,o),
(441,309,o),
(452,317,c),
(458,316,o),
(463,315,o),
(468,315,cs),
(482,315,o),
(493,321,o),
(499,334,c),
(494,350,o),
(485,364,o),
(469,375,c),
(414,358,o),
(361,347,o),
(312,342,c),
(287,334,l),
(262,334,o),
(243,325,o),
(229,311,c),
(225,316,o),
(217,318,o),
(213,318,cs),
(212,318,o),
(211,318,o),
(210,317,c),
(185,314,o),
(160,309,o),
(135,306,c),
(141,323,o),
(144,339,o),
(152,358,c),
(152,361,o),
(155,367,o),
(160,369,c),
(174,400,o),
(185,433,o),
(191,463,c),
(196,471,o),
(199,477,o),
(204,482,c),
(221,485,o),
(235,491,o),
(248,496,cs),
(259,500,o),
(271,504,o),
(282,510,cs),
(304,524,o),
(328,532,o),
(353,535,cs),
(367,537,o),
(378,543,o),
(389,551,c),
(416,551,o),
(441,557,o),
(472,559,c),
(480,557,o),
(485,554,o),
(491,554,c),
(513,557,o),
(527,559,o),
(541,573,c),
(538,587,o),
(532,598,o),
(524,612,c),
(512,613,o),
(501,614,o),
(490,614,cs),
(442,614,o),
(399,605,o),
(361,587,c),
(339,587,o),
(323,582,o),
(306,568,c),
(259,557,o),
(215,551,o),
(171,548,c),
(166,546,o),
(160,543,o),
(157,540,cs),
(146,532,o),
(133,526,o),
(116,526,c),
(100,515,o),
(89,502,o),
(86,485,c)
);
}
);
width = 571;
}
);
note = E;
unicode = 69;
},
{
glyphname = Eacute;
lastChange = "2023-01-15 02:08:54 +0000";
layers = (
{
hints = (
{
horizontal = 1;
place = (-25, 21);
target = up;
type = BottomGhost;
},
{
horizontal = 1;
place = (223, 71);
place = (223, 71);
type = Stem;
},
{
horizontal = 1;
place = (501, -20);
target = down;
type = TopGhost;
},
{
place = (42, 55);
place = (42, 55);
type = Stem;
},
{
horizontal = 1;
place = (-25, 55);
place = (-25, 55);
type = Stem;
},
{
horizontal = 1;
place = (463, 60);
place = (463, 60);
type = Stem;
}
);
layerId = m01;
shapes = (
{
closed = 1;
nodes = (
(443,831,o),
(401,794,o),
(362,755,c),
(362,750,o),
(360,740,o),
(356,740,cs),
(355,740,o),
(355,741,o),
(354,741,c),
(326,723,o),
(303,698,o),
(279,675,c),
(279,667,o),
(277,663,o),
(274,656,c),
(276,656,l),
(278,649,o),
(291,634,o),
(299,634,cs),
(301,634,l),
(321,652,o),
(388,707,o),
(401,722,cs),
(403,724,o),
(404,727,o),
(404,730,cs),
(404,731,o),
(403,732,o),
(403,733,c),
(405,733,ls),
(414,733,o),
(426,751,o),
(428,758,c),
(431,758,l),
(514,816,l),
(516,826,o),
(516,838,o),
(516,849,c),
(510,858,o),
(500,863,o),
(489,863,c)
);
},
{
closed = 1;
nodes = (
(40,99,o),
(42,96,o),
(45,88,c),
(43,79,o),
(42,70,o),
(42,62,cs),
(42,21,o),
(65,-9,o),
(108,-25,c),
(122,-25,o),
(133,-25,o),
(144,-30,c),
(172,-28,o),
(202,-22,o),
(235,-14,c),
(263,-11,o),
(287,-6,o),
(315,8,c),
(337,8,l),
(340,16,o),
(345,19,o),
(354,22,c),
(376,22,o),
(398,33,o),
(420,49,c),
(428,49,o),
(431,49,o),
(436,52,cs),
(453,63,o),
(467,74,o),
(475,93,c),
(475,107,o),
(472,115,o),
(461,121,cs),
(459,122,o),
(456,123,o),
(453,123,cs),
(449,123,o),
(444,122,o),
(439,118,c),
(423,110,o),
(406,99,o),
(390,91,c),
(378,88,o),
(367,85,o),
(359,80,c),
(351,77,o),
(340,74,o),
(332,71,c),
(290,66,o),
(260,55,o),
(235,38,c),
(229,39,o),
(222,39,o),
(216,39,cs),
(199,39,o),
(182,36,o),
(163,30,c),
(136,30,o),
(117,36,o),
(97,49,c),
(97,132,l),
(106,165,o),
(117,193,o),
(136,217,c),
(138,217,o),
(140,216,o),
(142,216,cs),
(148,216,o),
(154,219,o),
(158,223,c),
(174,223,o),
(191,226,o),
(205,229,cs),
(254,240,o),
(299,253,o),
(343,267,c),
(354,267,o),
(365,270,o),
(373,275,c),
(392,281,o),
(414,286,o),
(442,292,c),
(453,303,o),
(461,314,o),
(467,331,c),
(467,342,o),
(458,350,o),
(445,355,c),
(367,331,l),
(337,328,o),
(304,320,o),
(268,308,cs),
(239,298,o),
(212,294,o),
(188,294,cs),
(180,294,o),
(173,294,o),
(166,295,c),
(188,347,o),
(208,397,o),
(230,449,cs),
(232,454,o),
(238,456,o),
(246,456,cs),
(249,456,o),
(251,456,o),
(254,455,c),
(261,461,o),
(269,464,o),
(278,464,cs),
(281,464,o),
(284,464,o),
(287,463,c),
(323,463,o),
(354,468,o),
(381,479,c),
(391,476,o),
(399,475,o),
(408,475,cs),
(431,475,o),
(451,486,o),
(467,504,c),
(467,515,o),
(461,523,o),
(450,534,c),
(443,535,o),
(436,536,o),
(430,536,cs),
(421,536,o),
(412,535,o),
(401,532,c),
(397,533,o),
(392,533,o),
(388,533,cs),
(374,533,o),
(361,530,o),
(348,523,c),
(293,523,l),
(281,518,o),
(269,516,o),
(259,516,cs),
(252,516,o),
(246,517,o),
(241,518,c),
(221,512,o),
(202,507,o),
(183,504,cs),
(150,501,l),
(133,493,o),
(119,479,o),
(117,455,c),
(125,441,o),
(141,430,o),
(161,422,c),
(150,388,o),
(139,361,o),
(128,333,c),
(128,328,o),
(125,317,o),
(119,300,c),
(103,275,o),
(92,248,o),
(81,220,c),
(59,187,o),
(45,149,o),
(40,107,c)
);
}
);
width = 500;
}
);
note = Eacute;
unicode = 201;
},
{
glyphname = Ecircumflex;
lastChange = "2023-01-15 02:08:54 +0000";
layers = (
{
hints = (
{
horizontal = 1;
place = (-23, 56);
place = (-23, 56);
type = Stem;
},
{
horizontal = 1;
place = (272, 66);
place = (272, 66);
type = Stem;
},
{
horizontal = 1;
place = (465, 44);
place = (465, 44);
type = Stem;
},
{
place = (73, 44);
place = (73, 44);
type = Stem;
},
{
horizontal = 1;
place = (-28, 61);
place = (-28, 61);
type = Stem;
},
{
horizontal = 1;
place = (1, 21);
target = up;
type = BottomGhost;
}
);
layerId = m01;
shapes = (
{
closed = 1;
nodes = (
(494,729,o),
(457,789,o),
(398,826,c),
(385,826,o),
(380,822,o),
(368,818,c),
(368,815,l),
(338,785,o),
(307,754,o),
(274,727,c),
(274,724,l),
(258,701,o),
(241,678,o),
(227,653,c),
(226,653,o),
(225,653,o),
(225,652,cs),
(225,650,l),
(212,641,o),
(207,633,o),
(207,625,cs),
(207,609,o),
(226,600,o),
(239,600,c),
(250,615,o),
(264,628,o),
(280,639,c),
(280,641,ls),
(280,654,o),
(298,669,o),
(307,675,c),
(307,680,o),
(310,684,o),
(310,688,c),
(313,688,l),
(326,699,o),
(338,711,o),
(343,727,c),
(344,727,ls),
(353,727,o),
(368,745,o),
(371,752,c),
(410,700,o),
(432,664,o),
(492,633,c),
(492,631,l),
(503,620,o),
(513,614,o),
(522,614,cs),
(531,614,o),
(541,620,o),
(550,633,c),
(550,644,ls),
(550,652,o),
(549,660,o),
(544,664,cs),
(541,667,o),
(536,670,o),
(536,675,c)
);
},
{
closed = 1;
nodes = (
(537,471,o),
(541,482,o),
(541,491,cs),
(541,497,o),
(539,502,o),
(536,506,cs),
(534,509,o),
(526,509,o),
(514,509,cs),
(483,509,o),
(427,503,o),
(415,501,cs),
(387,499,o),
(359,496,o),
(332,492,cs),
(319,491,o),
(301,484,o),
(288,484,cs),
(276,485,o),
(263,490,o),
(250,490,c),
(244,502,o),
(232,512,o),
(219,515,c),
(205,509,o),
(195,499,o),
(186,487,c),
(176,487,o),
(164,482,o),
(159,473,c),
(158,466,o),
(151,458,o),
(145,454,c),
(147,436,o),
(154,419,o),
(172,413,c),
(152,370,o),
(151,275,o),
(109,250,c),
(108,242,o),
(108,233,o),
(106,225,cs),
(104,216,o),
(74,171,o),
(73,151,cs),
(73,123,ls),
(72,109,o),
(51,65,o),
(51,38,cs),
(51,35,ls),
(51,31,o),
(57,11,o),
(59,8,cs),
(66,-2,o),
(110,-19,o),
(123,-23,cs),
(140,-28,o),
(158,-29,o),
(176,-29,cs),
(186,-29,o),
(196,-28,o),
(205,-28,cs),
(251,-26,o),
(357,-22,o),
(393,2,c),
(397,2,o),
(400,1,o),
(404,1,cs),
(427,1,o),
(434,13,o),
(453,19,c),
(460,20,o),
(468,19,o),
(475,21,cs),
(505,27,o),
(524,49,o),
(536,76,c),
(530,91,o),
(518,102,o),
(503,107,c),
(492,102,o),
(485,92,o),
(478,82,c),
(469,82,o),
(459,78,o),
(451,74,cs),
(436,67,o),
(406,64,o),
(390,60,cs),
(382,58,o),
(376,52,o),
(368,49,cs),
(338,37,o),
(270,33,o),
(216,33,cs),
(192,33,o),
(171,34,o),
(156,35,cs),
(139,37,o),
(123,46,o),
(112,57,c),
(111,62,o),
(110,66,o),
(110,71,cs),
(110,80,o),
(113,88,o),
(120,96,c),
(118,100,o),
(117,107,o),
(117,114,cs),
(117,130,o),
(123,151,o),
(134,156,c),
(136,174,o),
(140,192,o),
(150,206,c),
(193,210,o),
(233,216,o),
(274,225,cs),
(289,228,o),
(304,229,o),
(318,231,cs),
(350,236,o),
(387,248,o),
(420,255,c),
(422,255,o),
(436,258,o),
(437,258,c),
(448,267,l),
(450,268,o),
(481,271,o),
(487,272,c),
(496,284,o),
(506,295,o),
(514,308,c),
(511,317,o),
(505,338,o),
(493,338,cs),
(483,338,o),
(476,331,o),
(467,327,cs),
(452,321,o),
(402,315,o),
(379,308,cs),
(330,293,o),
(288,280,o),
(242,280,cs),
(224,280,o),
(206,282,o),
(186,286,c),
(199,330,o),
(216,373,o),
(233,416,c),
(305,446,o),
(384,433,o),
(459,451,c),
(465,448,o),
(470,447,o),
(475,447,cs),
(495,447,o),
(510,465,o),
(531,465,c)
);
}
);
width = 597;
}
);
note = Ecircumflex;
unicode = 202;
},
{
glyphname = Edieresis;
lastChange = "2023-01-15 02:08:54 +0000";
layers = (
{
hints = (
{
horizontal = 1;
place = (-19, 61);
place = (-19, 61);
type = Stem;
},
{
horizontal = 1;
place = (210, 68);
place = (210, 68);
type = Stem;
},
{
horizontal = 1;
place = (460, 51);
place = (460, 51);
type = Stem;
},
{
place = (29, 58);
place = (29, 58);
type = Stem;
},
{
place = (159, 60);
place = (159, 60);
type = Stem;
},
{
place = (441, 104);
place = (441, 104);
type = Stem;
},
{
horizontal = 1;
place = (-15, 57);
place = (-15, 57);
type = Stem;
},
{
horizontal = 1;
place = (-24, 66);
place = (-24, 66);
type = Stem;
}
);
layerId = m01;
shapes = (
{
closed = 1;
nodes = (
(385,711,ls),
(385,730,o),
(351,765,o),
(332,765,cs),
(330,765,l),
(327,762,o),
(322,760,o),
(317,760,cs),
(314,760,o),
(311,761,o),
(308,762,c),
(308,759,l),
(305,758,o),
(294,751,o),
(289,751,c),
(277,737,o),
(261,710,o),
(261,688,cs),
(261,679,o),
(263,671,o),
(269,665,c),
(269,663,l),
(290,662,o),
(304,652,o),
(320,652,cs),
(329,652,o),
(338,655,o),
(349,665,c),
(349,667,ls),
(349,678,o),
(363,685,o),
(371,687,c),
(376,691,o),
(378,703,o),
(385,709,c)
);
},
{
closed = 1;
nodes = (
(487,649,ls),
(501,650,o),
(531,661,o),
(539,674,cs),
(545,682,o),
(545,715,o),
(545,726,c),
(538,733,o),
(532,741,o),
(525,748,c),
(517,748,o),
(510,756,o),
(501,756,cs),
(489,756,o),
(457,737,o),
(448,729,c),
(448,727,ls),
(448,718,o),
(441,705,o),
(441,690,cs),
(441,679,o),
(445,668,o),
(459,657,c),
(468,657,o),
(477,655,o),
(484,649,c)
);
},
{
closed = 1;
nodes = (
(260,447,o),
(294,457,o),
(327,459,cs),
(334,459,o),
(337,460,o),
(344,461,cs),
(345,461,o),
(347,462,o),
(349,462,cs),
(355,462,o),
(365,460,o),
(374,460,cs),
(378,460,o),
(382,460,o),
(385,461,cs),
(426,470,o),
(468,475,o),
(509,483,c),
(522,497,o),
(533,497,o),
(533,513,cs),
(533,516,o),
(533,521,o),
(531,527,c),
(526,533,o),
(513,535,o),
(497,535,cs),
(458,535,o),
(398,522,o),
(377,519,cs),
(345,515,o),
(312,511,o),
(280,511,cs),
(259,511,o),
(239,513,o),
(219,516,c),
(217,529,o),
(214,542,o),
(211,555,c),
(203,559,o),
(193,563,o),
(184,563,c),
(180,550,o),
(172,548,o),
(164,538,cs),
(162,536,o),
(159,526,o),
(159,522,cs),
(159,496,o),
(157,498,o),
(145,478,cs),
(144,476,o),
(143,473,o),
(143,469,cs),
(143,460,o),
(146,450,o),
(148,445,c),
(135,403,o),
(122,361,o),
(110,319,cs),
(105,300,o),
(103,275,o),
(95,257,cs),
(94,254,o),
(86,246,o),
(84,242,cs),
(75,229,o),
(68,215,o),
(62,199,cs),
(49,163,o),
(29,100,o),
(29,59,cs),
(29,45,o),
(36,26,o),
(38,9,c),
(44,4,o),
(90,-15,o),
(90,-15,c),
(105,-18,o),
(125,-24,o),
(140,-24,cs),
(148,-24,o),
(159,-20,o),
(168,-19,cs),
(185,-16,o),
(202,-16,o),
(219,-15,cs),
(255,-14,o),
(270,-4,o),
(299,1,cs),
(330,7,o),
(357,4,o),
(390,18,cs),
(396,20,o),
(398,20,o),
(404,20,c),
(431,24,o),
(458,51,o),
(468,75,c),
(465,89,o),
(459,100,o),
(446,106,c),
(426,100,o),
(407,90,o),
(393,75,c),
(326,67,o),
(259,56,o),
(192,42,cs),
(179,39,o),
(150,35,o),
(126,35,cs),
(111,35,o),
(97,37,o),
(90,42,c),
(88,57,o),
(87,68,o),
(87,79,cs),
(87,106,o),
(93,124,o),
(101,158,cs),
(104,173,o),
(118,194,o),
(123,210,c),
(182,210,o),
(240,217,o),
(297,231,cs),
(319,237,o),
(341,247,o),
(363,252,cs),
(373,254,o),
(385,254,o),
(395,255,cs),
(437,263,o),
(471,283,o),
(495,318,c),
(495,334,o),
(478,345,o),
(462,345,cs),
(450,345,o),
(442,337,o),
(435,329,c),
(433,329,ls),
(421,329,o),
(387,320,o),
(374,318,cs),
(342,312,o),
(309,301,o),
(280,285,c),
(275,288,o),
(271,289,o),
(267,289,cs),
(261,289,o),
(256,287,o),
(250,282,c),
(232,282,o),
(212,278,o),
(193,278,cs),
(179,278,o),
(165,280,o),
(153,288,c),
(171,327,o),
(187,371,o),
(197,412,cs),
(201,425,o),
(219,429,o),
(228,442,c)
);
}
);
width = 549;
}
);
note = Edieresis;
unicode = 203;
},
{
glyphname = Egrave;
lastChange = "2023-01-15 02:08:54 +0000";
layers = (
{
hints = (
{
horizontal = 1;
place = (-13, 70);
place = (-13, 70);
type = Stem;
},
{
horizontal = 1;
place = (243, 53);
place = (243, 53);
type = Stem;
},
{
horizontal = 1;
place = (462, 59);
place = (462, 59);
type = Stem;
},
{
place = (39, 56);
place = (39, 56);
type = Stem;
},
{
place = (153, 65);
place = (153, 65);
type = Stem;
},
{
horizontal = 1;
place = (210, 68);
place = (210, 68);
type = Stem;
},
{
horizontal = 1;
place = (419, 71);
place = (419, 71);
type = Stem;
},
{
horizontal = 1;
place = (268, 55);
place = (268, 55);
type = Stem;
}
);
layerId = m01;
shapes = (
{
closed = 1;
nodes = (
(235,765,o),
(251,739,o),
(279,722,c),
(284,710,o),
(293,698,o),
(307,695,c),
(307,693,o),
(308,692,o),
(310,692,c),
(313,686,o),
(318,681,o),
(321,676,c),
(326,676,o),
(331,673,o),
(337,673,c),
(337,670,l),
(346,658,o),
(352,661,o),
(359,653,cs),
(392,620,l),
(403,620,o),
(415,620,o),
(425,623,c),
(425,626,l),
(432,637,o),
(434,644,o),
(434,649,cs),
(434,655,o),
(431,659,o),
(431,663,cs),
(431,665,l),
(407,691,o),
(378,713,o),
(354,739,cs),
(351,742,o),
(351,746,o),
(351,750,c),
(349,750,o),
(348,751,o),
(348,753,c),
(266,827,l),
(264,827,ls),
(250,827,o),
(232,808,o),
(227,797,c)
);
},
{
closed = 1;
nodes = (
(381,455,o),
(431,463,o),
(445,463,cs),
(447,463,ls),
(455,462,o),
(462,462,o),
(469,462,cs),
(487,462,o),
(502,466,o),
(514,485,c),
(514,501,o),
(505,526,o),
(490,526,cs),
(485,526,o),
(480,524,o),
(475,518,c),
(467,520,o),
(457,521,o),
(448,521,cs),
(423,521,o),
(397,516,o),
(376,510,cs),
(330,497,o),
(286,490,o),
(239,490,cs),
(230,490,o),
(222,491,o),
(213,491,c),
(216,501,o),
(218,510,o),
(218,519,cs),
(218,534,o),
(213,549,o),
(202,562,c),
(200,563,o),
(198,563,o),
(196,563,cs),
(186,563,o),
(180,557,o),
(177,546,c),
(160,547,o),
(157,478,o),
(153,466,c),
(144,463,o),
(136,458,o),
(128,455,c),
(119,443,o),
(111,431,o),
(108,417,c),
(117,404,o),
(126,392,o),
(130,378,c),
(117,349,o),
(107,319,o),
(99,288,cs),
(97,277,o),
(96,261,o),
(92,251,cs),
(82,225,o),
(39,89,o),
(39,26,cs),
(39,10,o),
(42,-1,o),
(48,-5,cs),
(56,-10,o),
(71,-13,o),
(82,-13,cs),
(125,-13,o),
(171,-7,o),
(213,0,cs),
(259,8,o),
(350,15,o),
(387,25,cs),
(395,27,o),
(446,46,o),
(453,50,cs),
(464,56,o),
(490,88,o),
(494,99,cs),
(495,101,o),
(495,103,o),
(495,105,cs),
(495,115,o),
(488,123,o),
(480,127,c),
(450,124,o),
(437,108,o),
(411,97,cs),
(377,82,o),
(298,77,o),
(260,77,c),
(254,71,o),
(209,65,o),
(191,53,c),
(188,56,o),
(181,57,o),
(172,57,cs),
(148,57,o),
(109,50,o),
(95,50,c),
(98,91,o),
(110,178,o),
(133,210,c),
(190,214,o),
(243,223,o),
(299,237,cs),
(316,242,o),
(336,243,o),
(354,243,cs),
(392,243,o),
(428,259,o),
(467,259,c),
(470,268,o),
(481,268,o),
(489,268,c),
(503,278,o),
(510,287,o),
(510,298,cs),
(510,305,o),
(507,313,o),
(500,323,c),
(468,323,o),
(351,310,o),
(329,292,c),
(318,295,o),
(308,296,o),
(298,296,cs),
(261,296,o),
(235,278,o),
(195,278,cs),
(183,278,o),
(170,280,o),
(155,284,c),
(163,333,o),
(177,381,o),
(205,422,c),
(209,420,o),
(215,419,o),
(221,419,cs),
(248,419,o),
(290,433,o),
(307,441,c),
(311,440,o),
(315,439,o),
(319,439,cs),
(326,439,o),
(332,442,o),
(337,450,c),
(343,450,ls),
(350,450,o),
(356,451,o),
(362,455,c)
);
}
);
width = 549;
}
);
note = Egrave;
unicode = 200;
},
{
glyphname = F;
lastChange = "2023-01-15 02:08:54 +0000";
layers = (
{
hints = (
{
horizontal = 1;
place = (535, 55);
place = (535, 55);
type = Stem;
},
{
place = (60, 42);
place = (60, 42);
type = Stem;
},
{
horizontal = 1;
place = (507, 45);
place = (507, 45);
type = Stem;
},
{
horizontal = 1;
place = (485, 63);
place = (485, 63);
type = Stem;
},
{
place = (30, 58);
place = (30, 58);
type = Stem;
},
{
horizontal = 1;
place = (323, 54);
place = (323, 54);
type = Stem;
},
{
place = (75, 82);
place = (75, 82);
type = Stem;
}
);
layerId = m01;
shapes = (
{
closed = 1;
nodes = (
(543,582,o),
(532,584,o),
(524,590,c),
(505,590,o),
(485,590,o),
(471,593,c),
(458,593,ls),
(444,593,o),
(427,590,o),
(408,590,c),
(353,576,o),
(298,568,o),
(243,559,c),
(237,557,o),
(232,557,o),
(226,554,cs),
(223,553,o),
(219,552,o),
(216,552,cs),
(205,552,o),
(197,560,o),
(190,568,c),
(190,571,l),
(188,571,o),
(186,572,o),
(184,572,cs),
(172,572,o),
(164,565,o),
(157,548,c),
(132,548,o),
(113,554,o),
(91,554,c),
(77,543,o),
(72,532,o),
(69,518,c),
(83,493,o),
(105,485,o),
(141,485,c),
(138,452,o),
(132,422,o),
(127,394,c),
(119,380,o),
(110,364,o),
(102,345,c),
(91,339,o),
(80,328,o),
(72,317,c),
(71,313,o),
(70,310,o),
(70,306,cs),
(70,303,o),
(71,299,o),
(72,295,c),
(75,292,o),
(75,289,o),
(75,287,c),
(79,280,o),
(80,272,o),
(80,265,cs),
(80,256,o),
(78,247,o),
(75,237,c),
(66,219,o),
(60,201,o),
(60,183,cs),
(60,179,o),
(61,175,o),
(61,171,c),
(55,165,o),
(50,157,o),
(47,146,c),
(44,118,o),
(44,94,o),
(41,72,c),
(41,61,o),
(36,50,o),
(30,39,c),
(30,28,o),
(33,19,o),
(36,17,c),
(40,18,o),
(43,19,o),
(45,19,cs),
(47,19,o),
(49,18,o),
(50,17,cs),
(61,8,o),
(69,3,o),
(77,3,cs),
(80,3,o),
(80,3,o),
(83,5,c),
(86,11,o),
(88,19,o),
(88,30,c),
(94,38,o),
(97,46,o),
(97,55,cs),
(97,62,o),
(95,70,o),
(91,77,c),
(101,95,o),
(102,134,o),
(102,151,cs),
(102,157,l),
(113,190,o),
(121,226,o),
(132,267,c),
(163,279,o),
(196,286,o),
(223,292,cs),
(256,300,o),
(289,309,o),
(325,312,cs),
(358,317,o),
(391,320,o),
(433,323,c),
(435,321,o),
(440,319,o),
(446,319,cs),
(449,319,o),
(452,319,o),
(455,320,c),
(466,326,o),
(471,332,o),
(471,342,cs),
(471,345,o),
(470,349,o),
(469,353,c),
(456,370,o),
(439,378,o),
(419,378,cs),
(409,378,o),
(398,376,o),
(386,372,c),
(373,375,o),
(361,377,o),
(349,377,cs),
(330,377,o),
(312,373,o),
(295,364,c),
(240,358,o),
(205,346,o),
(171,346,cs),
(166,346,o),
(161,347,o),
(157,347,c),
(157,358,o),
(160,372,o),
(165,383,cs),
(171,397,o),
(174,408,o),
(176,422,c),
(185,449,o),
(193,474,o),
(207,496,c),
(221,496,o),
(234,499,o),
(248,507,c),
(265,507,o),
(281,510,o),
(298,515,cs),
(345,529,o),
(397,535,o),
(458,537,cs),
(466,537,o),
(477,535,o),
(485,535,c),
(501,531,o),
(515,528,o),
(529,528,cs),
(543,528,o),
(556,531,o),
(568,535,c),
(569,538,o),
(569,541,o),
(569,545,cs),
(569,555,o),
(565,565,o),
(557,576,c)
);
}
);
width = 510;
}
);
note = F;
unicode = 70;
},
{
glyphname = G;
lastChange = "2023-01-15 02:08:54 +0000";
layers = (
{
hints = (
{
horizontal = 1;
place = (-24, 63);
place = (-24, 63);
type = Stem;
},
{
horizontal = 1;
place = (292, 45);
place = (292, 45);
type = Stem;
},
{
horizontal = 1;
place = (612, 44);
place = (612, 44);
type = Stem;
},
{
place = (33, 61);
place = (33, 61);
type = Stem;
},
{
place = (502, 50.5);
place = (502, 50.5);
type = Stem;
},
{
place = (485, 42);
place = (485, 42);
type = Stem;
},
{
horizontal = 1;
place = (-13, 52);
place = (-13, 52);
type = Stem;
},
{
horizontal = 1;
place = (309, 56);
place = (309, 56);
type = Stem;
}
);
layerId = m01;
shapes = (
{
closed = 1;
nodes = (
(97,226,l),
(121,326,o),
(154,417,o),
(204,496,cs),
(207,502,o),
(215,502,o),
(221,505,c),
(226,513,o),
(229,519,o),
(232,530,c),
(262,552,o),
(295,574,o),
(334,593,c),
(361,598,o),
(386,604,o),
(411,612,c),
(427,609,o),
(444,609,o),
(461,607,c),
(472,604,o),
(480,598,o),
(488,593,c),
(486,588,o),
(485,584,o),
(485,580,cs),
(485,574,o),
(488,570,o),
(493,568,c),
(507,571,o),
(518,576,o),
(527,590,c),
(527,620,o),
(518,637,o),
(505,651,c),
(477,651,l),
(456,655,o),
(436,656,o),
(416,656,cs),
(359,656,o),
(310,641,o),
(270,609,c),
(218,579,o),
(174,538,o),
(135,480,c),
(130,480,o),
(127,477,o),
(124,475,c),
(105,425,o),
(86,378,o),
(66,326,cs),
(52,284,o),
(39,237,o),
(33,185,c),
(33,172,ls),
(33,93,o),
(58,34,o),
(110,-2,cs),
(133,-17,o),
(156,-24,o),
(179,-24,cs),
(195,-24,o),
(212,-20,o),
(229,-13,c),
(237,-13,o),
(248,-11,o),
(259,-8,c),
(312,17,o),
(359,45,o),
(400,78,c),
(416,94,o),
(433,108,o),
(444,124,cs),
(458,144,o),
(472,155,o),
(488,163,c),
(493,171,o),
(496,177,o),
(502,185,cs),
(521,207,o),
(538,232,o),
(554,259,c),
(551,306,l),
(549,312,o),
(546,323,o),
(546,334,c),
(540,345,o),
(535,350,o),
(527,359,c),
(507,363,o),
(487,365,o),
(467,365,cs),
(433,365,o),
(399,359,o),
(364,345,c),
(361,346,o),
(357,346,o),
(354,346,cs),
(345,346,o),
(337,343,o),
(331,337,c),
(301,337,o),
(270,337,o),
(237,334,c),
(221,323,ls),
(214,319,o),
(211,313,o),
(211,303,cs),
(211,300,o),
(212,297,o),
(212,293,c),
(218,279,o),
(229,270,o),
(248,270,c),
(257,273,o),
(265,273,o),
(270,276,c),
(295,276,o),
(314,284,o),
(334,293,c),
(339,293,o),
(344,292,o),
(349,292,cs),
(371,292,o),
(390,297,o),
(408,306,c),
(411,306,o),
(414,305,o),
(417,305,cs),
(425,305,o),
(434,307,o),
(444,309,c),
(463,309,o),
(480,304,o),
(502,298,c),
(496,254,o),
(480,224,o),
(452,207,c),
(447,202,o),
(444,199,o),
(441,190,c),
(438,185,o),
(433,182,o),
(430,177,c),
(370,124,o),
(303,78,o),
(229,39,c),
(221,38,o),
(211,37,o),
(200,37,cs),
(189,37,o),
(177,38,o),
(163,39,c),
(138,64,l),
(130,66,o),
(124,69,o),
(119,75,c),
(110,91,o),
(105,111,o),
(97,133,c),
(97,163,o),
(94,193,o),
(94,226,c)
);
}
);
width = 584;
}
);
note = G;
unicode = 71;
},
{
glyphname = H;
lastChange = "2023-01-15 02:08:54 +0000";
layers = (
{
hints = (
{
horizontal = 1;
place = (291, 57);
place = (291, 57);
type = Stem;
},
{
place = (52, 51);
place = (52, 51);
type = Stem;
},
{
place = (345, 65);
place = (345, 65);
type = Stem;
},
{
place = (422, 67);
place = (422, 67);
type = Stem;
}
);
layerId = m01;
shapes = (
{
closed = 1;
nodes = (
(210,621,o),
(204,623,o),
(197,623,cs),
(194,623,o),
(191,623,o),
(187,622,c),
(173,613,o),
(162,602,o),
(154,588,c),
(151,542,o),
(148,466,o),
(140,411,c),
(137,406,o),
(134,403,o),
(134,397,cs),
(132,378,o),
(129,356,o),
(118,331,c),
(79,323,l),
(68,315,o),
(60,304,o),
(54,287,c),
(63,273,o),
(76,265,o),
(96,260,c),
(93,246,o),
(93,229,o),
(87,215,cs),
(82,202,o),
(74,191,o),
(68,177,c),
(69,147,ls),
(69,142,o),
(69,138,o),
(68,136,c),
(57,130,o),
(52,116,o),
(52,97,c),
(43,56,ls),
(38,26,o),
(32,-2,o),
(30,-32,c),
(32,-40,o),
(32,-52,o),
(35,-63,c),
(46,-74,o),
(60,-76,o),
(74,-76,c),
(82,-65,o),
(90,-57,o),
(93,-40,cs),
(96,-27,o),
(101,-10,o),
(110,6,c),
(104,13,o),
(103,35,o),
(103,53,cs),
(103,92,o),
(111,138,o),
(129,169,c),
(134,204,o),
(145,240,o),
(165,273,c),
(198,276,o),
(228,282,o),
(264,293,c),
(280,292,o),
(296,291,o),
(313,291,cs),
(334,291,o),
(356,292,o),
(380,295,c),
(366,249,o),
(355,183,o),
(346,133,cs),
(345,126,o),
(345,119,o),
(345,113,cs),
(345,77,o),
(357,53,o),
(382,34,c),
(404,34,l),
(409,42,o),
(411,50,o),
(411,58,cs),
(411,61,o),
(411,64,o),
(410,67,c),
(410,84,o),
(409,112,o),
(409,141,cs),
(409,155,o),
(409,169,o),
(410,182,c),
(418,207,o),
(424,232,o),
(426,257,c),
(432,276,o),
(437,293,o),
(443,309,c),
(451,342,o),
(457,375,o),
(465,409,cs),
(471,441,o),
(479,498,o),
(484,528,cs),
(487,539,o),
(489,549,o),
(489,557,cs),
(489,579,o),
(479,594,o),
(457,602,c),
(437,597,o),
(426,586,o),
(421,569,c),
(422,565,o),
(422,561,o),
(422,556,cs),
(422,544,o),
(420,531,o),
(415,517,c),
(414,504,o),
(412,481,o),
(412,463,cs),
(412,455,o),
(412,448,o),
(413,444,c),
(404,436,o),
(399,422,o),
(396,400,c),
(396,378,o),
(393,364,o),
(388,353,c),
(365,349,o),
(339,354,o),
(322,348,c),
(308,346,o),
(294,345,o),
(282,345,cs),
(273,345,o),
(264,346,o),
(256,348,c),
(241,343,o),
(225,340,o),
(208,340,cs),
(199,340,o),
(190,340,o),
(181,342,c),
(201,403,o),
(209,487,o),
(214,550,c),
(218,563,o),
(219,576,o),
(219,589,cs),
(219,598,o),
(218,607,o),
(217,616,c)
);
}
);
width = 489;
}
);
note = H;
unicode = 72;
},
{
glyphname = I;
lastChange = "2023-01-15 02:08:54 +0000";
layers = (
{
hints = (
{
horizontal = 1;
place = (7, 512);
place = (7, 512);
type = Stem;
},
{
place = (125, 61);
place = (125, 61);
type = Stem;
},
{
place = (53, 55);
place = (53, 55);
type = Stem;
}
);
layerId = m01;
shapes = (
{
closed = 1;
nodes = (
(122,442,l),
(122,437,o),
(119,434,o),
(116,428,c),
(116,426,ls),
(114,382,o),
(108,332,o),
(97,280,c),
(92,277,o),
(86,274,o),
(86,266,c),
(81,249,o),
(75,230,o),
(70,208,cs),
(61,180,o),
(56,153,o),
(53,128,c),
(53,117,ls),
(53,98,o),
(50,81,o),
(45,64,c),
(45,62,l),
(48,51,o),
(48,37,o),
(48,20,c),
(50,20,l),
(56,12,o),
(61,9,o),
(72,7,c),
(75,9,l),
(92,15,o),
(103,26,o),
(103,45,c),
(107,53,o),
(109,63,o),
(109,73,cs),
(109,76,o),
(109,80,o),
(108,84,c),
(107,100,o),
(109,111,o),
(111,125,cs),
(114,153,o),
(119,180,o),
(125,202,c),
(125,205,l),
(130,208,o),
(133,211,o),
(133,216,c),
(136,219,l),
(144,263,o),
(155,304,o),
(169,346,c),
(169,348,ls),
(169,360,o),
(169,368,o),
(177,373,c),
(177,376,ls),
(182,411,o),
(186,444,o),
(186,476,cs),
(186,484,o),
(186,492,o),
(185,500,cs),
(185,503,ls),
(183,514,o),
(177,519,o),
(163,519,cs),
(160,519,l),
(149,516,o),
(138,508,o),
(133,497,c),
(133,494,o),
(133,494,o),
(130,494,c),
(127,478,o),
(125,461,o),
(125,442,c)
);
}
);
width = 241;
}
);
note = I;
unicode = 73;
},
{
glyphname = Iacute;
lastChange = "2023-01-15 20:33:37 +0000";
layers = (
{
hints = (
{
horizontal = 1;
place = (-8, 21);
target = up;
type = BottomGhost;
},
{
horizontal = 1;
place = (834, 59);
place = (834, 59);
type = Stem;
},
{
place = (68, 64);
place = (68, 64);
type = Stem;
},
{
place = (144, 58);
place = (144, 58);
type = Stem;
},
{
place = (122, 38);
place = (122, 38);
type = Stem;
},
{
horizontal = 1;
place = (-16, 21);
target = up;
type = BottomGhost;
}
);
layerId = m01;
shapes = (
{
closed = 1;
nodes = (
(358,823,l),
(351,820,o),
(326,820,o),
(325,810,c),
(314,807,o),
(302,805,o),
(292,799,cs),
(248,771,o),
(172,711,o),
(146,666,cs),
(144,662,o),
(143,655,o),
(141,650,c),
(148,635,o),
(156,629,o),
(171,622,c),
(171,625,l),
(176,632,o),
(182,636,o),
(190,639,c),
(197,652,o),
(206,666,o),
(221,672,c),
(221,675,l),
(223,678,o),
(224,684,o),
(226,688,c),
(233,688,o),
(237,691,o),
(237,699,c),
(266,724,o),
(299,752,o),
(339,757,cs),
(342,757,l),
(345,760,o),
(350,764,o),
(354,764,cs),
(356,764,o),
(357,764,o),
(358,763,c),
(377,769,o),
(386,780,o),
(386,791,cs),
(386,802,o),
(376,814,o),
(358,821,c)
);
},
{
closed = 1;
nodes = (
(193,549,l),
(189,551,o),
(185,551,o),
(181,551,cs),
(161,551,o),
(151,531,o),
(141,513,c),
(144,513,o),
(144,509,o),
(144,507,c),
(142,500,o),
(139,491,o),
(138,484,cs),
(133,460,o),
(132,435,o),
(132,411,c),
(124,398,o),
(122,388,o),
(122,379,cs),
(122,370,o),
(124,363,o),
(124,358,cs),
(124,356,l),
(121,343,o),
(116,334,o),
(116,320,c),
(114,318,o),
(113,315,o),
(110,315,cs),
(108,315,l),
(108,312,ls),
(108,285,o),
(99,256,o),
(90,231,cs),
(87,221,o),
(80,211,o),
(80,201,cs),
(78,149,o),
(75,94,o),
(69,42,cs),
(69,37,o),
(68,32,o),
(68,27,cs),
(68,15,o),
(70,3,o),
(75,-8,c),
(89,-8,o),
(103,-16,o),
(116,-16,cs),
(118,-16,o),
(120,-12,o),
(121,-11,c),
(126,17,o),
(132,27,o),
(132,61,cs),
(132,87,o),
(133,112,o),
(135,138,cs),
(138,173,o),
(140,209,o),
(147,243,cs),
(151,259,o),
(159,280,o),
(160,295,cs),
(160,299,o),
(160,304,o),
(160,309,cs),
(160,315,l),
(163,333,o),
(171,351,o),
(174,370,cs),
(180,403,o),
(186,439,o),
(196,472,cs),
(200,486,o),
(202,496,o),
(202,505,cs),
(202,517,o),
(198,527,o),
(193,546,c)
);
}
);
width = 247;
}
);
note = Iacute;
unicode = 205;
},
{
glyphname = Icircumflex;
lastChange = "2023-01-15 02:08:54 +0000";
layers = (
{
hints = (
{
horizontal = 1;
place = (-46, 909);
place = (-46, 909);
type = Stem;
},
{
place = (133, 59);
place = (133, 59);
type = Stem;
},
{
place = (41, 84);
place = (41, 84);
type = Stem;
}
);
layerId = m01;
shapes = (
{
closed = 1;
nodes = (
(346,694,o),
(274,782,o),
(267,817,cs),
(264,832,o),
(239,862,o),
(223,863,cs),
(222,863,o),
(216,862,o),
(214,861,c),
(143,793,o),
(68,694,o),
(13,613,c),
(13,595,o),
(24,585,o),
(41,582,c),
(64,602,o),
(81,626,o),
(93,654,c),
(108,661,o),
(113,677,o),
(113,692,c),
(122,692,o),
(128,697,o),
(135,704,c),
(135,705,o),
(135,709,o),
(137,709,c),
(157,729,o),
(177,749,o),
(195,770,c),
(210,770,o),
(225,729,o),
(231,717,cs),
(251,682,o),
(298,644,o),
(330,618,c),
(347,618,o),
(369,620,o),
(374,640,c),
(374,642,ls),
(374,648,o),
(372,661,o),
(372,665,c)
);
},
{
closed = 1;
nodes = (
(137,183,l),
(148,214,o),
(153,245,o),
(162,276,cs),
(180,339,o),
(192,397,o),
(192,461,cs),
(192,476,o),
(191,491,o),
(190,507,cs),
(189,521,o),
(188,539,o),
(184,552,cs),
(182,560,o),
(170,569,o),
(162,571,c),
(161,572,l),
(160,572,o),
(159,570,o),
(159,568,c),
(145,564,o),
(129,550,o),
(124,535,c),
(124,533,o),
(124,533,o),
(125,533,c),
(130,500,o),
(133,464,o),
(133,430,cs),
(133,409,o),
(132,389,o),
(129,370,cs),
(123,330,o),
(112,288,o),
(100,249,cs),
(96,236,o),
(91,223,o),
(88,210,cs),
(86,196,o),
(88,186,o),
(77,174,c),
(77,161,o),
(74,149,o),
(66,138,c),
(66,133,o),
(65,124,o),
(69,119,c),
(69,116,l),
(66,108,o),
(61,100,o),
(58,92,cs),
(50,69,o),
(43,44,o),
(41,20,cs),
(41,16,ls),
(41,5,o),
(44,-8,o),
(44,-19,c),
(62,-48,o),
(66,-28,o),
(96,-46,c),
(96,-43,l),
(118,-21,o),
(125,5,o),
(125,34,cs),
(125,39,o),
(124,43,o),
(124,47,c),
(121,47,l),
(116,53,o),
(112,59,o),
(107,64,c),
(107,65,o),
(132,164,o),
(135,183,c)
);
}
);
width = 249;
}
);
note = Icircumflex;
unicode = 206;
},
{
glyphname = Idieresis;
lastChange = "2023-01-15 02:08:54 +0000";
layers = (
{
hints = (
{
horizontal = 1;
place = (-10, 21);
target = up;
type = BottomGhost;
},
{
horizontal = 1;
place = (654, 128);
place = (654, 128);
type = Stem;
},
{
place = (36, 146);
place = (36, 146);
type = Stem;
},
{
place = (121, 69);
place = (121, 69);
type = Stem;
},
{
place = (60, 64);
place = (60, 64);
type = Stem;
},
{
horizontal = 1;
place = (-13, 21);
target = up;
type = BottomGhost;
}
);
layerId = m01;
shapes = (
{
closed = 1;
nodes = (
(36,704,l),
(39,698,o),
(59,668,o),
(63,665,cs),
(73,657,o),
(85,654,o),
(98,654,cs),
(133,654,o),
(175,680,o),
(182,712,c),
(182,716,o),
(180,720,o),
(180,726,cs),
(180,728,o),
(180,731,o),
(182,734,c),
(179,734,l),
(171,756,o),
(154,775,o),
(129,775,c),
(121,780,o),
(112,782,o),
(103,782,cs),
(95,782,o),
(88,780,o),
(80,778,c),
(80,775,l),
(64,762,o),
(47,749,o),
(36,731,c)
);
},
{
closed = 1;
nodes = (
(334,736,o),
(324,745,o),
(314,753,c),
(310,753,ls),
(305,753,o),
(300,754,o),
(294,754,cs),
(292,754,o),
(289,754,o),
(286,753,c),
(284,753,l),
(275,748,o),
(266,743,o),
(256,739,c),
(256,737,l),
(245,726,l),
(245,713,o),
(239,706,o),
(237,695,cs),
(237,693,ls),
(237,678,o),
(262,653,o),
(273,646,c),
(283,646,o),
(318,663,o),
(328,668,c),
(335,687,o),
(338,706,o),
(342,726,c)
);
},
{
closed = 1;
nodes = (
(184,552,l),
(179,560,o),
(170,564,o),
(162,568,c),
(161,569,l),
(160,569,o),
(160,568,o),
(160,567,cs),
(160,566,l),
(139,545,o),
(141,559,o),
(127,530,c),
(126,529,o),
(126,527,o),
(126,524,cs),
(126,515,ls),
(126,509,o),
(126,502,o),
(121,497,c),
(121,494,l),
(121,474,ls),
(121,421,o),
(118,368,o),
(105,316,cs),
(101,299,o),
(96,282,o),
(91,265,cs),
(87,251,o),
(88,228,o),
(88,213,c),
(85,213,l),
(83,198,o),
(75,186,o),
(66,174,c),
(66,173,ls),
(66,170,o),
(71,162,o),
(71,154,cs),
(71,152,ls),
(69,130,o),
(60,89,o),
(60,53,cs),
(60,24,o),
(66,0,o),
(85,-10,c),
(85,-13,l),
(89,-14,o),
(94,-15,o),
(98,-15,cs),
(108,-15,o),
(117,-11,o),
(124,-2,c),
(124,55,ls),
(124,98,o),
(125,139,o),
(135,183,cs),
(160,293,o),
(190,391,o),
(190,499,cs),
(190,516,o),
(189,534,o),
(187,552,c)
);
}
);
width = 249;
}
);
note = Idieresis;
unicode = 207;
},
{
glyphname = Igrave;
lastChange = "2023-01-15 02:08:54 +0000";
layers = (
{
hints = (
{
horizontal = 1;
place = (-11, 21);
target = up;
type = BottomGhost;
},
{
place = (95, 77);
place = (95, 77);
type = Stem;
},
{
place = (56, 75);
place = (56, 75);
type = Stem;
}
);
layerId = m01;
shapes = (
{
closed = 1;
nodes = (
(89,859,l),
(87,859,ls),
(69,859,o),
(49,836,o),
(45,820,c),
(45,818,o),
(46,817,o),
(48,817,c),
(64,777,o),
(163,695,o),
(199,666,c),
(201,666,ls),
(211,666,o),
(226,675,o),
(232,679,c),
(232,683,ls),
(232,742,o),
(137,830,o),
(92,859,c)
);
},
{
closed = 1;
nodes = (
(81,4,l),
(88,-6,o),
(97,-11,o),
(105,-11,cs),
(121,-11,o),
(131,4,o),
(131,26,cs),
(131,34,o),
(130,42,o),
(130,50,cs),
(130,56,l),
(135,97,o),
(135,137,o),
(141,178,cs),
(152,240,o),
(172,385,o),
(172,471,cs),
(172,488,o),
(171,503,o),
(169,514,cs),
(169,516,o),
(155,524,o),
(152,525,c),
(88,519,o),
(120,479,o),
(95,453,c),
(95,373,o),
(89,293,o),
(84,214,c),
(81,214,l),
(77,188,o),
(56,41,o),
(56,22,c),
(61,12,o),
(71,7,o),
(81,7,c)
);
}
);
width = 249;
}
);
note = Igrave;
unicode = 204;
},
{
glyphname = J;
lastChange = "2023-01-15 02:08:54 +0000";
layers = (
{
hints = (
{
horizontal = 1;
place = (-31, 64);
place = (-31, 64);
type = Stem;
},
{
place = (30, 55);
place = (30, 55);
type = Stem;
},
{
place = (316, 74);
place = (316, 74);
type = Stem;
}
);
layerId = m01;
shapes = (
{
closed = 1;
nodes = (
(312,527,ls),
(315,501,o),
(316,470,o),
(316,439,cs),
(316,369,o),
(309,295,o),
(294,245,cs),
(286,212,o),
(275,179,o),
(261,143,c),
(258,126,l),
(250,115,o),
(247,107,o),
(247,93,c),
(239,79,o),
(231,63,o),
(222,44,c),
(214,41,o),
(206,35,o),
(200,33,cs),
(196,32,o),
(193,31,o),
(189,31,cs),
(186,31,o),
(182,32,o),
(176,33,cs),
(165,35,o),
(159,41,o),
(154,52,c),
(143,52,o),
(134,60,o),
(126,74,c),
(118,77,o),
(112,79,o),
(109,85,c),
(107,99,o),
(101,110,o),
(90,118,c),
(85,135,o),
(85,148,o),
(85,168,cs),
(85,176,o),
(90,184,o),
(99,193,c),
(98,199,o),
(97,205,o),
(97,211,cs),
(97,219,o),
(98,228,o),
(101,237,c),
(99,242,o),
(93,250,o),
(82,256,c),
(71,253,o),
(60,250,o),
(52,245,c),
(46,223,o),
(38,198,o),
(30,170,c),
(30,151,o),
(32,129,o),
(35,110,c),
(57,52,o),
(90,11,o),
(143,-20,c),
(159,-25,o),
(178,-28,o),
(200,-31,c),
(217,-28,o),
(236,-20,o),
(256,-9,c),
(261,2,o),
(269,11,o),
(280,19,c),
(302,68,o),
(319,121,o),
(333,173,c),
(355,223,o),
(368,326,o),
(379,384,cs),
(386,411,o),
(390,440,o),
(390,470,cs),
(390,495,o),
(387,520,o),
(381,546,cs),
(379,552,o),
(379,555,o),
(376,563,c),
(368,568,o),
(359,574,o),
(348,574,c),
(343,566,o),
(334,560,o),
(323,555,c),
(321,546,o),
(315,538,o),
(312,530,c)
);
}
);
width = 427;
}
);
note = J;
unicode = 74;
},
{
glyphname = K;
lastChange = "2023-01-15 02:08:54 +0000";
layers = (
{
hints = (
{
horizontal = 1;
place = (-4, 21);
target = up;
type = BottomGhost;
},
{
horizontal = 1;
place = (481, 72);
place = (481, 72);
type = Stem;
},
{
place = (39, 62);
place = (39, 62);
type = Stem;
},
{
place = (148, 60);
place = (148, 60);
type = Stem;
},
{
place = (95, 53);
place = (95, 53);
type = Stem;
},
{
horizontal = 1;
place = (-8, 21);
target = up;
type = BottomGhost;
},
{
horizontal = 1;
place = (-8, 70);
place = (-8, 70);
type = Stem;
}
);
layerId = m01;
shapes = (
{
closed = 1;
nodes = (
(192,589,l),
(181,586,o),
(167,581,o),
(156,570,c),
(148,547,o),
(148,528,o),
(148,503,c),
(140,462,o),
(130,424,o),
(120,390,cs),
(114,366,o),
(112,344,o),
(112,327,c),
(95,297,l),
(95,283,l),
(84,261,o),
(77,236,o),
(70,211,cs),
(62,184,o),
(57,159,o),
(46,134,c),
(42,118,o),
(39,99,o),
(39,78,cs),
(39,70,o),
(39,62,o),
(40,54,c),
(29,27,l),
(37,13,o),
(46,2,o),
(62,-4,c),
(73,-1,o),
(81,4,o),
(87,18,c),
(90,38,o),
(92,60,o),
(101,82,c),
(100,88,o),
(99,94,o),
(99,103,cs),
(99,111,o),
(100,122,o),
(101,134,c),
(109,156,o),
(117,181,o),
(128,206,c),
(159,214,o),
(181,225,o),
(200,244,c),
(208,242,o),
(216,233,o),
(225,225,c),
(233,214,o),
(241,208,o),
(255,203,c),
(283,175,o),
(310,151,o),
(341,126,c),
(379,76,o),
(426,35,o),
(484,-4,c),
(494,-6,o),
(504,-8,o),
(515,-8,cs),
(519,-8,o),
(523,-8,o),
(528,-7,c),
(533,-1,o),
(542,4,o),
(547,13,cs),
(552,21,o),
(554,30,o),
(554,38,cs),
(554,41,o),
(554,43,o),
(553,46,cs),
(547,58,o),
(538,62,o),
(526,62,cs),
(521,62,o),
(515,62,o),
(509,60,c),
(487,73,o),
(470,87,o),
(456,104,cs),
(410,156,o),
(363,208,o),
(313,258,c),
(296,264,o),
(288,269,o),
(280,283,c),
(272,286,o),
(263,291,o),
(261,299,c),
(294,327,o),
(327,355,o),
(360,385,c),
(385,399,o),
(407,415,o),
(429,437,c),
(434,437,o),
(440,440,o),
(448,443,c),
(456,454,o),
(470,462,o),
(487,468,c),
(487,476,o),
(492,481,o),
(500,481,c),
(502,480,o),
(504,480,o),
(506,480,cs),
(509,480,o),
(512,480,o),
(514,481,cs),
(525,484,o),
(536,490,o),
(550,495,cs),
(564,501,o),
(569,515,o),
(572,539,c),
(564,547,o),
(555,558,o),
(539,564,c),
(528,558,o),
(517,553,o),
(503,553,c),
(492,545,o),
(487,536,o),
(481,525,c),
(470,525,o),
(459,520,o),
(448,514,c),
(440,506,o),
(429,501,o),
(421,492,c),
(401,479,o),
(383,465,o),
(363,448,cs),
(327,418,o),
(291,388,o),
(252,360,c),
(233,344,o),
(214,324,o),
(194,302,c),
(178,294,o),
(161,283,o),
(148,272,c),
(153,305,o),
(161,333,o),
(167,360,cs),
(172,382,o),
(178,402,o),
(186,424,c),
(189,448,o),
(192,473,o),
(192,495,c),
(197,495,o),
(200,498,o),
(203,501,c),
(203,512,o),
(203,520,o),
(205,531,cs),
(207,538,o),
(208,545,o),
(208,551,cs),
(208,565,o),
(204,578,o),
(194,589,c)
);
}
);
width = 602;
}
);
note = K;
unicode = 75;
},
{
glyphname = L;
lastChange = "2023-01-15 02:08:54 +0000";
layers = (
{
hints = (
{
horizontal = 1;
place = (7, 69);
place = (7, 69);
type = Stem;
},
{
place = (29, 58);
place = (29, 58);
type = Stem;
},
{
horizontal = 1;
place = (54, 81);
place = (54, 81);
type = Stem;
}
);
layerId = m01;
shapes = (
{
closed = 1;
nodes = (
(194,548,l),
(194,559,o),
(189,564,o),
(180,564,c),
(158,559,o),
(145,548,o),
(139,523,cs),
(134,493,o),
(128,462,o),
(120,429,c),
(117,421,o),
(111,410,o),
(106,399,c),
(103,385,l),
(98,374,o),
(92,316,o),
(92,300,c),
(95,297,o),
(97,294,o),
(97,292,cs),
(97,289,o),
(95,286,o),
(92,283,c),
(76,255,o),
(62,222,o),
(54,181,c),
(45,170,o),
(37,153,o),
(29,131,c),
(29,109,o),
(23,84,o),
(20,62,c),
(20,49,o),
(23,38,o),
(32,27,c),
(40,24,o),
(48,18,o),
(59,13,c),
(81,9,o),
(104,7,o),
(127,7,cs),
(171,7,o),
(215,15,o),
(247,29,c),
(261,32,o),
(277,32,o),
(294,32,c),
(316,46,o),
(345,54,o),
(367,54,cs),
(373,54,l),
(384,62,o),
(395,71,o),
(411,76,c),
(422,84,o),
(428,95,o),
(428,109,cs),
(428,126,o),
(419,135,o),
(403,135,cs),
(392,135,o),
(384,129,o),
(375,120,c),
(337,109,o),
(291,98,o),
(253,87,c),
(250,87,o),
(244,87,o),
(236,84,cs),
(231,82,o),
(228,82,o),
(225,76,c),
(222,77,o),
(220,77,o),
(217,77,cs),
(212,77,o),
(205,76,o),
(198,76,cs),
(183,74,o),
(163,72,o),
(142,72,cs),
(122,72,o),
(102,74,o),
(87,76,c),
(87,109,l),
(92,142,o),
(100,175,o),
(111,203,cs),
(128,244,o),
(145,330,o),
(158,369,cs),
(180,424,o),
(191,484,o),
(197,548,c)
);
}
);
width = 441;
}
);
note = L;
unicode = 76;
},
{
glyphname = Lslash;
lastChange = "2023-01-15 20:45:59 +0000";
layers = (
{
layerId = m01;
shapes = (
{
closed = 1;
nodes = (
(350,121,o),
(208,45,o),
(136,38,c),
(153,75,o),
(182,172,o),
(202,236,c),
(155,205,o),
(334,323,o),
(334,337,cs),
(334,339,o),
(439,406,o),
(445,432,c),
(440,441,o),
(434,445,o),
(426,445,cs),
(405,445,o),
(333,392,o),
(249,338,c),
(252,349,o),
(257,360,o),
(266,366,c),
(265,368,o),
(325,523,o),
(326,556,cs),
(326,568,o),
(314,579,o),
(303,579,cs),
(296,579,o),
(290,574,o),
(290,562,c),
(290,562,o),
(287,564,o),
(286,564,cs),
(285,564,o),
(285,563,o),
(285,562,c),
(272,555,o),
(225,439,o),
(225,413,cs),
(225,406,o),
(226,399,o),
(227,393,c),
(206,371,o),
(210,364,o),
(199,341,cs),
(159,249,o),
(110,232,o),
(45,185,c),
(39,185,o),
(-74,129,o),
(-74,93,cs),
(-74,73,o),
(-63,63,o),
(-49,63,cs),
(-19,63,o),
(53,143,o),
(119,168,c),
(121,166,o),
(121,162,o),
(121,158,cs),
(121,133,o),
(72,58,o),
(72,-18,cs),
(72,-30,o),
(81,-48,o),
(97,-48,cs),
(111,-48,o),
(203,-8,o),
(210,-1,c),
(230,-1,l),
(257,28,o),
(386,48,o),
(464,55,c),
(474,48,o),
(485,43,o),
(497,41,c),
(509,53,o),
(529,50,o),
(529,81,cs),
(529,114,o),
(490,116,o),
(461,121,c)
);
}
);
width = 600;
}
);
unicode = 321;
},
{
glyphname = M;
lastChange = "2023-01-15 02:08:54 +0000";
layers = (
{
hints = (
{
horizontal = 1;
place = (-4, 21);
target = up;
type = BottomGhost;
},
{
place = (238, 61);
place = (238, 61);
type = Stem;
},
{
place = (548, 63);
place = (548, 63);
type = Stem;
},
{
horizontal = 1;
place = (-11, 21);
target = up;
type = BottomGhost;
},
{
place = (483, 73);
place = (483, 73);
type = Stem;
},
{
horizontal = 1;
place = (-12, 21);
target = up;
type = BottomGhost;
},
{
place = (14, 57);
place = (14, 57);
type = Stem;
}
);
layerId = m01;
shapes = (
{
closed = 1;
nodes = (
(547,476,ls),
(548,470,o),
(548,465,o),
(548,460,cs),
(548,443,o),
(545,428,o),
(538,415,c),
(538,413,o),
(541,410,o),
(541,407,c),
(543,406,o),
(543,405,o),
(543,403,cs),
(543,401,o),
(543,399,o),
(541,396,c),
(536,374,o),
(533,352,o),
(530,330,cs),
(527,300,o),
(519,272,o),
(514,247,cs),
(511,228,l),
(500,187,o),
(483,90,o),
(483,38,c),
(488,35,o),
(490,33,o),
(490,32,cs),
(490,30,o),
(488,29,o),
(488,29,c),
(493,13,o),
(499,-1,o),
(512,-10,c),
(516,-11,o),
(519,-11,o),
(523,-11,cs),
(533,-11,o),
(542,-9,o),
(548,-4,c),
(556,114,ls),
(556,128,o),
(563,181,o),
(566,198,cs),
(574,244,o),
(585,297,o),
(596,349,cs),
(605,400,o),
(611,451,o),
(611,502,cs),
(611,513,o),
(611,524,o),
(610,534,c),
(602,548,o),
(594,553,o),
(580,553,c),
(574,550,o),
(571,550,o),
(569,550,c),
(544,537,o),
(525,523,o),
(508,504,cs),
(490,484,o),
(470,442,o),
(448,426,c),
(417,370,o),
(381,317,o),
(346,265,c),
(340,243,o),
(326,226,o),
(307,215,c),
(304,229,o),
(304,243,o),
(299,256,c),
(300,261,o),
(301,266,o),
(301,272,cs),
(301,279,o),
(300,285,o),
(299,292,c),
(299,358,ls),
(299,382,o),
(296,407,o),
(293,438,cs),
(285,490,o),
(274,539,o),
(260,594,cs),
(257,603,o),
(249,608,o),
(235,611,c),
(208,597,o),
(188,578,o),
(180,542,c),
(182,541,o),
(182,539,o),
(182,536,cs),
(182,534,o),
(182,531,o),
(180,528,cs),
(172,515,o),
(166,498,o),
(164,476,c),
(133,410,o),
(108,347,o),
(92,283,c),
(73,239,o),
(52,156,o),
(33,112,c),
(27,81,o),
(19,54,o),
(14,26,c),
(14,1,l),
(16,-7,o),
(19,-12,o),
(33,-12,cs),
(47,-12,o),
(55,-1,o),
(60,18,c),
(63,24,o),
(63,32,o),
(66,43,c),
(71,48,o),
(71,57,o),
(71,62,c),
(82,101,o),
(97,178,o),
(111,211,cs),
(122,236,o),
(130,261,o),
(136,289,c),
(142,294,o),
(144,305,o),
(147,316,c),
(161,349,o),
(175,382,o),
(194,410,c),
(194,424,o),
(197,438,o),
(202,449,c),
(205,462,o),
(210,470,o),
(216,476,c),
(228,449,o),
(230,421,o),
(232,391,cs),
(235,363,o),
(235,311,o),
(238,281,c),
(238,229,o),
(244,176,o),
(255,127,c),
(255,118,o),
(257,116,o),
(266,110,c),
(270,106,o),
(278,101,o),
(285,101,cs),
(287,101,o),
(289,102,o),
(290,102,c),
(301,107,o),
(310,116,o),
(312,129,c),
(321,143,o),
(326,157,o),
(337,165,c),
(357,193,o),
(379,218,o),
(398,245,cs),
(428,289,o),
(456,337,o),
(486,387,c),
(494,398,o),
(505,409,o),
(519,420,c),
(527,434,o),
(538,468,o),
(547,479,c)
);
}
);
width = 641;
}
);
note = M;
unicode = 77;
},
{
glyphname = N;
lastChange = "2023-01-15 02:08:54 +0000";
layers = (
{
hints = (
{
horizontal = 1;
place = (12, 554);
place = (12, 554);
type = Stem;
},
{
place = (92, 58);
place = (92, 58);
type = Stem;
},
{
place = (439, 72);
place = (439, 72);
type = Stem;
},
{
place = (78.5, 57.5);
place = (78.5, 57.5);
type = Stem;
},
{
place = (13, 57);
place = (13, 57);
type = Stem;
}
);
layerId = m01;
shapes = (
{
closed = 1;
nodes = (
(475,546,l),
(459,533,o),
(447,511,o),
(439,486,c),
(439,458,l),
(434,453,o),
(431,447,o),
(431,439,c),
(428,431,o),
(425,423,o),
(425,412,c),
(420,378,o),
(414,337,o),
(409,290,c),
(402,268,o),
(394,243,o),
(392,216,cs),
(389,183,o),
(384,162,o),
(376,144,c),
(351,183,o),
(332,219,o),
(310,260,cs),
(290,298,o),
(268,337,o),
(241,370,c),
(210,414,o),
(180,458,o),
(153,508,c),
(150,541,ls),
(150,555,o),
(139,566,o),
(122,566,c),
(111,560,o),
(100,549,o),
(92,538,c),
(94,534,o),
(94,530,o),
(94,526,cs),
(94,522,o),
(94,518,o),
(92,513,c),
(86,508,o),
(84,500,o),
(81,491,c),
(81,472,o),
(86,458,o),
(95,442,c),
(96,435,l),
(96,421,o),
(91,410,o),
(84,398,c),
(73,282,l),
(70,274,o),
(67,265,o),
(62,257,c),
(48,202,o),
(31,141,o),
(12,81,c),
(13,79,o),
(13,76,o),
(13,74,cs),
(13,68,o),
(11,61,o),
(6,53,c),
(6,47,ls),
(6,27,o),
(29,13,o),
(45,13,cs),
(52,13,o),
(58,15,o),
(64,20,c),
(67,26,o),
(70,37,o),
(70,48,cs),
(70,67,o),
(73,83,o),
(73,94,c),
(78,125,o),
(84,150,o),
(92,174,c),
(92,185,o),
(95,196,o),
(100,210,c),
(101,209,o),
(102,209,o),
(102,209,c),
(105,209,o),
(107,212,o),
(109,219,cs),
(117,252,o),
(125,285,o),
(131,323,c),
(133,326,o),
(136,329,o),
(136,337,cs),
(136,343,o),
(139,354,o),
(142,365,c),
(144,365,o),
(147,365,o),
(147,362,c),
(155,356,o),
(161,351,o),
(166,343,c),
(186,318,o),
(202,290,o),
(219,265,cs),
(243,230,o),
(263,191,o),
(285,152,cs),
(310,103,o),
(340,59,o),
(379,20,c),
(381,20,o),
(390,15,o),
(401,12,c),
(417,20,o),
(428,31,o),
(431,48,c),
(431,61,o),
(431,72,o),
(434,89,cs),
(435,94,o),
(436,108,o),
(439,130,cs),
(442,149,o),
(444,166,o),
(444,183,cs),
(444,196,o),
(443,208,o),
(442,219,c),
(448,229,o),
(451,239,o),
(451,251,cs),
(451,256,o),
(451,260,o),
(450,265,c),
(459,282,l),
(465,310,o),
(469,340,o),
(478,376,cs),
(486,406,o),
(489,436,o),
(494,472,c),
(511,522,l),
(508,538,o),
(497,546,o),
(478,546,cs)
);
}
);
width = 500;
}
);
note = N;
unicode = 78;
},
{
glyphname = Ntilde;
lastChange = "2023-01-15 02:08:54 +0000";
layers = (
{
hints = (
{
horizontal = 1;
place = (-16, 21);
target = up;
type = BottomGhost;
},
{
horizontal = 1;
place = (728, 61);
place = (728, 61);
type = Stem;
},
{
place = (43, 54);
place = (43, 54);
type = Stem;
},
{
place = (170, 57);
place = (170, 57);
type = Stem;
},
{
place = (456, 66);
place = (456, 66);
type = Stem;
},
{
horizontal = 1;
place = (-21, 21);
target = up;
type = BottomGhost;
},
{
place = (528, 55);
place = (528, 55);
type = Stem;
}
);
layerId = m01;
shapes = (
{
closed = 1;
nodes = (
(448,792,o),
(442,781,o),
(440,767,c),
(448,759,o),
(453,753,o),
(456,745,c),
(456,742,ls),
(456,723,o),
(445,712,o),
(426,709,c),
(398,731,o),
(371,748,o),
(340,761,c),
(335,767,o),
(327,772,o),
(318,772,c),
(318,775,l),
(313,778,o),
(310,781,o),
(304,783,c),
(302,783,l),
(291,786,o),
(277,792,o),
(266,794,cs),
(263,794,l),
(258,789,o),
(250,789,o),
(238,789,c),
(230,781,o),
(222,775,o),
(211,770,c),
(211,767,l),
(197,750,o),
(186,734,o),
(175,712,c),
(175,701,o),
(172,692,o),
(170,684,c),
(170,643,l),
(172,632,o),
(181,618,o),
(186,607,c),
(189,607,l),
(192,601,o),
(200,601,o),
(208,601,cs),
(211,601,o),
(214,604,o),
(216,607,c),
(216,610,l),
(224,629,o),
(227,649,o),
(227,670,cs),
(227,679,o),
(227,689,o),
(225,698,c),
(227,714,o),
(236,726,o),
(250,731,c),
(258,731,o),
(266,728,o),
(277,728,c),
(277,726,o),
(277,726,o),
(280,726,c),
(321,698,o),
(362,670,o),
(401,640,c),
(404,640,ls),
(409,641,o),
(413,642,o),
(416,642,cs),
(421,642,o),
(426,641,o),
(429,637,c),
(431,637,o),
(431,637,o),
(431,640,c),
(437,643,o),
(445,648,o),
(453,648,cs),
(456,648,l),
(462,657,o),
(470,662,o),
(481,665,c),
(481,668,l),
(498,687,o),
(511,709,o),
(522,734,c),
(522,737,l),
(521,738,o),
(521,741,o),
(521,745,cs),
(521,749,o),
(521,754,o),
(522,759,c),
(520,761,l),
(514,786,o),
(492,797,o),
(459,797,c)
);
},
{
closed = 1;
nodes = (
(539,535,l),
(525,530,o),
(517,521,o),
(509,510,c),
(509,494,o),
(514,480,o),
(522,472,c),
(525,433,o),
(528,398,o),
(528,362,c),
(530,344,o),
(530,326,o),
(530,309,cs),
(530,291,o),
(530,274,o),
(528,257,c),
(527,255,o),
(527,254,o),
(527,253,cs),
(527,250,o),
(529,247,o),
(531,243,c),
(528,216,o),
(525,185,o),
(522,152,cs),
(522,147,o),
(520,141,o),
(517,138,c),
(516,132,o),
(515,126,o),
(515,120,cs),
(515,114,o),
(516,109,o),
(517,103,c),
(511,97,o),
(509,86,o),
(503,78,c),
(431,155,o),
(371,243,o),
(324,340,c),
(293,392,o),
(261,439,o),
(222,483,c),
(219,483,o),
(219,486,o),
(216,486,c),
(200,519,o),
(172,532,o),
(134,532,c),
(125,521,o),
(120,510,o),
(114,497,c),
(117,480,o),
(120,466,o),
(125,447,c),
(92,268,l),
(73,194,o),
(57,119,o),
(43,42,c),
(43,-13,l),
(45,-24,o),
(51,-30,o),
(62,-32,c),
(76,-27,o),
(87,-19,o),
(95,-8,c),
(98,3,o),
(98,14,o),
(98,25,cs),
(97,33,o),
(97,41,o),
(97,49,cs),
(97,69,o),
(100,91,o),
(103,111,c),
(114,149,o),
(123,191,o),
(131,238,cs),
(131,240,o),
(134,246,o),
(136,251,c),
(145,301,l),
(156,337,o),
(164,373,o),
(175,411,c),
(192,398,o),
(205,384,o),
(219,364,cs),
(263,296,o),
(307,227,o),
(351,155,cs),
(393,86,o),
(448,28,o),
(511,-21,c),
(520,-16,o),
(528,-16,o),
(542,-16,c),
(550,-10,o),
(558,3,o),
(558,17,c),
(561,36,o),
(561,53,o),
(564,64,c),
(566,94,o),
(569,127,o),
(575,155,cs),
(581,198,o),
(584,243,o),
(584,289,cs),
(584,305,o),
(584,321,o),
(583,337,cs),
(582,347,o),
(581,356,o),
(581,364,cs),
(581,373,o),
(582,381,o),
(583,389,c),
(583,431,o),
(580,475,o),
(569,519,c),
(555,521,o),
(547,527,o),
(542,535,c)
);
}
);
width = 651;
}
);
note = Ntilde;
unicode = 209;
},
{
glyphname = O;
lastChange = "2023-01-15 02:08:54 +0000";
layers = (
{
hints = (
{
horizontal = 1;
place = (7, 63);
place = (7, 63);
type = Stem;
},
{
place = (37, 61);
place = (37, 61);
type = Stem;
},
{
place = (412, 58);
place = (412, 58);
type = Stem;
}
);
layerId = m01;
shapes = (
{
closed = 1;
nodes = (
(387,522,o),
(346,555,o),
(296,580,c),
(274,574,o),
(252,569,o),
(230,558,c),
(224,550,o),
(216,541,o),
(205,539,c),
(194,525,o),
(180,514,o),
(169,503,c),
(155,492,o),
(147,478,o),
(139,464,cs),
(131,451,o),
(122,445,o),
(111,442,c),
(104,412,o),
(91,379,o),
(78,349,cs),
(64,316,o),
(53,280,o),
(48,244,cs),
(42,216,o),
(40,191,o),
(37,166,c),
(42,142,o),
(48,120,o),
(56,100,c),
(73,78,o),
(89,56,o),
(109,37,cs),
(131,17,o),
(158,7,o),
(186,7,cs),
(205,7,o),
(225,12,o),
(246,21,c),
(285,34,o),
(315,59,o),
(340,89,c),
(354,98,o),
(368,106,o),
(379,114,c),
(379,125,o),
(384,133,o),
(393,139,cs),
(415,155,o),
(428,178,o),
(437,202,c),
(445,205,o),
(448,213,o),
(450,227,c),
(453,227,o),
(459,233,o),
(459,235,c),
(467,263,o),
(470,291,o),
(470,324,cs),
(470,337,o),
(467,351,o),
(464,365,c),
(459,412,o),
(442,451,o),
(420,478,cs)
);
},
{
closed = 1;
nodes = (
(376,197,o),
(351,164,o),
(326,133,c),
(318,131,o),
(313,128,o),
(307,125,c),
(277,92,o),
(238,73,o),
(189,70,cs),
(186,70,o),
(183,70,o),
(177,73,c),
(166,76,o),
(155,81,o),
(144,84,c),
(117,117,o),
(100,153,o),
(98,194,c),
(109,280,o),
(133,357,o),
(169,428,c),
(186,442,o),
(200,456,o),
(211,470,c),
(211,453,o),
(213,445,o),
(227,440,c),
(246,442,o),
(263,451,o),
(277,459,c),
(277,464,o),
(280,470,o),
(282,472,c),
(329,489,l),
(335,478,o),
(346,470,o),
(359,464,c),
(371,451,o),
(382,434,o),
(393,417,c),
(404,393,o),
(409,362,o),
(412,329,c),
(412,291,o),
(409,258,o),
(401,230,c)
);
}
);
width = 500;
}
);
note = O;
unicode = 79;
},
{
glyphname = Oacute;
lastChange = "2023-01-15 02:08:54 +0000";
layers = (
{
hints = (
{
horizontal = 1;
place = (-17, 58);
place = (-17, 58);
type = Stem;
},
{
horizontal = 1;
place = (454, 9);
place = (454, 9);
type = Stem;
},
{
horizontal = 1;
place = (655, 37);
place = (655, 37);
type = Stem;
},
{
horizontal = 1;
place = (788, 61);
place = (788, 61);
type = Stem;
},
{
place = (33, 57);
place = (33, 57);
type = Stem;
},
{
place = (518, 50);
place = (518, 50);
type = Stem;
},
{
horizontal = 1;
place = (480, 93);
place = (480, 93);
type = Stem;
}
);
layerId = m01;
shapes = (
{
closed = 1;
nodes = (
(546,849,ls),
(540,849,o),
(534,850,o),
(527,850,cs),
(524,850,o),
(521,850,o),
(517,849,cs),
(495,844,o),
(479,835,o),
(470,813,c),
(468,813,ls),
(457,813,o),
(446,798,o),
(442,788,c),
(440,788,l),
(419,775,o),
(399,759,o),
(384,739,c),
(379,739,o),
(375,738,o),
(371,733,c),
(371,731,l),
(367,727,o),
(365,722,o),
(362,717,c),
(360,717,ls),
(344,714,o),
(346,693,o),
(327,692,c),
(327,689,l),
(313,678,o),
(300,666,o),
(291,651,c),
(292,631,o),
(300,624,o),
(310,624,cs),
(325,624,o),
(344,639,o),
(349,654,c),
(353,654,o),
(358,656,o),
(362,656,c),
(362,659,l),
(394,693,o),
(430,732,o),
(467,761,cs),
(482,773,o),
(528,788,o),
(547,788,c),
(553,796,o),
(561,805,o),
(572,805,c),
(572,816,o),
(556,842,o),
(550,849,c)
);
},
{
closed = 1;
nodes = (
(549,213,o),
(562,239,o),
(567,265,cs),
(568,268,o),
(568,272,o),
(568,276,cs),
(568,304,o),
(555,355,o),
(548,375,cs),
(543,389,o),
(534,402,o),
(529,417,cs),
(524,431,o),
(519,444,o),
(509,455,cs),
(492,476,o),
(471,498,o),
(457,521,cs),
(451,531,o),
(450,534,o),
(440,541,cs),
(412,563,o),
(382,573,o),
(352,573,cs),
(321,573,o),
(291,562,o),
(261,543,cs),
(171,486,o),
(96,401,o),
(49,306,c),
(50,304,o),
(50,303,o),
(50,301,cs),
(50,295,o),
(47,290,o),
(41,287,c),
(41,273,o),
(34,260,o),
(27,248,c),
(27,236,o),
(31,227,o),
(32,215,cs),
(33,208,o),
(33,199,o),
(33,192,cs),
(36,160,o),
(46,129,o),
(65,102,c),
(68,81,o),
(132,23,o),
(151,11,cs),
(169,2,o),
(194,-7,o),
(214,-11,cs),
(232,-15,o),
(252,-17,o),
(271,-17,cs),
(313,-17,o),
(356,-6,o),
(391,20,cs),
(432,51,o),
(477,89,o),
(509,130,cs),
(527,153,o),
(514,171,o),
(540,188,c)
);
},
{
closed = 1;
nodes = (
(513,262,o),
(498,211,o),
(479,180,cs),
(448,128,o),
(356,59,o),
(297,44,cs),
(287,42,o),
(277,41,o),
(267,41,cs),
(229,40,o),
(195,57,o),
(168,83,cs),
(144,106,o),
(99,160,o),
(93,193,cs),
(89,213,o),
(90,245,o),
(90,265,cs),
(90,277,o),
(97,280,o),
(101,290,cs),
(114,317,o),
(110,325,o),
(134,353,c),
(134,354,o),
(133,355,o),
(133,357,cs),
(133,388,o),
(258,499,o),
(297,505,c),
(297,488,o),
(291,476,o),
(281,463,c),
(290,456,o),
(299,454,o),
(308,454,cs),
(333,454,o),
(356,476,o),
(374,480,c),
(378,480,ls),
(390,480,o),
(408,474,o),
(415,469,c),
(415,468,o),
(414,467,o),
(414,466,cs),
(414,459,o),
(432,458,o),
(435,458,c),
(479,414,o),
(492,353,o),
(518,298,c)
);
}
);
width = 600;
}
);
note = Oacute;
unicode = 211;
},
{
glyphname = Ocircumflex;
lastChange = "2023-01-15 02:08:54 +0000";
layers = (
{
hints = (
{
horizontal = 1;
place = (-17, 58);
place = (-17, 58);
type = Stem;
},
{
horizontal = 1;
place = (454, 9);
place = (454, 9);
type = Stem;
},
{
place = (33, 57);
place = (33, 57);
type = Stem;
},
{
place = (518, 50);
place = (518, 50);
type = Stem;
},
{
horizontal = 1;
place = (480, 93);
place = (480, 93);
type = Stem;
}
);
layerId = m01;
shapes = (
{
closed = 1;
nodes = (
(413,869,l),
(408,874,o),
(396,884,o),
(386,884,cs),
(383,884,o),
(380,883,o),
(377,880,cs),
(298,801,o),
(224,743,o),
(148,662,c),
(148,659,ls),
(148,645,o),
(159,636,o),
(171,636,cs),
(176,636,o),
(180,637,o),
(184,640,cs),
(189,643,o),
(226,671,o),
(228,673,cs),
(237,683,o),
(242,692,o),
(253,701,cs),
(292,731,o),
(323,771,o),
(369,794,c),
(389,743,o),
(429,687,o),
(473,654,c),
(473,651,l),
(492,653,o),
(512,657,o),
(526,670,c),
(526,673,ls),
(527,678,o),
(527,683,o),
(527,687,cs),
(527,712,o),
(516,716,o),
(495,736,cs),
(471,759,o),
(430,836,o),
(415,869,c)
);
},
{
closed = 1;
nodes = (
(549,213,o),
(562,239,o),
(567,265,cs),
(568,268,o),
(568,272,o),
(568,276,cs),
(568,304,o),
(555,355,o),
(548,375,cs),
(543,389,o),
(534,402,o),
(529,417,cs),
(524,431,o),
(519,444,o),
(509,455,cs),
(492,476,o),
(471,498,o),
(457,521,cs),
(451,531,o),
(450,534,o),
(440,541,cs),
(412,563,o),
(382,573,o),
(352,573,cs),
(321,573,o),
(291,562,o),
(261,543,cs),
(171,486,o),
(96,401,o),
(49,306,c),
(50,304,o),
(50,303,o),
(50,301,cs),
(50,295,o),
(47,290,o),
(41,287,c),
(41,273,o),
(34,260,o),
(27,248,c),
(27,236,o),
(31,227,o),
(32,215,cs),
(33,208,o),
(33,199,o),
(33,192,cs),
(36,160,o),
(46,129,o),
(65,102,c),
(68,81,o),
(132,23,o),
(151,11,cs),
(169,2,o),
(194,-7,o),
(214,-11,cs),
(232,-15,o),
(252,-17,o),
(271,-17,cs),
(313,-17,o),
(356,-6,o),
(391,20,cs),
(432,51,o),
(477,89,o),
(509,130,cs),
(527,153,o),
(514,171,o),
(540,188,c)
);
},
{
closed = 1;
nodes = (
(513,262,o),
(498,211,o),
(479,180,cs),
(448,128,o),
(356,59,o),
(297,44,cs),
(287,42,o),
(277,41,o),
(267,41,cs),
(229,40,o),
(195,57,o),
(168,83,cs),
(144,106,o),
(99,160,o),
(93,193,cs),
(89,213,o),
(90,245,o),
(90,265,cs),
(90,277,o),
(97,280,o),
(101,290,cs),
(114,317,o),
(110,325,o),
(134,353,c),
(134,354,o),
(133,355,o),
(133,357,cs),
(133,388,o),
(258,499,o),
(297,505,c),
(297,488,o),
(291,476,o),
(281,463,c),
(290,456,o),
(299,454,o),
(308,454,cs),
(333,454,o),
(356,476,o),
(374,480,c),
(378,480,ls),
(390,480,o),
(408,474,o),
(415,469,c),
(415,468,o),
(414,467,o),
(414,466,cs),
(414,459,o),
(432,458,o),
(435,458,c),
(479,414,o),
(492,353,o),
(518,298,c)
);
}
);
width = 600;
}
);
note = Ocircumflex;
unicode = 212;
},
{
glyphname = Odieresis;
lastChange = "2023-01-15 20:37:59 +0000";
layers = (
{
hints = (
{
horizontal = 1;
place = (-19, 67);
place = (-19, 67);
type = Stem;
},
{
place = (65, 56);
place = (65, 56);
type = Stem;
},
{
place = (389, 59);
place = (389, 59);
type = Stem;
},
{
place = (546, 33);
place = (546, 33);
type = Stem;
},
{
place = (484, 62);
place = (484, 62);
type = Stem;
},
{
place = (507, 55);
place = (507, 55);
type = Stem;
},
{
horizontal = 1;
place = (568, 98);
place = (568, 98);
type = Stem;
},
{
place = (86, 43);
place = (86, 43);
type = Stem;
},
{
horizontal = 1;
place = (-26, 74);
place = (-26, 74);
type = Stem;
}
);
layerId = m01;
shapes = (
{
closed = 1;
nodes = (
(344,784,o),
(333,769,o),
(333,757,cs),
(333,749,o),
(342,718,o),
(342,718,c),
(356,707,o),
(374,704,o),
(391,704,c),
(391,707,l),
(397,715,o),
(405,721,o),
(413,726,c),
(413,729,l),
(417,742,o),
(417,747,o),
(419,760,c),
(402,784,l),
(403,797,o),
(424,813,o),
(424,867,cs),
(424,872,o),
(424,876,o),
(423,881,cs),
(421,895,o),
(415,900,o),
(407,900,cs),
(391,900,o),
(368,879,o),
(365,864,cs),
(365,863,o),
(365,859,o),
(365,853,cs),
(365,823,l),
(361,820,o),
(358,815,o),
(356,812,c),
(356,811,o),
(357,810,o),
(357,809,cs),
(357,805,o),
(355,802,o),
(355,799,cs),
(355,797,o),
(355,795,o),
(356,793,c),
(349,789,o),
(357,816,o),
(344,801,c)
);
},
{
closed = 1;
nodes = (
(557,853,l),
(549,856,o),
(539,856,o),
(530,856,c),
(501,827,o),
(484,797,o),
(485,798,cs),
(488,801,o),
(484,791,o),
(484,787,cs),
(484,773,o),
(488,757,o),
(488,743,cs),
(488,740,l),
(493,733,o),
(496,724,o),
(499,715,c),
(502,715,l),
(512,702,o),
(529,696,o),
(546,696,c),
(552,700,o),
(555,708,o),
(555,717,cs),
(555,727,o),
(551,739,o),
(546,746,c),
(546,756,o),
(549,764,o),
(551,773,c),
(551,775,ls),
(551,783,o),
(548,803,o),
(548,809,c),
(557,796,o),
(558,802,o),
(558,837,cs),
(558,841,o),
(558,846,o),
(557,850,cs)
);
},
{
closed = 1;
nodes = (
(562,239,l),
(572,255,o),
(574,272,o),
(579,291,cs),
(590,334,o),
(599,379,o),
(599,423,cs),
(599,457,o),
(593,492,o),
(579,525,cs),
(551,590,o),
(487,593,o),
(469,608,cs),
(448,625,o),
(428,643,o),
(408,660,cs),
(406,662,o),
(365,666,o),
(361,666,c),
(278,653,o),
(167,533,o),
(124,465,c),
(113,460,o),
(107,452,o),
(107,442,cs),
(107,438,o),
(108,434,o),
(110,429,c),
(98,414,o),
(90,397,o),
(85,379,c),
(86,377,o),
(86,375,o),
(86,372,cs),
(86,353,o),
(67,321,o),
(66,302,cs),
(66,293,o),
(65,283,o),
(65,272,cs),
(65,237,o),
(68,195,o),
(74,167,cs),
(91,90,o),
(181,1,o),
(256,-21,cs),
(270,-25,o),
(286,-23,o),
(300,-26,c),
(311,-18,l),
(315,-19,o),
(319,-19,o),
(324,-19,cs),
(414,-19,o),
(562,151,o),
(562,234,cs)
);
},
{
closed = 1;
nodes = (
(168,448,l),
(179,456,o),
(181,468,o),
(187,478,cs),
(203,503,o),
(267,564,o),
(295,575,c),
(302,563,o),
(314,558,o),
(327,558,cs),
(333,558,l),
(341,566,o),
(351,568,o),
(362,568,cs),
(376,568,o),
(392,564,o),
(405,564,c),
(415,552,o),
(423,549,o),
(431,549,cs),
(441,549,o),
(451,553,o),
(462,553,cs),
(496,553,o),
(538,491,o),
(543,459,cs),
(545,449,o),
(546,436,o),
(546,422,cs),
(546,371,o),
(534,302,o),
(521,266,cs),
(514,247,o),
(507,235,o),
(507,214,c),
(497,204,o),
(493,189,o),
(493,175,c),
(483,169,o),
(483,162,o),
(477,153,cs),
(472,147,o),
(463,144,o),
(458,139,cs),
(439,122,o),
(432,97,o),
(408,81,cs),
(395,73,o),
(372,56,o),
(358,51,cs),
(350,48,o),
(341,50,o),
(333,48,cs),
(317,44,o),
(307,40,o),
(295,40,cs),
(287,40,o),
(278,43,o),
(265,48,cs),
(164,92,o),
(126,177,o),
(121,283,c),
(127,292,o),
(129,301,o),
(129,308,cs),
(129,316,o),
(127,322,o),
(127,324,c)
);
}
);
width = 651;
}
);
note = Odieresis;
unicode = 214;
},
{
glyphname = Ograve;
lastChange = "2023-01-15 02:08:54 +0000";
layers = (
{
hints = (
{
horizontal = 1;
place = (-17, 58);
place = (-17, 58);
type = Stem;
},
{
horizontal = 1;
place = (454, 9);
place = (454, 9);
type = Stem;
},
{
place = (33, 57);
place = (33, 57);
type = Stem;
},
{
place = (518, 50);
place = (518, 50);
type = Stem;
},
{
horizontal = 1;
place = (480, 93);
place = (480, 93);
type = Stem;
}
);
layerId = m01;
shapes = (
{
closed = 1;
nodes = (
(274,859,o),
(264,848,o),
(253,838,c),
(256,829,o),
(258,820,o),
(258,810,c),
(299,761,o),
(339,710,o),
(383,664,cs),
(393,654,o),
(426,631,o),
(443,631,cs),
(446,631,l),
(456,638,o),
(463,649,o),
(465,661,c),
(458,679,o),
(448,692,o),
(432,703,c),
(432,719,o),
(356,813,o),
(344,827,c),
(344,828,o),
(345,829,o),
(345,830,cs),
(345,849,o),
(302,868,o),
(286,868,c)
);
},
{
closed = 1;
nodes = (
(549,213,o),
(562,239,o),
(567,265,cs),
(568,268,o),
(568,272,o),
(568,276,cs),
(568,304,o),
(555,355,o),
(548,375,cs),
(543,389,o),
(534,402,o),
(529,417,cs),
(524,431,o),
(519,444,o),
(509,455,cs),
(492,476,o),
(471,498,o),
(457,521,cs),
(451,531,o),
(450,534,o),
(440,541,cs),
(412,563,o),
(382,573,o),
(352,573,cs),
(321,573,o),
(291,562,o),
(261,543,cs),
(171,486,o),
(96,401,o),
(49,306,c),
(50,304,o),
(50,303,o),
(50,301,cs),
(50,295,o),
(47,290,o),
(41,287,c),
(41,273,o),
(34,260,o),
(27,248,c),
(27,236,o),
(31,227,o),
(32,215,cs),
(33,208,o),
(33,199,o),
(33,192,cs),
(36,160,o),
(46,129,o),
(65,102,c),
(68,81,o),
(132,23,o),
(151,11,cs),
(169,2,o),
(194,-7,o),
(214,-11,cs),
(232,-15,o),
(252,-17,o),
(271,-17,cs),
(313,-17,o),
(356,-6,o),
(391,20,cs),
(432,51,o),
(477,89,o),
(509,130,cs),
(527,153,o),
(514,171,o),
(540,188,c)
);
},
{
closed = 1;
nodes = (
(513,262,o),
(498,211,o),
(479,180,cs),
(448,128,o),
(356,59,o),
(297,44,cs),
(287,42,o),
(277,41,o),
(267,41,cs),
(229,40,o),
(195,57,o),
(168,83,cs),
(144,106,o),
(99,160,o),
(93,193,cs),
(89,213,o),
(90,245,o),
(90,265,cs),
(90,277,o),
(97,280,o),
(101,290,cs),
(114,317,o),
(110,325,o),
(134,353,c),
(134,354,o),
(133,355,o),
(133,357,cs),
(133,388,o),
(258,499,o),
(297,505,c),
(297,488,o),
(291,476,o),
(281,463,c),
(290,456,o),
(299,454,o),
(308,454,cs),
(333,454,o),
(356,476,o),
(374,480,c),
(378,480,ls),
(390,480,o),
(408,474,o),
(415,469,c),
(415,468,o),
(414,467,o),
(414,466,cs),
(414,459,o),
(432,458,o),
(435,458,c),
(479,414,o),
(492,353,o),
(518,298,c)
);
}
);
width = 600;
}
);
note = Ograve;
unicode = 210;
},
{
glyphname = Oslash;
lastChange = "2023-01-15 02:08:54 +0000";
layers = (
{
hints = (
{
horizontal = 1;
place = (-27, 21);
target = up;
type = BottomGhost;
},
{
horizontal = 1;
place = (541, 77);
place = (541, 77);
type = Stem;
},
{
place = (11, 11);
place = (11, 11);
type = Stem;
},
{
place = (103, 62);
place = (103, 62);
type = Stem;
},
{
place = (634, 57);
place = (634, 57);
type = Stem;
},
{
horizontal = 1;
place = (-62, 58);
place = (-62, 58);
type = Stem;
}
);
layerId = m01;
shapes = (
{
closed = 1;
nodes = (
(375,615,o),
(246,555,o),
(226,533,cs),
(211,517,o),
(197,501,o),
(182,486,cs),
(125,429,o),
(103,343,o),
(103,257,cs),
(103,197,o),
(114,136,o),
(132,86,cs),
(142,59,o),
(154,33,o),
(165,6,c),
(151,-25,o),
(112,-104,o),
(91,-126,c),
(87,-167,o),
(15,-247,o),
(11,-283,cs),
(11,-287,ls),
(11,-293,o),
(13,-299,o),
(17,-299,cs),
(19,-299,o),
(20,-299,o),
(22,-297,c),
(28,-297,o),
(37,-313,o),
(49,-313,cs),
(51,-313,o),
(53,-312,o),
(55,-311,cs),
(72,-301,o),
(70,-282,o),
(74,-267,cs),
(76,-261,o),
(89,-254,o),
(91,-250,cs),
(107,-217,l),
(126,-211,o),
(129,-182,o),
(129,-165,c),
(133,-159,o),
(136,-152,o),
(137,-145,c),
(147,-136,o),
(147,-126,o),
(151,-115,cs),
(164,-86,o),
(192,-54,o),
(209,-27,c),
(241,-51,o),
(281,-62,o),
(321,-62,cs),
(383,-62,o),
(448,-36,o),
(490,6,c),
(507,6,o),
(581,91,o),
(600,108,c),
(600,114,l),
(609,125,o),
(616,137,o),
(623,150,cs),
(631,166,o),
(642,174,o),
(653,188,cs),
(671,213,o),
(691,293,o),
(691,337,cs),
(691,345,o),
(690,351,o),
(689,356,cs),
(686,366,o),
(679,375,o),
(675,384,cs),
(652,442,o),
(624,495,o),
(584,544,c),
(630,615,o),
(676,687,o),
(744,739,c),
(745,743,o),
(745,746,o),
(745,749,cs),
(745,762,o),
(738,767,o),
(728,767,cs),
(707,767,o),
(674,745,o),
(669,726,c),
(641,697,o),
(572,611,o),
(551,574,c),
(487,599,o),
(447,614,o),
(377,618,c)
);
},
{
closed = 1;
nodes = (
(207,441,o),
(279,517,o),
(289,519,c),
(294,519,o),
(301,509,o),
(303,505,c),
(336,513,o),
(347,521,o),
(375,541,c),
(393,541,o),
(411,547,o),
(430,549,c),
(436,546,o),
(442,543,o),
(449,541,c),
(456,524,o),
(467,508,o),
(485,502,c),
(486,499,o),
(486,496,o),
(486,493,cs),
(486,480,o),
(480,469,o),
(471,458,cs),
(426,403,o),
(385,341,o),
(350,279,c),
(343,279,o),
(339,276,o),
(336,271,cs),
(292,205,o),
(253,139,o),
(206,75,c),
(201,84,o),
(194,92,o),
(187,100,c),
(179,141,o),
(165,191,o),
(165,232,cs),
(165,277,o),
(173,324,o),
(173,370,c),
(178,376,o),
(180,382,o),
(180,388,cs),
(180,390,o),
(180,393,o),
(179,395,c),
(189,402,o),
(193,416,o),
(195,428,c)
);
},
{
closed = 1;
nodes = (
(378,253,o),
(383,257,o),
(386,260,cs),
(404,282,o),
(419,312,o),
(435,336,cs),
(472,390,o),
(510,441,o),
(551,491,c),
(603,449,o),
(634,378,o),
(634,309,cs),
(634,289,o),
(631,268,o),
(625,249,cs),
(616,219,o),
(522,94,o),
(496,72,cs),
(449,33,o),
(391,-4,o),
(328,-4,cs),
(299,-4,o),
(261,5,o),
(239,31,c),
(285,104,o),
(331,177,o),
(375,252,c)
);
}
);
width = 750;
}
);
note = Oslash;
unicode = 216;
},
{
glyphname = Otilde;
lastChange = "2023-01-15 02:08:54 +0000";
layers = (
{
hints = (
{
horizontal = 1;
place = (-17, 58);
place = (-17, 58);
type = Stem;
},
{
horizontal = 1;
place = (454, 9);
place = (454, 9);
type = Stem;
},
{
horizontal = 1;
place = (693, 66);
place = (693, 66);
type = Stem;
},
{
place = (33, 57);
place = (33, 57);
type = Stem;
},
{
place = (518, 50);
place = (518, 50);
type = Stem;
},
{
horizontal = 1;
place = (480, 93);
place = (480, 93);
type = Stem;
}
);
layerId = m01;
shapes = (
{
closed = 1;
nodes = (
(625,780,o),
(626,796,o),
(629,811,cs),
(630,815,l),
(630,832,o),
(608,848,o),
(593,850,c),
(591,847,l),
(571,832,o),
(563,824,o),
(560,798,c),
(558,798,l),
(551,792,o),
(544,787,o),
(541,778,c),
(532,778,o),
(511,761,o),
(502,759,cs),
(501,759,ls),
(496,759,o),
(473,768,o),
(467,770,c),
(467,773,l),
(456,783,o),
(444,792,o),
(431,798,c),
(431,800,l),
(412,819,o),
(395,838,o),
(378,858,c),
(369,862,o),
(359,865,o),
(348,867,cs),
(345,867,ls),
(330,867,o),
(315,856,o),
(309,842,c),
(298,842,o),
(245,780,o),
(243,770,cs),
(242,757,o),
(216,708,o),
(216,694,cs),
(216,693,l),
(222,684,o),
(231,679,o),
(240,679,cs),
(249,679,o),
(258,683,o),
(263,693,cs),
(289,741,o),
(295,765,o),
(334,809,c),
(401,759,o),
(403,693,o),
(505,693,c),
(505,693,o),
(527,700,o),
(530,712,c),
(532,712,ls),
(547,712,o),
(590,747,o),
(599,756,cs)
);
},
{
closed = 1;
nodes = (
(549,213,o),
(562,239,o),
(567,265,cs),
(568,268,o),
(568,272,o),
(568,276,cs),
(568,304,o),
(555,355,o),
(548,375,cs),
(543,389,o),
(534,402,o),
(529,417,cs),
(524,431,o),
(519,444,o),
(509,455,cs),
(492,476,o),
(471,498,o),
(457,521,cs),
(451,531,o),
(450,534,o),
(440,541,cs),
(412,563,o),
(382,573,o),
(352,573,cs),
(321,573,o),
(291,562,o),
(261,543,cs),
(171,486,o),
(96,401,o),
(49,306,c),
(50,304,o),
(50,303,o),
(50,301,cs),
(50,295,o),
(47,290,o),
(41,287,c),
(41,273,o),
(34,260,o),
(27,248,c),
(27,236,o),
(31,227,o),
(32,215,cs),
(33,208,o),
(33,199,o),
(33,192,cs),
(36,160,o),
(46,129,o),
(65,102,c),
(68,81,o),
(132,23,o),
(151,11,cs),
(169,2,o),
(194,-7,o),
(214,-11,cs),
(232,-15,o),
(252,-17,o),
(271,-17,cs),
(313,-17,o),
(356,-6,o),
(391,20,cs),
(432,51,o),
(477,89,o),
(509,130,cs),
(527,153,o),
(514,171,o),
(540,188,c)
);
},
{
closed = 1;
nodes = (
(513,262,o),
(498,211,o),
(479,180,cs),
(448,128,o),
(356,59,o),
(297,44,cs),
(287,42,o),
(277,41,o),
(267,41,cs),
(229,40,o),
(195,57,o),
(168,83,cs),
(144,106,o),
(99,160,o),
(93,193,cs),
(89,213,o),
(90,245,o),
(90,265,cs),
(90,277,o),
(97,280,o),
(101,290,cs),
(114,317,o),
(110,325,o),
(134,353,c),
(134,354,o),
(133,355,o),
(133,357,cs),
(133,388,o),
(258,499,o),
(297,505,c),
(297,488,o),
(291,476,o),
(281,463,c),
(290,456,o),
(299,454,o),
(308,454,cs),
(333,454,o),
(356,476,o),
(374,480,c),
(378,480,ls),
(390,480,o),
(408,474,o),
(415,469,c),
(415,468,o),
(414,467,o),
(414,466,cs),
(414,459,o),
(432,458,o),
(435,458,c),
(479,414,o),
(492,353,o),
(518,298,c)
);
}
);
width = 600;
}
);
note = Otilde;
unicode = 213;
},
{
glyphname = OE;
lastChange = "2023-01-15 02:08:54 +0000";
layers = (
{
hints = (
{
horizontal = 1;
place = (44, 56);
place = (44, 56);
type = Stem;
},
{
horizontal = 1;
place = (295, 62);
place = (295, 62);
type = Stem;
},
{
horizontal = 1;
place = (618, 56);
place = (618, 56);
type = Stem;
},
{
place = (442, 61);
place = (442, 61);
type = Stem;
},
{
horizontal = 1;
place = (9.5, 62.5);
place = (9.5, 62.5);
type = Stem;
},
{
horizontal = 1;
place = (254, 68);
place = (254, 68);
type = Stem;
},
{
horizontal = 1;
place = (296, 49);
place = (296, 49);
type = Stem;
},
{
horizontal = 1;
place = (-52, 75);
place = (-52, 75);
type = Stem;
},
{
place = (45.5, 68.5);
place = (45.5, 68.5);
type = Stem;
}
);
layerId = m01;
shapes = (
{
closed = 1;
nodes = (
(837,103,o),
(831,103,o),
(826,104,c),
(819,104,o),
(815,101,o),
(788,100,cs),
(763,99,o),
(738,93,o),
(714,87,cs),
(686,81,o),
(658,72,o),
(630,72,cs),
(573,72,l),
(561,74,o),
(550,76,o),
(540,77,c),
(540,81,o),
(540,85,o),
(539,87,cs),
(534,99,o),
(515,111,o),
(509,125,cs),
(502,141,o),
(503,172,o),
(503,179,cs),
(503,223,ls),
(503,233,o),
(506,253,o),
(515,254,c),
(518,255,o),
(522,255,o),
(525,256,c),
(529,256,l),
(564,261,o),
(603,264,o),
(639,271,cs),
(680,279,o),
(787,296,o),
(792,296,cs),
(801,296,o),
(821,290,o),
(823,290,cs),
(825,290,o),
(835,295,o),
(837,295,cs),
(869,295,ls),
(871,295,o),
(885,300,o),
(892,303,c),
(892,306,ls),
(892,314,o),
(879,351,o),
(878,353,c),
(862,354,o),
(833,357,o),
(830,357,cs),
(796,357,o),
(770,345,o),
(762,345,cs),
(720,345,ls),
(695,345,o),
(615,322,o),
(600,322,cs),
(558,322,ls),
(556,322,o),
(541,324,o),
(534,326,c),
(541,357,o),
(548,389,o),
(558,420,cs),
(564,440,o),
(565,464,o),
(578,479,cs),
(597,501,o),
(627,505,o),
(651,508,cs),
(722,517,o),
(795,521,o),
(865,532,cs),
(874,534,o),
(903,534,o),
(903,554,cs),
(903,556,o),
(889,574,o),
(883,583,c),
(797,582,l),
(794,581,o),
(784,580,o),
(773,580,cs),
(727,579,o),
(676,560,o),
(630,554,c),
(561,553,l),
(557,554,o),
(553,554,o),
(548,554,c),
(519,598,o),
(464,653,o),
(420,662,cs),
(411,664,o),
(395,674,o),
(393,674,cs),
(341,674,ls),
(339,674,o),
(329,674,o),
(316,675,c),
(314,672,o),
(311,668,o),
(307,667,cs),
(283,661,o),
(257,666,o),
(234,657,cs),
(219,651,o),
(205,637,o),
(194,633,cs),
(173,625,o),
(152,611,o),
(134,589,cs),
(116,567,o),
(109,547,o),
(89,532,cs),
(73,521,o),
(75,499,o),
(69,486,cs),
(57,462,o),
(53,425,o),
(46,396,c),
(45,357,l),
(42,336,o),
(39,316,o),
(34,294,c),
(40,282,l),
(39,280,o),
(36,278,o),
(36,276,c),
(36,276,o),
(38,265,o),
(39,256,cs),
(40,251,o),
(40,247,o),
(40,246,cs),
(38,226,ls),
(38,224,o),
(47,203,o),
(50,193,cs),
(54,179,o),
(54,161,o),
(61,147,cs),
(96,82,o),
(163,-5,o),
(234,-36,cs),
(253,-44,o),
(283,-52,o),
(304,-52,cs),
(342,-52,o),
(439,-36,o),
(457,3,c),
(480,10,o),
(473,13,o),
(490,13,cs),
(511,13,o),
(507,6,o),
(527,6,c),
(558,9,l),
(622,10,l),
(665,15,o),
(710,20,o),
(752,28,cs),
(776,33,o),
(821,44,o),
(823,44,cs),
(830,44,o),
(863,31,o),
(875,31,cs),
(887,31,o),
(904,39,o),
(904,54,cs),
(904,79,o),
(882,95,o),
(854,100,cs)
);
},
{
closed = 1;
nodes = (
(302,23,ls),
(300,23,o),
(293,27,o),
(289,29,cs),
(244,50,o),
(185,97,o),
(151,149,cs),
(130,181,o),
(115,219,o),
(110,254,cs),
(110,256,l),
(109,268,ls),
(109,271,o),
(112,287,o),
(112,289,cs),
(112,292,o),
(108,316,o),
(108,318,cs),
(108,331,o),
(114,348,o),
(114,361,cs),
(112,380,ls),
(112,381,o),
(123,406,o),
(123,417,cs),
(121,436,ls),
(121,440,o),
(129,449,o),
(129,459,cs),
(129,477,ls),
(129,479,o),
(154,529,o),
(170,552,cs),
(182,568,o),
(203,581,o),
(218,588,cs),
(229,592,o),
(315,620,o),
(321,620,cs),
(323,620,o),
(343,618,o),
(362,617,cs),
(364,617,o),
(364,618,o),
(367,618,cs),
(396,618,o),
(469,573,o),
(487,543,cs),
(492,534,o),
(504,519,o),
(504,516,cs),
(504,500,ls),
(504,480,o),
(509,488,o),
(509,474,cs),
(509,471,o),
(509,460,o),
(507,441,cs),
(506,426,o),
(491,406,o),
(486,390,cs),
(477,364,o),
(472,332,o),
(464,305,cs),
(463,302,o),
(458,299,o),
(457,295,cs),
(455,288,o),
(451,272,o),
(448,256,cs),
(445,240,o),
(442,222,o),
(442,211,cs),
(442,126,l),
(451,65,l),
(444,51,o),
(366,23,o),
(342,23,cs)
);
}
);
width = 949;
}
);
note = OE;
unicode = 338;
},
{
glyphname = P;
lastChange = "2023-01-15 02:08:54 +0000";
layers = (
{
hints = (
{
horizontal = 1;
place = (-24, 21);
target = up;
type = BottomGhost;
},
{
horizontal = 1;
place = (220, 56);
place = (220, 56);
type = Stem;
},
{
horizontal = 1;
place = (519, 57);
place = (519, 57);
type = Stem;
},
{
place = (26, 66);
place = (26, 66);
type = Stem;
},
{
place = (136, 56);
place = (136, 56);
type = Stem;
},
{
place = (412, 65);
place = (412, 65);
type = Stem;
}
);
layerId = m01;
shapes = (
{
closed = 1;
nodes = (
(237,576,ls),
(213,576,o),
(182,572,o),
(161,562,cs),
(141,553,o),
(129,543,o),
(114,537,c),
(113,536,o),
(81,504,o),
(81,497,cs),
(81,490,o),
(86,476,o),
(95,474,c),
(154,501,l),
(152,496,o),
(136,473,o),
(136,471,cs),
(136,456,ls),
(136,448,o),
(132,444,o),
(129,431,c),
(129,411,l),
(125,390,o),
(122,366,o),
(115,344,cs),
(112,333,o),
(112,316,o),
(104,307,cs),
(95,298,o),
(79,281,o),
(79,269,cs),
(79,267,o),
(84,250,o),
(84,248,cs),
(84,246,o),
(71,216,o),
(65,200,cs),
(56,175,o),
(48,149,o),
(42,124,cs),
(40,115,o),
(37,105,o),
(36,97,cs),
(32,78,o),
(26,43,o),
(26,41,cs),
(26,25,o),
(28,-24,o),
(64,-24,cs),
(68,-24,ls),
(70,-24,o),
(72,-24,o),
(72,-22,c),
(80,-11,o),
(92,12,o),
(92,14,cs),
(92,69,ls),
(92,111,o),
(117,191,o),
(134,222,c),
(146,221,o),
(170,220,o),
(172,220,cs),
(199,220,o),
(224,224,o),
(250,240,cs),
(267,251,o),
(288,253,o),
(303,262,cs),
(347,289,o),
(387,309,o),
(429,348,cs),
(444,362,o),
(477,402,o),
(477,421,cs),
(477,463,o),
(411,547,o),
(368,555,cs),
(359,556,o),
(352,563,o),
(343,565,cs),
(332,567,o),
(284,576,o),
(266,576,cs)
);
},
{
closed = 1;
nodes = (
(283,519,o),
(362,505,o),
(392,450,cs),
(398,439,o),
(412,421,o),
(412,419,cs),
(412,415,o),
(374,372,o),
(359,361,cs),
(351,354,o),
(339,353,o),
(330,346,cs),
(320,339,o),
(307,326,o),
(295,320,cs),
(289,317,o),
(286,310,o),
(280,307,cs),
(268,301,o),
(208,276,o),
(201,276,cs),
(189,276,o),
(162,281,o),
(153,289,c),
(166,336,o),
(191,387,o),
(192,434,cs),
(192,479,ls),
(192,480,o),
(193,481,o),
(193,482,cs),
(193,491,o),
(182,501,o),
(172,510,c),
(205,514,o),
(215,519,o),
(241,519,cs)
);
}
);
width = 449;
}
);
note = P;
unicode = 80;
},
{
glyphname = Q;
lastChange = "2023-01-15 02:08:54 +0000";
layers = (
{
hints = (
{
horizontal = 1;
place = (5, 60);
place = (5, 60);
type = Stem;
},
{
place = (30, 57);
place = (30, 57);
type = Stem;
},
{
place = (457, 56);
place = (457, 56);
type = Stem;
},
{
place = (53, 48);
place = (53, 48);
type = Stem;
}
);
layerId = m01;
shapes = (
{
closed = 1;
nodes = (
(371,581,ls),
(366,582,o),
(362,582,o),
(357,582,cs),
(328,582,o),
(306,573,o),
(289,554,c),
(264,551,o),
(244,537,o),
(231,515,c),
(206,504,o),
(187,488,o),
(176,463,c),
(121,416,o),
(82,358,o),
(54,287,c),
(52,270,l),
(41,245,o),
(32,218,o),
(30,187,c),
(32,162,o),
(35,140,o),
(41,121,cs),
(49,96,l),
(76,49,o),
(115,22,o),
(165,5,c),
(180,5,ls),
(210,5,o),
(241,10,o),
(272,22,cs),
(308,36,o),
(338,52,o),
(369,74,c),
(374,83,o),
(380,88,o),
(391,88,c),
(432,44,o),
(473,0,o),
(520,-44,cs),
(539,-61,o),
(562,-72,o),
(595,-77,c),
(622,-50,l),
(622,-33,o),
(619,-19,o),
(608,-11,cs),
(600,-6,o),
(592,-3,o),
(578,0,c),
(556,25,o),
(531,47,o),
(506,72,c),
(490,96,o),
(468,121,o),
(446,146,c),
(468,168,o),
(484,193,o),
(498,220,c),
(498,226,o),
(498,234,o),
(501,240,cs),
(509,257,o),
(513,275,o),
(513,294,cs),
(513,309,o),
(511,324,o),
(506,339,cs),
(494,378,o),
(479,416,o),
(460,452,c),
(457,455,o),
(454,458,o),
(448,458,c),
(446,469,o),
(440,477,o),
(437,488,c),
(424,510,o),
(413,535,o),
(404,562,c),
(393,570,o),
(385,576,o),
(374,581,c)
);
},
{
closed = 1;
nodes = (
(429,400,o),
(443,358,o),
(454,314,cs),
(456,305,o),
(457,295,o),
(457,286,cs),
(457,270,o),
(454,255,o),
(448,242,cs),
(437,223,o),
(429,204,o),
(415,190,c),
(388,226,o),
(360,259,o),
(330,298,c),
(323,297,o),
(318,296,o),
(313,296,cs),
(308,296,o),
(304,297,o),
(300,298,c),
(294,287,o),
(289,276,o),
(280,264,c),
(302,218,o),
(327,173,o),
(358,135,c),
(349,121,o),
(335,107,o),
(319,99,c),
(300,96,o),
(289,88,o),
(278,77,c),
(276,78,o),
(273,78,o),
(271,78,cs),
(264,78,o),
(255,75,o),
(247,69,c),
(234,66,o),
(221,65,o),
(209,65,cs),
(184,65,o),
(161,71,o),
(137,80,c),
(107,113,o),
(90,151,o),
(87,201,c),
(90,215,o),
(96,229,o),
(101,245,c),
(101,264,l),
(132,342,o),
(173,408,o),
(231,460,cs),
(240,467,o),
(248,470,o),
(257,470,cs),
(259,470,o),
(262,470,o),
(264,469,c),
(275,477,o),
(286,482,o),
(297,485,c),
(296,487,o),
(296,489,o),
(296,490,cs),
(296,495,o),
(299,496,o),
(305,496,c),
(316,501,o),
(327,513,o),
(335,524,c),
(363,510,o),
(380,488,o),
(391,458,c),
(393,446,o),
(402,441,o),
(410,435,c)
);
}
);
width = 622;
}
);
note = Q;
unicode = 81;
},
{
glyphname = R;
lastChange = "2023-01-15 02:08:54 +0000";
layers = (
{
hints = (
{
horizontal = 1;
place = (-3, 21);
target = up;
type = BottomGhost;
},
{
horizontal = 1;
place = (518, 58);
place = (518, 58);
type = Stem;
},
{
place = (21, 520);
place = (21, 520);
type = Stem;
},
{
horizontal = 1;
place = (-4, 21);
target = up;
type = BottomGhost;
},
{
place = (31, 63);
place = (31, 63);
type = Stem;
},
{
horizontal = 1;
place = (-11, 69);
place = (-11, 69);
type = Stem;
},
{
horizontal = 1;
place = (300, 31);
place = (300, 31);
type = Stem;
}
);
layerId = m01;
shapes = (
{
closed = 1;
nodes = (
(238,568,l),
(224,562,o),
(207,559,o),
(188,557,c),
(177,551,o),
(169,546,o),
(160,537,c),
(133,526,o),
(113,510,o),
(97,485,cs),
(96,483,o),
(96,481,o),
(96,478,cs),
(96,471,o),
(99,463,o),
(105,452,c),
(125,455,o),
(136,466,o),
(147,480,c),
(144,469,o),
(141,452,o),
(138,438,cs),
(136,427,o),
(130,419,o),
(127,408,c),
(125,391,o),
(126,372,o),
(119,350,cs),
(102,298,o),
(83,248,o),
(58,198,c),
(50,165,o),
(42,132,o),
(31,102,c),
(31,91,o),
(28,80,o),
(22,69,c),
(22,64,o),
(21,59,o),
(21,54,cs),
(21,38,o),
(24,23,o),
(31,5,c),
(37,-1,o),
(44,-4,o),
(51,-4,cs),
(57,-4,o),
(65,-1,o),
(72,3,c),
(78,25,o),
(80,49,o),
(83,80,c),
(89,96,o),
(94,116,o),
(94,143,c),
(100,146,o),
(102,151,o),
(105,160,c),
(113,201,o),
(127,234,o),
(144,262,c),
(164,235,o),
(185,209,o),
(210,184,c),
(287,116,ls),
(345,66,o),
(414,22,o),
(494,-11,c),
(505,-11,o),
(516,-8,o),
(527,-3,c),
(530,5,o),
(535,11,o),
(541,19,c),
(541,39,o),
(535,52,o),
(524,58,c),
(488,58,l),
(430,102,o),
(373,149,o),
(318,196,c),
(287,212,o),
(262,234,o),
(249,262,c),
(262,267,o),
(276,270,o),
(298,273,c),
(315,278,o),
(329,287,o),
(340,300,c),
(348,300,l),
(378,314,o),
(414,319,o),
(428,344,c),
(441,347,o),
(450,355,o),
(458,367,c),
(463,369,o),
(463,375,o),
(466,383,c),
(472,383,o),
(480,386,o),
(483,394,cs),
(488,405,o),
(494,419,o),
(499,435,cs),
(502,444,o),
(502,452,o),
(505,460,c),
(502,474,o),
(497,482,o),
(491,493,c),
(472,518,o),
(450,540,o),
(422,557,c),
(395,568,o),
(364,573,o),
(326,576,cs),
(295,576,o),
(265,576,o),
(238,570,c)
);
},
{
closed = 1;
nodes = (
(305,332,o),
(303,333,o),
(301,333,cs),
(298,333,o),
(296,332,o),
(293,331,cs),
(276,325,o),
(262,317,o),
(249,309,c),
(237,312,o),
(224,313,o),
(211,313,cs),
(201,313,o),
(191,312,o),
(180,311,cs),
(173,310,ls),
(165,310,o),
(160,313,o),
(158,320,c),
(166,336,o),
(174,355,o),
(180,375,c),
(180,400,l),
(191,416,o),
(196,435,o),
(196,455,c),
(202,474,o),
(210,490,o),
(221,507,c),
(227,509,o),
(234,511,o),
(244,511,cs),
(248,511,o),
(252,511,o),
(257,510,c),
(262,513,o),
(265,515,o),
(271,518,c),
(304,515,o),
(340,513,o),
(378,504,c),
(403,493,o),
(425,477,o),
(444,452,c),
(414,397,o),
(370,355,o),
(306,331,c)
);
}
);
width = 531;
}
);
note = R;
unicode = 82;
},
{
glyphname = S;
lastChange = "2023-01-15 02:08:54 +0000";
layers = (
{
hints = (
{
horizontal = 1;
place = (-14, 21);
target = up;
type = BottomGhost;
},
{
horizontal = 1;
place = (537, 56);
place = (537, 56);
type = Stem;
},
{
place = (15, 55);
place = (15, 55);
type = Stem;
},
{
place = (385, 60);
place = (385, 60);
type = Stem;
},
{
horizontal = 1;
place = (-10, 54);
place = (-10, 54);
type = Stem;
},
{
horizontal = 1;
place = (-2, 46);
place = (-2, 46);
type = Stem;
},
{
horizontal = 1;
place = (529, 49);
place = (529, 49);
type = Stem;
}
);
layerId = m01;
shapes = (
{
closed = 1;
nodes = (
(189,556,l),
(178,552,o),
(167,547,o),
(153,545,cs),
(137,542,o),
(123,533,o),
(115,515,c),
(101,512,o),
(93,504,o),
(82,496,c),
(79,485,o),
(73,477,o),
(68,468,cs),
(67,466,o),
(66,463,o),
(66,460,cs),
(66,458,o),
(67,456,o),
(68,454,c),
(71,438,o),
(73,427,o),
(79,419,c),
(87,413,o),
(95,405,o),
(98,391,c),
(159,350,o),
(219,311,o),
(285,272,c),
(319,244,o),
(385,208,o),
(385,179,cs),
(385,174,o),
(383,170,o),
(379,165,cs),
(378,164,o),
(378,162,o),
(378,160,cs),
(378,154,o),
(379,147,o),
(379,147,c),
(346,114,o),
(305,58,o),
(252,44,c),
(195,44,l),
(153,61,o),
(117,83,o),
(84,113,c),
(68,149,l),
(69,153,o),
(70,158,o),
(70,162,cs),
(70,170,o),
(67,177,o),
(59,182,c),
(56,183,o),
(52,184,o),
(49,184,cs),
(44,184,o),
(39,183,o),
(32,179,c),
(26,168,o),
(21,160,o),
(15,151,c),
(15,129,o),
(21,110,o),
(29,96,c),
(44,89,o),
(53,76,o),
(62,63,cs),
(71,52,o),
(82,44,o),
(98,36,c),
(104,22,o),
(115,14,o),
(134,14,c),
(151,0,o),
(170,-8,o),
(197,-14,c),
(202,-11,o),
(206,-10,o),
(209,-10,cs),
(213,-10,o),
(215,-12,o),
(217,-17,c),
(239,-11,o),
(261,-2,o),
(280,-2,cs),
(302,0,o),
(319,9,o),
(332,25,c),
(346,31,o),
(357,33,o),
(371,33,c),
(393,50,o),
(415,92,o),
(434,111,c),
(437,122,o),
(443,153,o),
(448,164,c),
(448,175,o),
(445,189,o),
(445,203,c),
(437,211,o),
(434,222,o),
(429,236,c),
(407,269,o),
(376,283,o),
(341,303,c),
(335,311,o),
(330,319,o),
(321,322,c),
(272,355,o),
(219,386,o),
(170,416,cs),
(151,428,o),
(137,443,o),
(126,468,c),
(131,474,o),
(137,479,o),
(142,482,cs),
(173,496,o),
(200,512,o),
(225,529,c),
(233,528,o),
(241,527,o),
(249,527,cs),
(257,527,o),
(265,528,o),
(272,529,c),
(289,534,o),
(306,537,o),
(324,537,cs),
(344,537,o),
(365,534,o),
(387,526,c),
(390,523,o),
(393,518,o),
(396,512,c),
(404,501,o),
(410,488,o),
(418,471,c),
(426,471,o),
(437,477,o),
(448,485,c),
(451,496,o),
(454,509,o),
(456,520,c),
(451,532,o),
(448,543,o),
(443,554,c),
(434,559,o),
(429,567,o),
(423,573,c),
(410,578,o),
(396,581,o),
(385,584,cs),
(362,590,o),
(341,593,o),
(322,593,cs),
(296,593,o),
(272,588,o),
(250,578,c),
(239,578,o),
(225,576,o),
(206,570,c)
);
}
);
width = 500;
}
);
note = S;
unicode = 83;
},
{
glyphname = Scaron;
lastChange = "2023-01-15 20:35:05 +0000";
layers = (
{
hints = (
{
horizontal = 1;
place = (-68, 60);
place = (-68, 60);
type = Stem;
},
{
horizontal = 1;
place = (116, 22);
place = (116, 22);
type = Stem;
},
{
horizontal = 1;
place = (635, 54);
place = (635, 54);
type = Stem;
},
{
horizontal = 1;
place = (935, 67);
place = (935, 67);
type = Stem;
},
{
place = (63, 49);
place = (63, 49);
type = Stem;
}
);
layerId = m01;
shapes = (
{
closed = 1;
nodes = (
(551,877,l),
(545,890,o),
(534,895,o),
(518,895,c),
(504,890,o),
(493,879,o),
(485,868,c),
(482,868,l),
(479,865,o),
(474,862,o),
(468,862,c),
(468,859,l),
(462,858,o),
(460,852,o),
(460,848,c),
(457,848,l),
(449,845,o),
(443,842,o),
(443,832,c),
(440,832,l),
(405,800,o),
(369,770,o),
(333,738,c),
(293,774,o),
(292,840,o),
(228,859,c),
(214,855,o),
(203,850,o),
(198,840,c),
(198,838,ls),
(198,794,o),
(266,675,o),
(327,646,c),
(330,646,l),
(347,649,o),
(358,659,o),
(366,669,c),
(366,671,l),
(369,681,o),
(369,688,o),
(369,698,c),
(371,698,l),
(410,750,o),
(457,797,o),
(512,835,c),
(515,835,l),
(518,834,o),
(521,834,o),
(523,834,cs),
(545,834,o),
(553,851,o),
(553,877,c)
);
},
{
closed = 1;
nodes = (
(189,556,l),
(178,552,o),
(167,547,o),
(153,545,cs),
(137,542,o),
(123,533,o),
(115,515,c),
(101,512,o),
(93,504,o),
(82,496,c),
(79,485,o),
(73,477,o),
(68,468,cs),
(67,466,o),
(66,463,o),
(66,460,cs),
(66,458,o),
(67,456,o),
(68,454,c),
(71,438,o),
(73,427,o),
(79,419,c),
(87,413,o),
(95,405,o),
(98,391,c),
(159,350,o),
(219,311,o),
(285,272,c),
(319,244,o),
(385,208,o),
(385,179,cs),
(385,174,o),
(383,170,o),
(379,165,cs),
(378,164,o),
(378,162,o),
(378,160,cs),
(378,154,o),
(379,147,o),
(379,147,c),
(346,114,o),
(305,58,o),
(252,44,c),
(195,44,l),
(153,61,o),
(117,83,o),
(84,113,c),
(68,149,l),
(69,153,o),
(70,158,o),
(70,162,cs),
(70,170,o),
(67,177,o),
(59,182,c),
(56,183,o),
(52,184,o),
(49,184,cs),
(44,184,o),
(39,183,o),
(32,179,c),
(26,168,o),
(21,160,o),
(15,151,c),
(15,129,o),
(21,110,o),
(29,96,c),
(44,89,o),
(53,76,o),
(62,63,cs),
(71,52,o),
(82,44,o),
(98,36,c),
(104,22,o),
(115,14,o),
(134,14,c),
(151,0,o),
(170,-8,o),
(197,-14,c),
(202,-11,o),
(206,-10,o),
(209,-10,cs),
(213,-10,o),
(215,-12,o),
(217,-17,c),
(239,-11,o),
(261,-2,o),
(280,-2,cs),
(302,0,o),
(319,9,o),
(332,25,c),
(346,31,o),
(357,33,o),
(371,33,c),
(393,50,o),
(415,92,o),
(434,111,c),
(437,122,o),
(443,153,o),
(448,164,c),
(448,175,o),
(445,189,o),
(445,203,c),
(437,211,o),
(434,222,o),
(429,236,c),
(407,269,o),
(376,283,o),
(341,303,c),
(335,311,o),
(330,319,o),
(321,322,c),
(272,355,o),
(219,386,o),
(170,416,cs),
(151,428,o),
(137,443,o),
(126,468,c),
(131,474,o),
(137,479,o),
(142,482,cs),
(173,496,o),
(200,512,o),
(225,529,c),
(233,528,o),
(241,527,o),
(249,527,cs),
(257,527,o),
(265,528,o),
(272,529,c),
(289,534,o),
(306,537,o),
(324,537,cs),
(344,537,o),
(365,534,o),
(387,526,c),
(390,523,o),
(393,518,o),
(396,512,c),
(404,501,o),
(410,488,o),
(418,471,c),
(426,471,o),
(437,477,o),
(448,485,c),
(451,496,o),
(454,509,o),
(456,520,c),
(451,532,o),
(448,543,o),
(443,554,c),
(434,559,o),
(429,567,o),
(423,573,c),
(410,578,o),
(396,581,o),
(385,584,cs),
(362,590,o),
(341,593,o),
(322,593,cs),
(296,593,o),
(272,588,o),
(250,578,c),
(239,578,o),
(225,576,o),
(206,570,c)
);
}
);
width = 500;
}
);
note = Scaron;
unicode = 352;
},
{
glyphname = T;
lastChange = "2023-01-15 02:08:54 +0000";
layers = (
{
hints = (
{
horizontal = 1;
place = (-2, 21);
target = up;
type = BottomGhost;
},
{
horizontal = 1;
place = (464, 49);
place = (464, 49);
type = Stem;
},
{
place = (0, 586);
place = (0, 586);
type = Stem;
},
{
horizontal = 1;
place = (-24, 21);
target = up;
type = BottomGhost;
},
{
place = (131, 71);
place = (131, 71);
type = Stem;
},
{
horizontal = 1;
place = (-27, 21);
target = up;
type = BottomGhost;
},
{
horizontal = 1;
place = (470, 60);
place = (470, 60);
type = Stem;
},
{
horizontal = 1;
place = (484, 54);
place = (484, 54);
type = Stem;
}
);
layerId = m01;
shapes = (
{
closed = 1;
nodes = (
(22,514,o),
(11,505,o),
(0,494,c),
(0,480,o),
(3,470,o),
(14,467,c),
(22,461,o),
(33,459,o),
(45,459,cs),
(61,461,o),
(83,461,o),
(111,464,cs),
(160,470,o),
(165,470,o),
(212,472,cs),
(225,472,o),
(236,470,o),
(250,464,c),
(247,453,o),
(242,445,o),
(236,434,c),
(236,423,o),
(229,373,o),
(226,356,c),
(218,348,l),
(196,268,o),
(164,138,o),
(139,64,cs),
(134,47,o),
(131,29,o),
(131,12,cs),
(131,0,o),
(133,-12,o),
(136,-24,c),
(146,-28,o),
(155,-29,o),
(163,-29,cs),
(169,-29,o),
(175,-28,o),
(180,-27,c),
(183,-16,o),
(191,-8,o),
(202,-2,c),
(200,9,o),
(197,20,o),
(194,34,c),
(208,83,o),
(225,169,o),
(238,216,c),
(247,227,o),
(250,241,o),
(250,257,c),
(258,274,o),
(267,309,o),
(273,329,cs),
(281,367,o),
(300,442,o),
(319,470,c),
(380,478,o),
(427,480,o),
(482,483,cs),
(488,484,o),
(493,484,o),
(498,484,cs),
(514,484,o),
(528,481,o),
(542,475,c),
(547,478,o),
(552,479,o),
(557,479,cs),
(560,479,o),
(562,479,o),
(564,478,c),
(575,478,o),
(583,483,o),
(586,491,c),
(586,503,o),
(583,514,o),
(575,525,c),
(570,530,o),
(564,533,o),
(561,538,c),
(555,540,o),
(548,540,o),
(540,540,cs),
(533,540,o),
(525,540,o),
(515,538,c),
(493,538,o),
(476,538,o),
(465,541,c),
(457,538,o),
(454,537,o),
(451,537,cs),
(449,537,o),
(446,537,o),
(441,538,c),
(432,538,o),
(429,536,o),
(427,533,c),
(410,530,o),
(388,530,o),
(366,530,c),
(361,531,o),
(355,531,o),
(349,531,cs),
(333,531,o),
(317,528,o),
(303,522,c),
(299,526,o),
(295,528,o),
(288,528,cs),
(285,528,o),
(282,528,o),
(278,527,c),
(253,527,o),
(231,526,o),
(209,522,cs),
(176,517,o),
(156,514,o),
(132,514,c),
(124,513,o),
(118,513,o),
(114,513,cs),
(102,513,o),
(100,516,o),
(80,519,c),
(74,517,o),
(65,515,o),
(55,515,cs),
(51,515,o),
(47,516,o),
(42,516,cs)
);
}
);
width = 516;
}
);
note = T;
unicode = 84;
},
{
glyphname = U;
lastChange = "2023-01-15 02:08:54 +0000";
layers = (
{
hints = (
{
horizontal = 1;
place = (21, 631);
place = (21, 631);
type = Stem;
},
{
place = (30, 69);
place = (30, 69);
type = Stem;
},
{
place = (366, 47);
place = (366, 47);
type = Stem;
},
{
horizontal = 1;
place = (21, 61);
place = (21, 61);
type = Stem;
},
{
place = (85, 55);
place = (85, 55);
type = Stem;
}
);
layerId = m01;
shapes = (
{
closed = 1;
nodes = (
(361,561,o),
(352,545,o),
(350,523,c),
(361,512,o),
(366,498,o),
(366,479,cs),
(366,437,o),
(361,390,o),
(350,338,c),
(338,324,o),
(333,308,o),
(330,286,c),
(303,239,o),
(272,197,o),
(239,159,cs),
(203,118,l),
(187,112,o),
(176,104,o),
(165,93,c),
(154,90,o),
(145,87,o),
(134,82,c),
(118,84,o),
(107,93,o),
(99,109,c),
(91,137,o),
(86,164,o),
(86,191,cs),
(86,218,o),
(91,244,o),
(99,269,c),
(98,275,o),
(97,282,o),
(97,289,cs),
(97,297,o),
(98,305,o),
(99,313,c),
(99,333,o),
(104,349,o),
(104,366,c),
(110,393,o),
(112,424,o),
(121,454,c),
(132,515,o),
(140,575,o),
(140,633,cs),
(140,641,o),
(134,647,o),
(123,652,c),
(107,647,o),
(93,638,o),
(85,625,c),
(82,589,o),
(79,559,o),
(74,539,cs),
(68,515,o),
(68,487,o),
(68,454,c),
(65,448,o),
(62,441,o),
(62,433,cs),
(62,430,o),
(62,427,o),
(63,424,c),
(52,385,o),
(46,352,o),
(46,316,c),
(43,304,o),
(40,291,o),
(40,277,cs),
(40,272,o),
(40,266,o),
(41,261,c),
(38,258,o),
(38,253,o),
(35,247,c),
(36,242,o),
(36,237,o),
(36,231,cs),
(36,217,o),
(34,202,o),
(30,184,c),
(30,134,l),
(33,130,o),
(34,126,o),
(34,122,cs),
(34,120,o),
(33,117,o),
(32,115,c),
(38,106,o),
(43,98,o),
(46,87,c),
(49,65,o),
(63,43,o),
(88,29,c),
(107,24,o),
(126,21,o),
(148,21,c),
(179,32,o),
(203,46,o),
(223,65,cs),
(242,84,o),
(261,104,o),
(283,120,c),
(297,148,o),
(314,173,o),
(333,195,cs),
(352,217,o),
(366,244,o),
(377,277,c),
(383,288,o),
(388,299,o),
(396,310,c),
(399,324,o),
(402,335,o),
(407,344,c),
(407,363,o),
(410,377,o),
(413,390,c),
(416,396,o),
(416,401,o),
(416,404,c),
(414,411,o),
(413,419,o),
(413,426,cs),
(413,438,o),
(416,450,o),
(421,462,c),
(422,469,o),
(422,477,o),
(422,484,cs),
(422,508,o),
(418,533,o),
(410,559,c),
(399,564,o),
(388,570,o),
(372,572,c)
);
}
);
width = 455;
}
);
note = U;
unicode = 85;
},
{
glyphname = Uacute;
lastChange = "2023-01-15 02:08:54 +0000";
layers = (
{
hints = (
{
horizontal = 1;
place = (-19, 47);
place = (-19, 47);
type = Stem;
},
{
horizontal = 1;
place = (693, 37);
place = (693, 37);
type = Stem;
},
{
horizontal = 1;
place = (826, 61);
place = (826, 61);
type = Stem;
},
{
place = (63, 63);
place = (63, 63);
type = Stem;
},
{
place = (412, 45);
place = (412, 45);
type = Stem;
}
);
layerId = m01;
shapes = (
{
closed = 1;
nodes = (
(460,887,ls),
(454,887,o),
(448,888,o),
(441,888,cs),
(438,888,o),
(435,888,o),
(431,887,cs),
(409,882,o),
(393,873,o),
(384,851,c),
(382,851,ls),
(371,851,o),
(360,836,o),
(356,826,c),
(354,826,l),
(333,813,o),
(313,797,o),
(298,777,c),
(293,777,o),
(289,776,o),
(285,771,c),
(285,769,l),
(281,765,o),
(279,760,o),
(276,755,c),
(274,755,ls),
(258,752,o),
(260,731,o),
(241,730,c),
(241,727,l),
(227,716,o),
(214,704,o),
(205,689,c),
(206,669,o),
(214,662,o),
(224,662,cs),
(239,662,o),
(258,677,o),
(263,692,c),
(267,692,o),
(272,694,o),
(276,694,c),
(276,697,l),
(308,731,o),
(344,770,o),
(381,799,cs),
(396,811,o),
(442,826,o),
(461,826,c),
(467,834,o),
(475,843,o),
(486,843,c),
(486,854,o),
(470,880,o),
(464,887,c)
);
},
{
closed = 1;
nodes = (
(393,589,o),
(409,544,o),
(413,535,c),
(410,535,o),
(409,534,o),
(409,532,cs),
(409,530,o),
(410,528,o),
(410,527,cs),
(411,520,o),
(412,513,o),
(412,506,cs),
(412,479,o),
(403,451,o),
(402,425,cs),
(400,385,o),
(401,356,o),
(385,317,cs),
(376,294,o),
(368,272,o),
(365,247,cs),
(364,239,o),
(365,228,o),
(363,221,cs),
(356,191,o),
(320,151,o),
(305,124,cs),
(300,114,o),
(298,96,o),
(285,89,c),
(270,76,o),
(261,60,o),
(247,47,cs),
(239,39,o),
(204,28,o),
(191,28,cs),
(179,28,o),
(164,41,o),
(156,50,c),
(125,93,o),
(118,156,o),
(118,218,cs),
(118,265,o),
(122,311,o),
(123,348,cs),
(124,377,o),
(126,407,o),
(126,437,cs),
(126,448,o),
(125,459,o),
(125,470,cs),
(125,490,o),
(123,512,o),
(123,532,cs),
(123,541,o),
(127,542,o),
(129,549,cs),
(130,553,o),
(131,562,o),
(131,573,cs),
(131,595,o),
(129,624,o),
(126,632,cs),
(122,642,o),
(112,648,o),
(101,648,c),
(92,639,o),
(84,631,o),
(74,623,c),
(69,591,o),
(60,531,o),
(60,493,cs),
(60,474,o),
(63,463,o),
(63,447,cs),
(63,359,o),
(64,270,o),
(60,182,c),
(64,182,o),
(65,177,o),
(65,170,cs),
(65,161,o),
(63,149,o),
(63,143,cs),
(63,109,o),
(77,37,o),
(101,11,cs),
(112,0,o),
(123,-5,o),
(131,-19,c),
(152,-28,o),
(173,-33,o),
(194,-33,cs),
(214,-33,o),
(234,-29,o),
(253,-19,c),
(259,-13,o),
(271,2,o),
(280,3,c),
(308,26,o),
(316,60,o),
(344,83,c),
(350,107,o),
(360,96,o),
(369,133,c),
(378,142,o),
(386,153,o),
(393,163,c),
(393,174,o),
(398,184,o),
(407,191,c),
(410,215,o),
(418,239,o),
(426,262,cs),
(443,307,o),
(449,348,o),
(457,395,cs),
(463,432,o),
(470,472,o),
(470,511,cs),
(470,538,o),
(467,566,o),
(457,590,cs),
(452,602,o),
(436,616,o),
(422,616,cs),
(420,616,o),
(417,616,o),
(415,615,cs),
(411,614,o),
(399,599,o),
(393,596,c)
);
}
);
width = 500;
}
);
note = Uacute;
unicode = 218;
},
{
glyphname = Ucircumflex;
lastChange = "2023-01-15 20:34:34 +0000";
layers = (
{
hints = (
{
horizontal = 1;
place = (-16, 72);
place = (-16, 72);
type = Stem;
},
{
place = (34, 60);
place = (34, 60);
type = Stem;
},
{
place = (427, 56);
place = (427, 56);
type = Stem;
},
{
place = (389, 54);
place = (389, 54);
type = Stem;
}
);
layerId = m01;
shapes = (
{
closed = 1;
nodes = (
(266,842,o),
(229,787,o),
(191,749,cs),
(187,745,o),
(185,743,o),
(185,738,c),
(174,732,l),
(155,703,o),
(133,678,o),
(111,652,c),
(111,641,o),
(121,635,o),
(133,632,c),
(162,637,o),
(168,657,o),
(183,675,c),
(190,678,o),
(192,682,o),
(192,688,cs),
(192,690,o),
(192,692,o),
(191,695,c),
(209,702,o),
(216,707,o),
(227,721,cs),
(251,753,o),
(275,787,o),
(309,813,c),
(318,803,o),
(329,795,o),
(342,788,c),
(364,755,o),
(401,732,o),
(450,732,c),
(460,736,o),
(472,748,o),
(472,758,cs),
(472,762,o),
(471,764,o),
(469,766,c),
(444,785,ls),
(425,799,o),
(408,814,o),
(392,831,cs),
(383,840,o),
(377,849,o),
(370,859,cs),
(359,876,o),
(336,889,o),
(315,896,c),
(308,892,o),
(300,889,o),
(293,885,c)
);
},
{
closed = 1;
nodes = (
(436,613,l),
(411,629,l),
(405,628,o),
(393,624,o),
(389,618,cs),
(387,615,o),
(386,602,o),
(386,587,cs),
(386,565,o),
(388,538,o),
(389,533,cs),
(393,520,o),
(399,509,o),
(402,495,cs),
(405,483,o),
(404,470,o),
(406,458,cs),
(407,450,o),
(412,442,o),
(414,433,cs),
(421,406,o),
(427,354,o),
(427,303,cs),
(427,241,o),
(418,179,o),
(386,158,c),
(373,117,o),
(341,93,o),
(307,70,cs),
(289,58,o),
(281,55,o),
(270,55,cs),
(263,55,o),
(256,56,o),
(247,56,cs),
(233,56,o),
(223,54,o),
(213,54,cs),
(205,54,o),
(196,56,o),
(185,61,cs),
(169,70,o),
(124,114,o),
(116,130,cs),
(101,161,o),
(94,250,o),
(94,297,cs),
(94,312,ls),
(98,375,o),
(108,439,o),
(108,503,cs),
(108,511,ls),
(108,531,o),
(95,550,o),
(75,555,c),
(66,549,o),
(59,541,o),
(53,533,c),
(49,473,o),
(45,412,o),
(39,353,cs),
(36,326,o),
(31,297,o),
(31,271,cs),
(31,254,o),
(34,235,o),
(34,217,cs),
(34,158,o),
(47,129,o),
(78,78,cs),
(106,31,o),
(140,-2,o),
(196,-13,cs),
(206,-15,o),
(216,-16,o),
(226,-16,cs),
(287,-16,o),
(351,17,o),
(389,61,cs),
(416,93,o),
(458,160,o),
(469,199,cs),
(479,233,o),
(483,263,o),
(483,294,cs),
(483,361,o),
(466,424,o),
(458,494,cs),
(455,524,o),
(450,553,o),
(442,582,c),
(443,585,o),
(443,588,o),
(443,591,cs),
(443,599,o),
(441,606,o),
(439,613,c)
);
}
);
width = 500;
}
);
note = Ucircumflex;
unicode = 219;
},
{
glyphname = Udieresis;
lastChange = "2023-01-15 20:38:18 +0000";
layers = (
{
hints = (
{
horizontal = 1;
place = (-52, 1018);
place = (-52, 1018);
type = Stem;
},
{
place = (46, 60);
place = (46, 60);
type = Stem;
},
{
place = (266, 66);
place = (266, 66);
type = Stem;
},
{
place = (393, 55);
place = (393, 55);
type = Stem;
},
{
place = (487, 47);
place = (487, 47);
type = Stem;
},
{
place = (418, 60);
place = (418, 60);
type = Stem;
},
{
horizontal = 1;
place = (-52, 59);
place = (-52, 59);
type = Stem;
},
{
place = (415, 39);
place = (415, 39);
type = Stem;
},
{
place = (61, 51);
place = (61, 51);
type = Stem;
}
);
layerId = m01;
shapes = (
{
closed = 1;
nodes = (
(329,900,l),
(324,898,o),
(321,895,o),
(321,893,c),
(307,866,o),
(299,839,o),
(291,809,cs),
(285,779,o),
(277,757,o),
(266,727,c),
(266,725,ls),
(266,705,o),
(272,687,o),
(280,673,c),
(280,670,o),
(280,670,o),
(285,670,cs),
(291,670,l),
(296,666,o),
(302,664,o),
(309,664,cs),
(314,664,o),
(319,666,o),
(324,666,cs),
(327,666,l),
(338,677,o),
(349,693,o),
(357,710,c),
(357,712,l),
(354,725,o),
(346,732,o),
(332,735,c),
(329,735,l),
(332,746,o),
(332,757,o),
(332,771,c),
(339,775,o),
(344,788,o),
(344,801,cs),
(344,803,o),
(344,806,o),
(343,809,c),
(346,809,l),
(354,824,o),
(360,841,o),
(365,861,c),
(365,863,o),
(365,863,o),
(363,863,c),
(360,870,o),
(360,876,o),
(360,880,cs),
(360,883,l),
(354,890,o),
(349,895,o),
(343,900,c)
);
},
{
closed = 1;
nodes = (
(454,846,l),
(443,834,o),
(431,824,o),
(418,814,c),
(418,811,l),
(409,779,o),
(401,757,o),
(390,725,c),
(390,722,o),
(390,722,o),
(393,722,c),
(393,697,l),
(396,697,l),
(404,689,o),
(413,684,o),
(423,684,cs),
(438,684,o),
(448,690,o),
(448,707,c),
(451,736,o),
(459,755,o),
(473,779,c),
(473,782,l),
(478,799,o),
(478,814,o),
(478,829,cs),
(478,831,l),
(473,839,o),
(467,844,o),
(456,846,c)
);
},
{
closed = 1;
nodes = (
(54,277,l),
(51,264,o),
(48,250,o),
(46,233,cs),
(46,225,o),
(46,220,o),
(48,214,c),
(46,187,o),
(46,162,o),
(46,131,c),
(48,129,o),
(48,123,o),
(51,120,c),
(62,27,o),
(106,-29,o),
(186,-48,cs),
(195,-51,o),
(205,-52,o),
(214,-52,cs),
(235,-52,o),
(255,-46,o),
(272,-34,cs),
(294,-20,o),
(313,-4,o),
(329,16,cs),
(357,46,o),
(385,73,o),
(412,104,c),
(420,120,o),
(429,131,o),
(440,148,c),
(440,153,o),
(443,159,o),
(445,162,c),
(448,173,o),
(456,178,o),
(467,187,c),
(489,220,o),
(506,258,o),
(514,302,c),
(528,339,o),
(534,375,o),
(534,413,cs),
(534,434,o),
(532,457,o),
(528,479,c),
(522,487,o),
(520,492,o),
(514,498,c),
(511,506,o),
(511,514,o),
(509,523,c),
(500,537,o),
(495,553,o),
(492,575,c),
(487,586,o),
(481,597,o),
(476,611,c),
(474,610,o),
(472,609,o),
(469,609,cs),
(462,609,o),
(456,617,o),
(454,628,c),
(437,628,o),
(426,622,o),
(415,603,c),
(414,598,o),
(413,592,o),
(413,585,cs),
(413,578,o),
(414,571,o),
(415,564,c),
(423,559,o),
(434,550,o),
(443,548,c),
(445,539,o),
(448,531,o),
(451,525,cs),
(476,484,o),
(487,440,o),
(487,385,c),
(478,366,l),
(476,346,o),
(473,330,o),
(470,313,c),
(451,261,o),
(429,211,o),
(404,170,c),
(390,159,o),
(382,151,o),
(371,137,cs),
(357,118,o),
(340,98,o),
(321,79,cs),
(294,51,o),
(261,27,o),
(222,7,c),
(167,13,o),
(131,46,o),
(117,104,cs),
(109,136,o),
(106,169,o),
(106,204,cs),
(106,225,o),
(107,247,o),
(109,269,c),
(112,277,o),
(112,286,o),
(112,291,cs),
(112,324,o),
(120,355,o),
(131,385,c),
(137,415,o),
(142,446,o),
(156,476,c),
(170,534,o),
(178,586,o),
(183,639,c),
(178,644,o),
(172,652,o),
(161,655,c),
(150,650,o),
(142,641,o),
(137,630,c),
(126,625,o),
(120,611,o),
(112,592,c),
(110,575,o),
(103,556,o),
(101,534,cs),
(98,495,o),
(93,462,o),
(87,429,c),
(79,421,o),
(75,409,o),
(75,394,cs),
(75,389,o),
(75,384,o),
(76,379,c),
(73,377,o),
(73,374,o),
(70,374,c),
(64,361,o),
(61,349,o),
(61,335,cs),
(61,330,o),
(61,325,o),
(62,319,c),
(59,313,o),
(57,305,o),
(54,291,c)
);
}
);
width = 571;
}
);
note = Udieresis;
unicode = 220;
},
{
glyphname = Ugrave;
lastChange = "2023-01-15 20:34:47 +0000";
layers = (
{
hints = (
{
horizontal = 1;
place = (-19, 47);
place = (-19, 47);
type = Stem;
},
{
place = (63, 63);
place = (63, 63);
type = Stem;
},
{
place = (412, 45);
place = (412, 45);
type = Stem;
}
);
layerId = m01;
shapes = (
{
closed = 1;
nodes = (
(407,709,l),
(407,711,l),
(415,713,o),
(418,717,o),
(418,725,cs),
(418,735,o),
(414,750,o),
(404,756,cs),
(394,761,o),
(381,765,o),
(371,772,cs),
(353,784,o),
(335,803,o),
(319,819,cs),
(298,839,o),
(235,891,o),
(209,899,c),
(206,899,l),
(193,891,o),
(181,882,o),
(170,871,c),
(173,863,o),
(183,835,o),
(189,830,cs),
(226,799,o),
(284,740,o),
(330,725,cs),
(346,720,o),
(359,720,o),
(374,709,c)
);
},
{
closed = 1;
nodes = (
(393,589,o),
(409,544,o),
(413,535,c),
(410,535,o),
(409,534,o),
(409,532,cs),
(409,530,o),
(410,528,o),
(410,527,cs),
(411,520,o),
(412,513,o),
(412,506,cs),
(412,479,o),
(403,451,o),
(402,425,cs),
(400,385,o),
(401,356,o),
(385,317,cs),
(376,294,o),
(368,272,o),
(365,247,cs),
(364,239,o),
(365,228,o),
(363,221,cs),
(356,191,o),
(320,151,o),
(305,124,cs),
(300,114,o),
(298,96,o),
(285,89,c),
(270,76,o),
(261,60,o),
(247,47,cs),
(239,39,o),
(204,28,o),
(191,28,cs),
(179,28,o),
(164,41,o),
(156,50,c),
(125,93,o),
(118,156,o),
(118,218,cs),
(118,265,o),
(122,311,o),
(123,348,cs),
(124,377,o),
(126,407,o),
(126,437,cs),
(126,448,o),
(125,459,o),
(125,470,cs),
(125,490,o),
(123,512,o),
(123,532,cs),
(123,541,o),
(127,542,o),
(129,549,cs),
(130,553,o),
(131,562,o),
(131,573,cs),
(131,595,o),
(129,624,o),
(126,632,cs),
(122,642,o),
(112,648,o),
(101,648,c),
(92,639,o),
(84,631,o),
(74,623,c),
(69,591,o),
(60,531,o),
(60,493,cs),
(60,474,o),
(63,463,o),
(63,447,cs),
(63,359,o),
(64,270,o),
(60,182,c),
(64,182,o),
(65,177,o),
(65,170,cs),
(65,161,o),
(63,149,o),
(63,143,cs),
(63,109,o),
(77,37,o),
(101,11,cs),
(112,0,o),
(123,-5,o),
(131,-19,c),
(152,-28,o),
(173,-33,o),
(194,-33,cs),
(214,-33,o),
(234,-29,o),
(253,-19,c),
(259,-13,o),
(271,2,o),
(280,3,c),
(308,26,o),
(316,60,o),
(344,83,c),
(350,107,o),
(360,96,o),
(369,133,c),
(378,142,o),
(386,153,o),
(393,163,c),
(393,174,o),
(398,184,o),
(407,191,c),
(410,215,o),
(418,239,o),
(426,262,cs),
(443,307,o),
(449,348,o),
(457,395,cs),
(463,432,o),
(470,472,o),
(470,511,cs),
(470,538,o),
(467,566,o),
(457,590,cs),
(452,602,o),
(436,616,o),
(422,616,cs),
(420,616,o),
(417,616,o),
(415,615,cs),
(411,614,o),
(399,599,o),
(393,596,c)
);
}
);
width = 500;
}
);
note = Ugrave;
unicode = 217;
},
{
glyphname = V;
lastChange = "2023-01-15 02:08:54 +0000";
layers = (
{
hints = (
{
horizontal = 1;
place = (-19, 21);
target = up;
type = BottomGhost;
},
{
horizontal = 1;
place = (515, 56);
place = (515, 56);
type = Stem;
},
{
place = (98, 57);
place = (98, 57);
type = Stem;
},
{
horizontal = 1;
place = (-25, 21);
target = up;
type = BottomGhost;
}
);
layerId = m01;
shapes = (
{
closed = 1;
nodes = (
(456,518,l),
(461,529,o),
(464,540,o),
(467,551,c),
(464,557,o),
(464,565,o),
(458,568,c),
(456,571,o),
(453,571,o),
(450,571,cs),
(442,571,o),
(433,573,o),
(425,579,c),
(417,576,o),
(409,573,o),
(406,565,c),
(403,562,o),
(403,560,o),
(400,557,c),
(384,529,o),
(366,502,o),
(348,474,cs),
(323,436,o),
(304,394,o),
(287,347,c),
(276,342,o),
(271,331,o),
(271,312,cs),
(271,309,o),
(268,303,o),
(263,301,c),
(263,295,o),
(263,287,o),
(260,281,cs),
(257,276,o),
(254,273,o),
(249,267,c),
(246,251,o),
(241,237,o),
(232,226,c),
(227,212,o),
(221,198,o),
(213,176,c),
(205,143,o),
(191,119,o),
(169,97,c),
(161,165,o),
(155,234,o),
(155,301,c),
(152,334,o),
(147,372,o),
(139,419,cs),
(133,466,o),
(125,504,o),
(117,535,cs),
(114,546,o),
(108,560,o),
(103,573,c),
(92,576,o),
(83,576,o),
(72,576,c),
(64,568,o),
(59,560,o),
(50,551,c),
(50,526,o),
(56,510,o),
(64,494,c),
(64,483,o),
(64,474,o),
(72,466,c),
(71,459,o),
(70,451,o),
(70,444,cs),
(70,424,o),
(76,406,o),
(86,389,c),
(84,385,o),
(82,381,o),
(82,376,cs),
(82,374,o),
(83,372,o),
(83,369,cs),
(86,347,o),
(92,325,o),
(94,301,cs),
(97,267,o),
(100,240,o),
(103,212,cs),
(103,207,o),
(103,204,o),
(100,198,c),
(99,191,o),
(98,185,o),
(98,178,cs),
(98,167,o),
(100,156,o),
(106,143,c),
(105,137,o),
(104,131,o),
(104,124,cs),
(104,114,o),
(106,103,o),
(111,91,c),
(112,74,o),
(113,55,o),
(117,36,cs),
(121,14,o),
(131,-5,o),
(147,-19,c),
(153,-19,o),
(166,-25,o),
(169,-25,cs),
(177,-25,o),
(186,-19,o),
(191,-8,cs),
(205,22,o),
(213,55,o),
(219,88,c),
(227,97,o),
(232,105,o),
(241,116,c),
(249,146,o),
(260,174,o),
(274,198,c),
(287,226,o),
(298,254,o),
(307,284,c),
(331,339,o),
(359,397,o),
(395,452,c),
(406,460,o),
(411,474,o),
(414,491,c),
(422,504,o),
(436,515,o),
(456,515,c)
);
}
);
width = 397;
}
);
note = V;
unicode = 86;
},
{
glyphname = W;
lastChange = "2023-01-15 02:08:54 +0000";
layers = (
{
hints = (
{
horizontal = 1;
place = (-45, 602);
place = (-45, 602);
type = Stem;
},
{
place = (93, 58);
place = (93, 58);
type = Stem;
},
{
place = (556, 102);
place = (556, 102);
type = Stem;
},
{
place = (68, 57);
place = (68, 57);
type = Stem;
}
);
layerId = m01;
shapes = (
{
closed = 1;
nodes = (
(572,533,o),
(564,522,o),
(556,509,c),
(556,476,o),
(556,440,o),
(550,398,c),
(548,365,o),
(542,332,o),
(531,299,c),
(531,294,o),
(528,291,o),
(523,285,c),
(517,266,o),
(512,247,o),
(509,228,c),
(498,211,o),
(490,197,o),
(481,181,c),
(476,161,o),
(465,148,o),
(454,134,c),
(451,128,o),
(451,120,o),
(445,115,c),
(442,111,o),
(438,109,o),
(434,109,cs),
(432,109,o),
(429,110,o),
(426,112,c),
(423,120,o),
(418,134,o),
(410,145,c),
(404,228,o),
(393,302,o),
(379,371,c),
(371,382,o),
(363,387,o),
(349,390,c),
(341,390,o),
(332,382,o),
(330,368,c),
(327,365,o),
(324,363,o),
(319,360,c),
(313,346,o),
(308,332,o),
(302,316,c),
(294,305,o),
(283,291,o),
(275,277,c),
(261,241,o),
(244,205,o),
(225,172,c),
(225,167,o),
(219,167,o),
(214,164,c),
(197,137,o),
(184,109,o),
(170,79,c),
(156,68,o),
(142,57,o),
(129,43,c),
(126,63,o),
(125,83,o),
(125,103,cs),
(125,145,o),
(131,190,o),
(140,236,c),
(140,241,o),
(137,244,o),
(137,250,c),
(147,288,o),
(152,328,o),
(152,366,cs),
(152,372,o),
(151,379,o),
(151,385,c),
(155,411,o),
(157,437,o),
(157,463,cs),
(157,489,o),
(155,514,o),
(151,539,c),
(142,548,o),
(134,554,o),
(125,554,cs),
(123,554,o),
(120,554,o),
(118,553,cs),
(104,547,o),
(96,539,o),
(93,522,c),
(96,505,o),
(98,489,o),
(98,472,cs),
(98,458,o),
(97,444,o),
(93,429,c),
(98,415,o),
(101,404,o),
(101,387,cs),
(101,371,o),
(101,360,o),
(96,354,c),
(98,343,o),
(104,335,o),
(109,330,c),
(100,326,o),
(96,321,o),
(96,314,cs),
(96,312,o),
(97,308,o),
(98,305,c),
(98,299,o),
(96,285,o),
(90,272,c),
(90,263,o),
(90,255,o),
(87,244,cs),
(82,232,o),
(79,219,o),
(79,207,cs),
(79,195,o),
(82,183,o),
(87,172,c),
(79,167,o),
(79,159,o),
(79,150,c),
(73,126,o),
(68,103,o),
(68,84,cs),
(68,65,o),
(71,46,o),
(71,21,cs),
(73,-1,o),
(76,-20,o),
(90,-37,c),
(92,-37,ls),
(99,-37,o),
(120,-45,o),
(120,-45,c),
(134,-37,o),
(146,-23,o),
(159,-7,cs),
(170,7,o),
(178,26,o),
(189,43,cs),
(192,48,o),
(195,48,o),
(200,54,c),
(247,126,o),
(294,197,o),
(335,263,c),
(338,255,o),
(338,244,o),
(338,233,c),
(341,230,o),
(341,225,o),
(343,219,c),
(343,208,o),
(343,197,o),
(349,186,c),
(346,180,o),
(344,173,o),
(344,166,cs),
(344,161,o),
(345,156,o),
(346,150,cs),
(349,139,o),
(352,128,o),
(355,115,cs),
(366,71,o),
(390,43,o),
(434,32,c),
(490,73,o),
(528,131,o),
(548,205,c),
(586,280,o),
(608,368,o),
(611,465,c),
(614,476,o),
(616,487,o),
(622,495,cs),
(625,498,o),
(630,501,o),
(638,503,c),
(644,512,o),
(649,522,o),
(658,533,c),
(659,535,o),
(659,537,o),
(659,539,cs),
(659,543,o),
(658,546,o),
(658,550,c),
(656,549,o),
(655,549,o),
(654,549,cs),
(652,549,o),
(651,551,o),
(647,553,c),
(637,555,o),
(628,557,o),
(618,557,cs),
(605,557,o),
(592,555,o),
(578,550,c)
);
}
);
width = 609;
}
);
note = W;
unicode = 87;
},
{
glyphname = X;
lastChange = "2023-01-15 02:08:54 +0000";
layers = (
{
hints = (
{
horizontal = 1;
place = (-23, 21);
target = up;
type = BottomGhost;
},
{
place = (27, 497);
place = (27, 497);
type = Stem;
}
);
layerId = m01;
shapes = (
{
closed = 1;
nodes = (
(27,10,ls),
(30,-9,o),
(38,-17,o),
(61,-23,c),
(69,-23,o),
(77,-17,o),
(83,-9,c),
(99,19,o),
(118,46,o),
(138,74,c),
(138,76,o),
(140,79,o),
(146,85,cs),
(171,110,o),
(190,143,o),
(212,176,c),
(234,200,o),
(256,220,o),
(281,242,c),
(306,198,o),
(328,151,o),
(345,99,c),
(358,46,o),
(383,-1,o),
(416,-36,c),
(427,-39,o),
(433,-39,o),
(441,-39,c),
(449,-36,o),
(455,-31,o),
(460,-23,c),
(460,-9,o),
(460,5,o),
(457,16,c),
(457,15,o),
(456,15,o),
(455,15,cs),
(454,15,o),
(452,17,o),
(452,19,c),
(441,41,o),
(433,65,o),
(424,90,c),
(402,170,o),
(375,245,o),
(345,316,c),
(350,325,o),
(356,336,o),
(361,344,c),
(378,352,o),
(391,360,o),
(402,371,c),
(433,410,o),
(468,443,o),
(510,471,c),
(515,476,o),
(521,485,o),
(524,498,c),
(524,509,o),
(515,517,o),
(504,520,c),
(490,517,o),
(482,512,o),
(471,501,cs),
(468,498,o),
(460,496,o),
(455,493,c),
(438,476,o),
(422,460,o),
(402,443,cs),
(383,429,o),
(367,410,o),
(356,388,c),
(339,382,o),
(331,374,o),
(322,369,c),
(303,396,o),
(292,424,o),
(284,454,c),
(267,473,o),
(254,496,o),
(240,517,c),
(229,540,o),
(209,559,o),
(185,570,c),
(165,567,o),
(154,556,o),
(146,540,c),
(152,512,o),
(160,493,o),
(171,476,c),
(185,460,o),
(193,440,o),
(193,418,c),
(196,418,o),
(196,416,o),
(198,416,c),
(212,391,o),
(226,369,o),
(243,341,c),
(245,327,o),
(251,314,o),
(259,300,c),
(260,299,o),
(260,297,o),
(260,296,cs),
(260,292,o),
(257,288,o),
(251,286,c),
(252,285,o),
(252,283,o),
(252,282,cs),
(252,275,o),
(247,268,o),
(243,261,c),
(201,223,o),
(163,184,o),
(124,143,c),
(113,112,o),
(94,93,o),
(66,74,c),
(52,55,o),
(41,35,o),
(27,13,c)
);
}
);
width = 500;
}
);
note = X;
unicode = 88;
},
{
glyphname = Y;
lastChange = "2023-01-15 02:08:54 +0000";
layers = (
{
hints = (
{
horizontal = 1;
place = (-25, 21);
target = up;
type = BottomGhost;
},
{
place = (445, 66);
place = (445, 66);
type = Stem;
}
);
layerId = m01;
shapes = (
{
closed = 1;
nodes = (
(486,579,ls),
(478,579,o),
(467,576,o),
(456,570,cs),
(447,565,o),
(445,554,o),
(445,540,c),
(414,507,o),
(387,471,o),
(359,433,c),
(351,427,o),
(343,419,o),
(337,408,c),
(315,383,o),
(287,358,o),
(254,339,c),
(235,375,o),
(216,411,o),
(196,444,c),
(188,474,o),
(177,499,o),
(166,526,c),
(166,529,o),
(163,534,o),
(161,537,c),
(150,568,o),
(133,595,o),
(111,620,c),
(100,617,o),
(92,617,o),
(86,614,c),
(67,592,l),
(78,537,o),
(97,488,o),
(125,446,c),
(133,430,o),
(139,408,o),
(147,386,c),
(163,353,o),
(183,317,o),
(202,284,c),
(199,278,o),
(199,267,o),
(199,251,c),
(196,245,o),
(194,242,o),
(194,237,c),
(191,217,l),
(180,195,o),
(172,168,o),
(169,132,cs),
(169,127,o),
(163,124,o),
(161,118,cs),
(152,80,o),
(144,41,o),
(136,8,c),
(141,-8,o),
(152,-19,o),
(169,-25,c),
(183,-22,o),
(191,-17,o),
(199,-3,c),
(202,22,o),
(205,55,o),
(210,88,c),
(232,146,o),
(249,206,o),
(265,267,c),
(307,303,o),
(345,342,o),
(378,386,c),
(398,402,o),
(414,422,o),
(428,446,c),
(458,471,o),
(483,499,o),
(508,532,c),
(511,540,o),
(511,551,o),
(511,565,c),
(505,570,o),
(497,576,o),
(489,579,c)
);
}
);
width = 500;
}
);
note = Y;
unicode = 89;
},
{
glyphname = Yacute;
lastChange = "2023-01-15 20:35:17 +0000";
layers = (
{
hints = (
{
horizontal = 1;
place = (885, 69);
place = (885, 69);
type = Stem;
},
{
place = (230, 61);
place = (230, 61);
type = Stem;
},
{
place = (404, 67);
place = (404, 67);
type = Stem;
}
);
layerId = m01;
shapes = (
{
closed = 1;
nodes = (
(322,793,l),
(305,777,o),
(291,759,o),
(275,742,c),
(271,742,o),
(264,739,o),
(261,738,c),
(253,725,o),
(243,713,o),
(231,705,c),
(231,702,ls),
(231,690,o),
(244,675,o),
(259,675,cs),
(261,675,l),
(319,722,o),
(376,772,o),
(429,823,c),
(474,823,o),
(467,837,o),
(471,865,c),
(461,879,o),
(451,885,o),
(440,885,cs),
(429,885,o),
(417,880,o),
(404,871,c),
(404,863,o),
(401,854,o),
(396,848,c),
(365,836,o),
(353,806,o),
(322,795,c)
);
},
{
closed = 1;
nodes = (
(54,673,l),
(49,679,o),
(41,684,o),
(32,684,c),
(13,672,o),
(5,653,o),
(5,632,cs),
(5,600,o),
(21,565,o),
(38,543,c),
(47,478,o),
(95,433,o),
(115,373,cs),
(133,319,o),
(178,277,o),
(231,260,c),
(230,258,o),
(230,256,o),
(230,254,cs),
(230,249,o),
(233,244,o),
(236,240,c),
(217,207,o),
(210,-44,o),
(203,-55,c),
(205,-59,o),
(206,-64,o),
(209,-68,c),
(219,-68,o),
(226,-77,o),
(231,-85,c),
(242,-85,o),
(252,-79,o),
(261,-74,c),
(264,-53,o),
(267,-32,o),
(267,-11,cs),
(267,15,ls),
(267,90,o),
(275,158,o),
(289,232,cs),
(291,242,o),
(291,251,o),
(291,259,cs),
(291,269,ls),
(291,287,o),
(293,302,o),
(314,323,c),
(314,326,ls),
(314,344,o),
(325,344,o),
(336,356,cs),
(380,404,o),
(402,475,o),
(440,527,cs),
(470,567,o),
(484,584,o),
(484,637,c),
(476,652,o),
(462,654,o),
(446,654,c),
(417,624,o),
(433,614,o),
(418,585,cs),
(407,563,o),
(300,391,o),
(289,381,cs),
(270,363,o),
(261,376,o),
(250,337,c),
(244,334,o),
(239,330,o),
(234,326,c),
(172,364,o),
(92,598,o),
(57,673,c)
);
}
);
width = 500;
}
);
note = Yacute;
unicode = 221;
},
{
glyphname = Ydieresis;
lastChange = "2023-01-15 02:08:54 +0000";
layers = (
{
hints = (
{
horizontal = 1;
place = (-104, 943);
place = (-104, 943);
type = Stem;
},
{
place = (193.5, 59.5);
place = (193.5, 59.5);
type = Stem;
},
{
place = (153, 105);
place = (153, 105);
type = Stem;
},
{
place = (184, 51);
place = (184, 51);
type = Stem;
}
);
layerId = m01;
shapes = (
{
closed = 1;
nodes = (
(443,776,ls),
(443,787,o),
(440,798,o),
(437,806,c),
(434,806,l),
(421,822,o),
(401,831,o),
(377,839,c),
(374,839,l),
(352,825,o),
(335,806,o),
(330,776,c),
(330,773,ls),
(330,759,o),
(332,748,o),
(335,737,c),
(335,734,l),
(352,718,l),
(352,715,l),
(356,716,o),
(360,716,o),
(364,716,cs),
(373,716,o),
(381,714,o),
(390,712,c),
(415,729,o),
(432,748,o),
(443,773,c)
);
},
{
closed = 1;
nodes = (
(148,776,l),
(153,767,o),
(153,754,o),
(153,740,c),
(156,740,l),
(170,720,o),
(192,712,o),
(219,707,c),
(219,709,l),
(228,718,o),
(239,726,o),
(250,731,c),
(250,734,l),
(255,747,o),
(258,761,o),
(258,774,cs),
(258,781,o),
(257,788,o),
(255,795,c),
(255,798,l),
(246,817,o),
(228,827,o),
(206,827,cs),
(201,827,o),
(195,826,o),
(189,825,c),
(170,814,o),
(159,798,o),
(148,778,c)
);
},
{
closed = 1;
nodes = (
(522,678,o),
(523,682,o),
(523,685,cs),
(523,689,o),
(521,692,o),
(517,696,c),
(512,693,o),
(509,693,o),
(503,690,c),
(487,679,o),
(473,668,o),
(459,652,cs),
(448,639,o),
(445,627,o),
(443,616,c),
(429,605,o),
(415,594,o),
(404,580,c),
(388,555,o),
(371,533,o),
(352,511,c),
(316,448,o),
(275,390,o),
(219,346,c),
(173,404,o),
(134,470,o),
(101,544,c),
(93,569,o),
(76,588,o),
(57,608,c),
(43,630,o),
(26,649,o),
(2,665,c),
(-9,654,o),
(-18,643,o),
(-26,630,c),
(-7,583,o),
(18,544,o),
(48,508,c),
(51,503,o),
(54,495,o),
(59,483,cs),
(70,461,o),
(82,437,o),
(90,412,c),
(117,359,o),
(150,315,o),
(189,274,c),
(189,266,o),
(192,257,o),
(195,252,c),
(195,213,o),
(192,178,o),
(192,139,c),
(186,95,o),
(184,56,o),
(184,20,c),
(181,7,o),
(181,-4,o),
(178,-15,c),
(178,-27,ls),
(178,-53,o),
(186,-76,o),
(200,-98,c),
(205,-95,o),
(210,-94,o),
(214,-94,cs),
(221,-94,o),
(226,-97,o),
(233,-104,c),
(247,-98,o),
(255,-84,o),
(258,-68,c),
(255,-60,o),
(253,-51,o),
(247,-46,c),
(241,-28,o),
(235,-8,o),
(235,14,cs),
(235,19,o),
(236,24,o),
(236,29,cs),
(239,67,o),
(241,103,o),
(247,136,cs),
(253,158,o),
(253,183,o),
(253,208,cs),
(253,238,o),
(255,268,o),
(261,296,c),
(266,301,o),
(272,310,o),
(275,321,c),
(277,324,o),
(280,324,o),
(286,329,c),
(291,337,o),
(294,346,o),
(297,354,c),
(324,379,o),
(344,412,o),
(363,448,c),
(388,467,o),
(404,489,o),
(418,519,c),
(437,533,o),
(448,552,o),
(456,574,c),
(462,574,o),
(467,574,o),
(470,580,cs),
(481,599,o),
(498,616,o),
(523,627,c),
(528,632,o),
(534,641,o),
(539,649,c),
(534,660,o),
(528,668,o),
(520,674,c)
);
}
);
width = 500;
}
);
note = Ydieresis;
unicode = 376;
},
{
glyphname = Z;
lastChange = "2023-01-15 02:08:54 +0000";
layers = (
{
hints = (
{
horizontal = 1;
place = (113, 60);
place = (113, 60);
type = Stem;
},
{
horizontal = 1;
place = (518, 72);
place = (518, 72);
type = Stem;
},
{
place = (0, 625);
place = (0, 625);
type = Stem;
}
);
layerId = m01;
shapes = (
{
closed = 1;
nodes = (
(609,115,o),
(617,124,o),
(625,138,c),
(620,146,o),
(617,154,o),
(614,162,c),
(609,162,o),
(606,165,o),
(600,171,c),
(564,176,o),
(531,176,o),
(501,176,c),
(471,173,o),
(440,173,o),
(407,173,c),
(388,171,o),
(366,168,o),
(344,160,c),
(342,161,o),
(339,161,o),
(337,161,cs),
(329,161,o),
(323,158,o),
(316,151,c),
(303,152,o),
(290,153,o),
(277,153,cs),
(260,153,o),
(244,152,o),
(228,149,cs),
(198,144,o),
(168,132,o),
(137,118,c),
(133,120,o),
(129,120,o),
(123,120,cs),
(117,120,o),
(110,120,o),
(101,118,c),
(112,135,o),
(123,154,o),
(137,171,c),
(154,187,o),
(168,204,o),
(179,223,c),
(187,231,o),
(201,239,o),
(212,253,cs),
(214,256,o),
(214,262,o),
(220,270,cs),
(236,289,o),
(256,306,o),
(275,325,cs),
(278,328,o),
(278,333,o),
(283,336,c),
(292,350,o),
(303,358,o),
(316,364,c),
(330,380,o),
(347,397,o),
(366,416,c),
(388,430,o),
(405,449,o),
(418,471,c),
(421,471,o),
(427,474,o),
(432,477,c),
(435,485,o),
(443,490,o),
(449,496,c),
(463,501,o),
(471,512,o),
(474,529,c),
(463,551,o),
(443,565,o),
(416,567,c),
(380,573,o),
(349,576,o),
(319,581,cs),
(267,587,o),
(209,590,o),
(143,590,c),
(134,581,o),
(126,576,o),
(121,562,c),
(121,548,l),
(129,538,o),
(143,528,o),
(159,526,cs),
(179,524,o),
(192,521,o),
(206,521,c),
(219,519,o),
(231,518,o),
(244,518,cs),
(264,518,o),
(285,520,o),
(305,524,c),
(311,518,o),
(322,515,o),
(333,510,c),
(337,512,o),
(341,513,o),
(345,513,cs),
(354,513,o),
(363,509,o),
(372,504,c),
(363,490,o),
(352,477,o),
(347,463,c),
(322,444,o),
(297,424,o),
(278,402,c),
(278,394,o),
(275,391,o),
(270,386,c),
(267,386,o),
(261,386,o),
(259,383,c),
(250,377,o),
(239,369,o),
(234,361,c),
(192,319,o),
(156,273,o),
(121,223,c),
(115,220,o),
(110,220,o),
(107,217,c),
(107,212,l),
(104,209,o),
(104,206,o),
(101,206,c),
(101,201,o),
(99,198,o),
(96,195,cs),
(90,187,o),
(85,182,o),
(74,179,c),
(71,173,o),
(71,168,o),
(68,162,c),
(63,160,o),
(60,157,o),
(57,154,c),
(38,124,o),
(19,94,o),
(0,58,c),
(2,38,o),
(13,27,o),
(33,27,c),
(66,41,o),
(99,52,o),
(137,63,cs),
(173,71,o),
(209,83,o),
(247,91,cs),
(267,95,o),
(283,94,o),
(294,96,cs),
(356,108,o),
(419,113,o),
(481,113,cs),
(519,113,o),
(557,111,o),
(595,107,c)
);
}
);
width = 497;
}
);
note = Z;
unicode = 90;
},
{
glyphname = Zcaron;
lastChange = "2023-01-15 02:08:54 +0000";
layers = (
{
hints = (
{
horizontal = 1;
place = (-22, 64);
place = (-22, 64);
type = Stem;
},
{
horizontal = 1;
place = (500, 52);
place = (500, 52);
type = Stem;
},
{
place = (3, 614);
place = (3, 614);
type = Stem;
},
{
horizontal = 1;
place = (-18, 60);
place = (-18, 60);
type = Stem;
},
{
horizontal = 1;
place = (40, 61);
place = (40, 61);
type = Stem;
}
);
layerId = m01;
shapes = (
{
closed = 1;
nodes = (
(521,809,l),
(507,806,l),
(507,803,l),
(494,791,o),
(487,774,o),
(485,756,c),
(479,756,o),
(470,748,o),
(466,745,c),
(466,731,o),
(445,712,o),
(435,707,c),
(427,718,o),
(416,728,o),
(408,740,cs),
(381,775,o),
(365,812,o),
(330,842,c),
(328,842,l),
(318,834,o),
(306,828,o),
(295,822,c),
(295,819,ls),
(295,799,o),
(315,756,o),
(325,740,c),
(330,740,o),
(337,735,o),
(339,731,c),
(365,699,o),
(392,623,o),
(441,621,cs),
(468,621,o),
(471,664,o),
(496,679,c),
(531,779,o),
(591,772,o),
(617,825,c),
(614,837,o),
(607,846,o),
(598,853,c),
(568,848,o),
(541,834,o),
(524,809,c)
);
},
{
closed = 1;
nodes = (
(526,550,o),
(507,554,o),
(496,555,cs),
(481,556,o),
(467,557,o),
(452,557,cs),
(405,557,o),
(357,552,o),
(310,552,cs),
(284,552,o),
(257,554,o),
(231,558,cs),
(220,560,o),
(165,566,o),
(148,566,cs),
(143,566,l),
(132,564,o),
(124,548,o),
(124,537,cs),
(124,533,l),
(127,516,o),
(162,504,o),
(176,503,cs),
(200,501,o),
(226,500,o),
(251,500,cs),
(285,500,o),
(329,495,o),
(363,495,cs),
(377,495,ls),
(392,496,o),
(404,497,o),
(417,497,cs),
(427,497,o),
(437,496,o),
(449,492,c),
(431,477,o),
(413,461,o),
(397,445,c),
(376,441,o),
(376,433,o),
(364,420,cs),
(359,415,o),
(340,410,o),
(339,409,cs),
(294,369,o),
(246,335,o),
(209,288,c),
(208,289,o),
(207,289,o),
(206,289,cs),
(200,289,o),
(191,283,o),
(187,279,cs),
(110,216,o),
(41,106,o),
(3,15,c),
(8,-14,o),
(41,-22,o),
(77,-22,cs),
(105,-22,o),
(135,-17,o),
(151,-13,c),
(157,-15,o),
(168,-18,o),
(174,-18,cs),
(187,-18,o),
(381,30,o),
(388,34,c),
(392,32,o),
(396,31,o),
(401,31,cs),
(409,31,o),
(417,35,o),
(424,40,c),
(457,40,ls),
(483,40,o),
(515,41,o),
(521,51,cs),
(523,55,o),
(524,59,o),
(524,64,cs),
(524,78,o),
(516,93,o),
(507,100,c),
(503,100,o),
(498,101,o),
(492,101,cs),
(420,101,o),
(277,70,o),
(220,48,cs),
(208,43,o),
(181,42,o),
(152,42,cs),
(122,42,o),
(90,44,o),
(74,45,c),
(85,65,o),
(94,85,o),
(102,106,c),
(104,106,o),
(141,149,o),
(149,156,c),
(149,164,o),
(151,172,o),
(154,180,c),
(160,180,o),
(167,185,o),
(171,189,cs),
(193,209,o),
(213,233,o),
(235,254,cs),
(291,306,o),
(350,353,o),
(413,395,cs),
(419,399,o),
(421,403,o),
(424,409,c),
(432,409,o),
(463,431,o),
(474,434,c),
(493,471,o),
(536,474,o),
(562,506,c),
(562,517,o),
(556,528,o),
(548,536,c),
(544,536,ls),
(540,536,o),
(535,537,o),
(532,539,c)
);
}
);
width = 564;
}
);
note = Zcaron;
unicode = 381;
},
{
glyphname = a;
lastChange = "2023-01-15 02:08:54 +0000";
layers = (
{
hints = (
{
horizontal = 1;
place = (418, 54);
place = (418, 54);
type = Stem;
},
{
place = (31, 50);
place = (31, 50);
type = Stem;
},
{
place = (316, 69);
place = (316, 69);
type = Stem;
},
{
place = (359, 49);
place = (359, 49);
type = Stem;
}
);
layerId = m01;
shapes = (
{
closed = 1;
nodes = (
(188,418,o),
(177,401,o),
(169,384,c),
(153,373,o),
(142,362,o),
(128,349,c),
(106,313,o),
(98,297,o),
(74,261,c),
(68,242,o),
(65,228,o),
(63,212,c),
(54,203,o),
(49,195,o),
(46,182,cs),
(41,157,o),
(35,137,o),
(30,110,c),
(32,24,l),
(35,16,o),
(41,5,o),
(46,-6,c),
(63,-23,o),
(87,-34,o),
(115,-39,c),
(137,-34,o),
(154,-28,o),
(170,-20,cs),
(187,-12,o),
(200,-1,o),
(214,10,cs),
(242,32,o),
(264,60,o),
(283,93,c),
(294,101,o),
(302,112,o),
(316,121,c),
(314,88,o),
(314,60,o),
(311,38,c),
(316,32,o),
(322,24,o),
(327,19,cs),
(338,10,o),
(352,8,o),
(371,8,c),
(380,13,o),
(385,21,o),
(391,30,c),
(388,41,o),
(388,52,o),
(385,60,c),
(380,65,o),
(377,71,o),
(374,76,c),
(374,99,o),
(377,115,o),
(385,129,cs),
(388,134,l),
(385,141,o),
(384,148,o),
(384,155,cs),
(384,162,o),
(385,169,o),
(388,176,c),
(399,220,o),
(408,236,o),
(428,272,c),
(433,297,o),
(439,313,o),
(450,329,c),
(450,335,l),
(423,362,l),
(412,357,o),
(404,354,o),
(395,340,c),
(384,310,o),
(375,286,o),
(367,261,c),
(361,258,o),
(364,258,o),
(361,255,c),
(344,225,o),
(330,209,o),
(308,187,c),
(308,184,o),
(308,182,o),
(305,182,c),
(297,168,o),
(283,162,o),
(272,143,c),
(234,90,o),
(181,49,o),
(118,21,c),
(111,20,ls),
(106,20,o),
(102,22,o),
(96,24,c),
(87,32,o),
(85,43,o),
(82,57,cs),
(81,66,o),
(81,75,o),
(81,85,cs),
(81,112,o),
(84,139,o),
(90,167,c),
(101,195,o),
(109,214,o),
(118,247,c),
(120,251,o),
(122,251,o),
(123,251,cs),
(128,251,ls),
(129,251,o),
(130,251,o),
(131,252,c),
(143,282,o),
(144,296,o),
(164,315,c),
(175,329,o),
(188,343,o),
(197,357,c),
(227,393,o),
(268,412,o),
(326,418,c),
(340,412,o),
(351,407,o),
(359,393,c),
(359,379,o),
(365,365,o),
(376,357,c),
(390,357,o),
(398,365,o),
(406,379,c),
(407,385,o),
(408,392,o),
(408,399,cs),
(408,407,o),
(407,417,o),
(404,426,c),
(393,448,o),
(376,462,o),
(348,467,c),
(341,471,o),
(334,472,o),
(327,472,cs),
(317,472,o),
(307,469,o),
(296,464,c),
(293,465,o),
(289,465,o),
(286,465,cs),
(273,465,o),
(260,460,o),
(249,453,cs),
(235,442,o),
(222,434,o),
(208,426,c)
);
}
);
width = 482;
}
);
note = a;
unicode = 97;
},
{
glyphname = aacute;
lastChange = "2023-01-15 02:08:54 +0000";
layers = (
{
hints = (
{
horizontal = 1;
place = (-12, 21);
target = up;
type = BottomGhost;
},
{
horizontal = 1;
place = (403, 48);
place = (403, 48);
type = Stem;
},
{
place = (61, 52);
place = (61, 52);
type = Stem;
},
{
place = (325, 61);
place = (325, 61);
type = Stem;
},
{
horizontal = 1;
place = (-15, 21);
target = up;
type = BottomGhost;
},
{
horizontal = 1;
place = (-12, 57);
place = (-12, 57);
type = Stem;
},
{
place = (342, 43);
place = (342, 43);
type = Stem;
}
);
layerId = m01;
shapes = (
{
closed = 1;
nodes = (
(280,612,ls),
(268,612,o),
(249,591,o),
(243,582,c),
(243,580,ls),
(243,568,o),
(256,552,o),
(269,552,cs),
(271,552,l),
(305,580,o),
(337,610,o),
(367,643,c),
(367,646,l),
(391,657,o),
(412,673,o),
(430,692,c),
(439,694,o),
(449,697,o),
(455,703,c),
(457,703,ls),
(464,703,o),
(466,716,o),
(466,720,c),
(467,720,o),
(516,728,o),
(527,728,c),
(527,731,l),
(534,741,o),
(537,749,o),
(537,757,cs),
(537,769,o),
(529,780,o),
(513,791,c),
(510,791,l),
(450,780,o),
(383,728,o),
(348,678,c),
(347,678,o),
(347,679,o),
(346,679,c),
(345,678,l),
(320,671,o),
(292,635,o),
(282,612,c)
);
},
{
closed = 1;
nodes = (
(198,375,ls),
(194,375,o),
(180,366,o),
(177,364,cs),
(167,358,o),
(116,265,o),
(116,252,c),
(108,246,o),
(102,237,o),
(97,229,c),
(97,223,o),
(98,217,o),
(98,213,cs),
(98,208,o),
(96,203,o),
(89,196,c),
(90,194,o),
(90,193,o),
(90,191,cs),
(90,182,o),
(84,175,o),
(78,169,c),
(75,152,o),
(70,136,o),
(61,122,c),
(61,101,o),
(60,63,o),
(64,45,cs),
(71,11,o),
(114,-12,o),
(148,-12,cs),
(185,-12,o),
(239,26,o),
(262,59,cs),
(270,69,o),
(274,82,o),
(282,91,cs),
(285,95,o),
(292,99,o),
(296,103,cs),
(307,113,o),
(317,125,o),
(326,138,c),
(326,133,o),
(325,126,o),
(325,119,cs),
(325,83,o),
(332,30,o),
(348,9,cs),
(353,2,o),
(362,-3,o),
(367,-11,c),
(371,-12,o),
(386,-15,o),
(395,-15,cs),
(399,-15,o),
(402,-14,o),
(403,-13,cs),
(417,-2,o),
(442,13,o),
(442,33,cs),
(442,37,o),
(441,41,o),
(439,45,c),
(425,53,o),
(410,55,o),
(395,58,c),
(390,85,o),
(386,119,o),
(386,153,cs),
(386,193,o),
(391,234,o),
(403,265,cs),
(405,270,o),
(409,274,o),
(411,279,cs),
(415,288,o),
(417,310,o),
(417,320,c),
(409,323,o),
(403,328,o),
(397,334,c),
(387,334,o),
(375,330,o),
(370,320,cs),
(364,308,o),
(359,294,o),
(354,282,cs),
(339,247,o),
(310,190,o),
(284,163,cs),
(281,160,o),
(277,158,o),
(273,155,c),
(261,142,o),
(256,124,o),
(246,111,cs),
(240,103,o),
(202,71,o),
(192,61,c),
(190,60,o),
(184,53,o),
(182,53,c),
(181,52,o),
(143,45,o),
(138,45,c),
(120,65,o),
(113,81,o),
(113,101,cs),
(113,112,o),
(115,124,o),
(119,138,cs),
(129,172,o),
(137,205,o),
(152,237,c),
(161,244,o),
(164,250,o),
(169,260,cs),
(178,280,o),
(201,316,o),
(218,331,cs),
(229,341,o),
(234,350,o),
(243,361,cs),
(252,372,o),
(266,383,o),
(276,392,cs),
(285,400,o),
(297,403,o),
(309,403,cs),
(316,403,o),
(323,402,o),
(329,400,c),
(335,391,o),
(340,381,o),
(342,370,c),
(347,369,o),
(351,369,o),
(356,369,cs),
(365,369,o),
(374,371,o),
(381,375,c),
(384,383,o),
(385,391,o),
(385,400,cs),
(385,422,o),
(375,443,o),
(351,447,cs),
(337,449,o),
(324,451,o),
(311,451,cs),
(277,451,o),
(249,440,o),
(226,403,c),
(211,400,o),
(202,390,o),
(199,375,c)
);
}
);
width = 500;
}
);
note = aacute;
unicode = 225;
},
{
glyphname = acircumflex;
lastChange = "2023-01-15 02:08:54 +0000";
layers = (
{
hints = (
{
horizontal = 1;
place = (4, 64);
place = (4, 64);
type = Stem;
},
{
horizontal = 1;
place = (398, 54);
place = (398, 54);
type = Stem;
},
{
place = (70, 52);
place = (70, 52);
type = Stem;
},
{
place = (301, 58);
place = (301, 58);
type = Stem;
},
{
place = (118, 35.49);
place = (118, 35.49);
type = Stem;
},
{
place = (340, 53);
place = (340, 53);
type = Stem;
}
);
layerId = m01;
shapes = (
{
closed = 1;
nodes = (
(202,589,l),
(202,585,ls),
(202,572,o),
(207,556,o),
(221,553,c),
(223,553,ls),
(246,553,o),
(288,607,o),
(304,622,cs),
(331,647,o),
(350,673,o),
(370,704,c),
(373,704,l),
(386,712,o),
(399,720,o),
(411,729,c),
(411,726,l),
(427,704,o),
(435,678,o),
(442,652,c),
(444,652,l),
(467,624,o),
(495,602,o),
(524,583,c),
(527,583,ls),
(542,583,o),
(555,607,o),
(555,619,c),
(549,628,o),
(544,638,o),
(544,649,c),
(515,681,o),
(496,719,o),
(483,759,cs),
(476,782,o),
(466,804,o),
(447,820,c),
(434,818,o),
(421,814,o),
(411,804,cs),
(382,776,o),
(350,749,o),
(326,715,c),
(323,715,l),
(309,707,o),
(301,692,o),
(296,677,c),
(278,669,o),
(238,643,o),
(238,619,cs),
(238,616,l),
(224,611,o),
(212,602,o),
(202,591,c)
);
},
{
closed = 1;
nodes = (
(118,268,o),
(118,267,o),
(118,266,cs),
(118,263,o),
(116,258,o),
(114,255,cs),
(97,223,o),
(92,199,o),
(83,164,cs),
(76,133,o),
(70,112,o),
(70,90,cs),
(70,75,o),
(73,59,o),
(78,37,c),
(88,28,o),
(120,6,o),
(133,4,cs),
(136,4,ls),
(160,4,o),
(217,32,o),
(235,46,cs),
(261,67,o),
(282,93,o),
(307,115,c),
(308,110,o),
(308,105,o),
(308,100,cs),
(308,75,o),
(301,46,o),
(301,20,cs),
(301,-6,o),
(308,-29,o),
(334,-45,c),
(349,-45,o),
(364,-52,o),
(378,-56,c),
(397,-50,o),
(420,-26,o),
(420,-5,cs),
(420,4,o),
(416,12,o),
(406,18,c),
(392,15,o),
(379,13,o),
(365,13,c),
(361,32,o),
(359,50,o),
(359,68,cs),
(359,87,o),
(361,107,o),
(367,126,cs),
(377,159,o),
(383,198,o),
(395,230,cs),
(402,250,o),
(416,271,o),
(428,288,c),
(428,312,o),
(439,310,o),
(439,334,cs),
(439,340,l),
(439,346,l),
(431,352,o),
(424,361,o),
(417,368,c),
(415,368,o),
(407,369,o),
(406,365,c),
(396,359,o),
(393,351,o),
(389,340,cs),
(381,315,o),
(369,291,o),
(353,270,cs),
(348,264,o),
(341,258,o),
(337,252,cs),
(328,239,o),
(321,224,o),
(312,211,cs),
(275,156,o),
(229,108,o),
(177,68,c),
(165,68,o),
(158,65,o),
(147,59,c),
(141,63,o),
(134,65,o),
(128,68,c),
(126,77,o),
(120,86,o),
(119,95,c),
(123,96,o),
(122,123,o),
(122,123,c),
(124,139,o),
(130,150,o),
(130,170,c),
(161,201,o),
(146,255,o),
(177,274,c),
(202,329,o),
(241,369,o),
(293,398,c),
(301,395,o),
(312,395,o),
(320,393,c),
(327,386,o),
(335,381,o),
(342,376,c),
(341,372,o),
(340,368,o),
(340,363,cs),
(340,355,o),
(343,346,o),
(351,340,c),
(381,340,o),
(393,357,o),
(393,377,cs),
(393,402,o),
(374,433,o),
(351,445,cs),
(343,450,o),
(322,452,o),
(307,452,cs),
(301,452,o),
(296,452,o),
(293,451,cs),
(256,441,o),
(208,402,o),
(183,372,cs),
(175,363,o),
(169,350,o),
(161,340,c),
(157,337,o),
(153,333,o),
(150,329,cs),
(145,324,o),
(123,279,o),
(117,269,c)
);
}
);
width = 500;
}
);
note = acircumflex;
unicode = 226;
},
{
glyphname = adieresis;
lastChange = "2023-01-15 02:08:54 +0000";
layers = (
{
hints = (
{
horizontal = 1;
place = (-14, 21);
target = up;
type = BottomGhost;
},
{
horizontal = 1;
place = (452, 52);
place = (452, 52);
type = Stem;
},
{
place = (41, 54);
place = (41, 54);
type = Stem;
},
{
place = (335, 59);
place = (335, 59);
type = Stem;
},
{
horizontal = 1;
place = (-19, 21);
target = up;
type = BottomGhost;
},
{
place = (298, 63);
place = (298, 63);
type = Stem;
},
{
place = (422, 63);
place = (422, 63);
type = Stem;
},
{
horizontal = 1;
place = (-25, 21);
target = up;
type = BottomGhost;
},
{
horizontal = 1;
place = (-19, 57);
place = (-19, 57);
type = Stem;
}
);
layerId = m01;
shapes = (
{
closed = 1;
nodes = (
(554,843,l),
(554,846,l),
(549,854,o),
(543,860,o),
(535,863,c),
(521,857,o),
(513,849,o),
(513,840,cs),
(513,838,l),
(491,807,o),
(471,774,o),
(455,741,c),
(455,739,l),
(452,725,o),
(446,714,o),
(438,706,c),
(441,706,l),
(433,675,o),
(427,648,o),
(422,617,c),
(424,606,o),
(430,601,o),
(435,593,c),
(446,587,o),
(458,581,o),
(471,579,c),
(482,590,o),
(485,604,o),
(485,617,cs),
(485,637,o),
(488,651,o),
(493,667,cs),
(502,693,o),
(507,719,o),
(510,747,c),
(513,747,l),
(518,761,o),
(526,769,o),
(535,780,c),
(535,783,l)
);
},
{
closed = 1;
nodes = (
(355,816,l),
(344,769,o),
(328,728,o),
(309,692,c),
(309,678,o),
(306,670,o),
(298,667,c),
(298,656,ls),
(298,650,o),
(300,648,o),
(300,645,c),
(309,637,o),
(314,626,o),
(325,617,c),
(325,615,l),
(344,615,o),
(361,617,o),
(372,623,c),
(372,626,l),
(375,633,o),
(376,639,o),
(376,645,cs),
(376,656,o),
(371,664,o),
(361,670,c),
(366,697,o),
(375,722,o),
(389,744,c),
(400,766,o),
(411,791,o),
(416,818,c),
(416,821,l),
(411,832,o),
(402,840,o),
(386,840,c),
(375,832,o),
(366,824,o),
(358,816,c)
);
},
{
closed = 1;
nodes = (
(376,501,o),
(362,504,o),
(347,504,cs),
(329,504,o),
(312,500,o),
(295,490,c),
(267,477,o),
(243,460,o),
(221,441,c),
(218,435,o),
(218,433,o),
(215,427,c),
(204,424,o),
(196,419,o),
(193,408,c),
(187,399,o),
(182,391,o),
(174,391,c),
(174,383,l),
(168,380,o),
(165,375,o),
(160,372,c),
(154,363,o),
(148,354,o),
(148,345,cs),
(148,343,o),
(149,341,o),
(149,339,c),
(141,333,o),
(130,325,o),
(119,311,c),
(119,303,o),
(116,292,o),
(110,278,c),
(98,267,o),
(90,253,o),
(90,237,cs),
(90,235,o),
(91,232,o),
(91,229,c),
(88,223,o),
(83,220,o),
(74,220,c),
(74,215,l),
(75,214,o),
(75,212,o),
(75,210,cs),
(75,203,o),
(70,193,o),
(61,182,c),
(58,171,o),
(55,160,o),
(50,152,c),
(47,140,o),
(44,127,o),
(39,110,c),
(39,105,o),
(39,105,o),
(41,99,c),
(41,91,l),
(41,79,ls),
(41,56,o),
(46,33,o),
(58,14,c),
(72,3,o),
(85,-8,o),
(107,-19,c),
(116,-19,ls),
(151,-19,o),
(178,-4,o),
(204,27,c),
(210,30,o),
(212,30,o),
(218,33,c),
(245,63,o),
(273,91,o),
(303,124,c),
(303,132,o),
(303,135,o),
(309,138,c),
(325,154,o),
(339,171,o),
(353,187,c),
(356,192,o),
(358,195,o),
(359,195,cs),
(360,195,o),
(361,192,o),
(361,185,cs),
(361,179,o),
(361,174,o),
(358,171,c),
(350,146,ls),
(341,117,o),
(336,83,o),
(335,46,cs),
(335,38,o),
(336,30,o),
(336,22,c),
(342,5,o),
(353,-8,o),
(369,-14,c),
(380,-14,o),
(391,-19,o),
(405,-25,c),
(419,-19,o),
(433,-11,o),
(446,-3,c),
(458,11,o),
(466,25,o),
(474,44,cs),
(475,47,o),
(475,49,o),
(475,51,cs),
(475,59,o),
(471,64,o),
(460,69,c),
(441,63,o),
(419,55,o),
(400,44,c),
(394,52,o),
(394,63,o),
(394,74,c),
(397,102,o),
(402,129,o),
(405,157,c),
(413,198,o),
(422,231,o),
(435,265,c),
(438,281,o),
(441,295,o),
(444,306,cs),
(449,320,o),
(455,331,o),
(460,339,c),
(460,344,l),
(462,350,o),
(464,358,o),
(464,366,cs),
(464,370,o),
(464,373,o),
(463,377,c),
(460,377,o),
(460,377,o),
(458,375,c),
(458,375,o),
(455,375,o),
(452,377,c),
(447,389,o),
(441,395,o),
(434,395,cs),
(433,395,o),
(431,395,o),
(430,394,cs),
(419,386,o),
(411,366,o),
(405,339,c),
(378,306,o),
(353,267,o),
(328,226,c),
(322,226,o),
(317,220,o),
(311,215,c),
(287,182,o),
(262,149,o),
(232,118,cs),
(223,107,o),
(212,96,o),
(204,88,cs),
(179,63,o),
(149,47,o),
(116,38,c),
(107,44,o),
(102,49,o),
(96,55,c),
(96,63,o),
(95,71,o),
(95,78,cs),
(96,105,o),
(98,132,o),
(107,157,cs),
(119,187,o),
(127,215,o),
(138,240,c),
(154,262,o),
(165,284,o),
(176,317,c),
(176,320,o),
(182,322,o),
(187,325,c),
(207,358,o),
(229,386,o),
(256,416,c),
(270,422,o),
(281,430,o),
(292,444,c),
(310,449,o),
(325,452,o),
(340,452,cs),
(349,452,o),
(357,451,o),
(366,449,c),
(375,438,o),
(386,427,o),
(402,422,c),
(408,413,o),
(416,405,o),
(424,399,c),
(430,411,o),
(435,416,o),
(444,419,c),
(447,418,o),
(448,417,o),
(449,417,c),
(449,419,ls),
(444,455,o),
(424,482,o),
(391,496,cs)
);
}
);
width = 525;
}
);
note = adieresis;
unicode = 228;
},
{
glyphname = agrave;
lastChange = "2023-01-15 02:08:54 +0000";
layers = (
{
hints = (
{
horizontal = 1;
place = (-23, 21);
target = up;
type = BottomGhost;
},
{
horizontal = 1;
place = (405, 56);
place = (405, 56);
type = Stem;
},
{
place = (52, 47);
place = (52, 47);
type = Stem;
},
{
place = (311, 44);
place = (311, 44);
type = Stem;
},
{
horizontal = 1;
place = (-19, 55);
place = (-19, 55);
type = Stem;
}
);
layerId = m01;
shapes = (
{
closed = 1;
nodes = (
(347,618,l),
(363,599,o),
(380,579,o),
(402,566,c),
(415,567,o),
(417,565,o),
(432,569,c),
(435,569,l),
(441,577,o),
(444,585,o),
(444,593,cs),
(444,612,o),
(428,629,o),
(410,640,c),
(410,642,ls),
(410,655,o),
(395,669,o),
(385,673,c),
(385,676,l),
(356,727,o),
(317,772,o),
(270,808,c),
(268,808,ls),
(256,808,o),
(234,790,o),
(231,781,cs),
(230,778,o),
(230,775,o),
(230,771,cs),
(230,764,o),
(232,756,o),
(237,750,cs),
(272,705,o),
(308,660,o),
(346,616,c)
);
},
{
closed = 1;
nodes = (
(267,461,l),
(210,427,o),
(113,347,o),
(104,276,c),
(80,249,o),
(79,224,o),
(71,191,cs),
(64,161,o),
(52,131,o),
(52,101,cs),
(52,97,ls),
(52,77,o),
(58,54,o),
(60,34,c),
(88,7,o),
(111,-19,o),
(147,-19,cs),
(157,-19,o),
(167,-17,o),
(179,-13,cs),
(181,-12,o),
(181,-11,o),
(184,-10,c),
(224,14,o),
(259,45,o),
(286,83,c),
(286,74,o),
(303,19,o),
(308,12,cs),
(320,-5,o),
(347,-23,o),
(361,-23,cs),
(387,-23,o),
(413,15,o),
(413,38,cs),
(413,48,o),
(402,57,o),
(394,59,c),
(384,52,o),
(374,47,o),
(363,42,c),
(358,57,o),
(344,100,o),
(344,114,cs),
(344,118,o),
(351,160,o),
(352,163,cs),
(355,170,o),
(415,271,o),
(421,279,cs),
(434,293,o),
(442,303,o),
(442,318,cs),
(442,324,o),
(441,330,o),
(438,337,c),
(427,342,o),
(417,349,o),
(410,359,c),
(385,348,o),
(368,327,o),
(358,301,c),
(352,298,o),
(349,292,o),
(344,287,c),
(344,282,o),
(344,281,o),
(341,276,cs),
(326,249,o),
(327,223,o),
(319,199,cs),
(313,181,o),
(274,133,o),
(259,119,cs),
(255,116,o),
(250,113,o),
(248,108,cs),
(240,93,o),
(240,87,o),
(220,83,c),
(199,51,o),
(167,36,o),
(129,36,c),
(110,50,o),
(101,68,o),
(99,92,cs),
(99,97,ls),
(99,127,o),
(124,189,o),
(124,230,c),
(133,239,o),
(138,252,o),
(140,265,c),
(164,289,o),
(150,305,o),
(181,329,c),
(182,335,o),
(184,342,o),
(187,348,c),
(202,351,o),
(201,358,o),
(209,367,cs),
(212,371,o),
(219,370,o),
(223,373,cs),
(239,384,o),
(240,394,o),
(261,400,cs),
(267,402,o),
(280,405,o),
(291,405,cs),
(301,405,o),
(308,403,o),
(308,395,cs),
(308,392,o),
(309,391,o),
(311,389,c),
(311,375,o),
(318,338,o),
(336,338,cs),
(338,338,o),
(341,338,o),
(344,340,cs),
(354,346,o),
(355,351,o),
(355,358,cs),
(355,373,ls),
(355,379,o),
(358,385,o),
(358,391,cs),
(358,395,ls),
(358,410,o),
(352,421,o),
(352,436,c),
(335,442,o),
(318,451,o),
(303,461,c)
);
}
);
width = 500;
}
);
note = agrave;
unicode = 224;
},
{
glyphname = aring;
lastChange = "2023-01-15 02:08:54 +0000";
layers = (
{
hints = (
{
horizontal = 1;
place = (-18, 21);
target = up;
type = BottomGhost;
},
{
horizontal = 1;
place = (342, 58);
place = (342, 58);
type = Stem;
},
{
horizontal = 1;
place = (499, 68);
place = (499, 68);
type = Stem;
},
{
horizontal = 1;
place = (716, 77.5);
place = (716, 77.5);
type = Stem;
},
{
place = (47, 59);
place = (47, 59);
type = Stem;
},
{
place = (257, 50);
place = (257, 50);
type = Stem;
},
{
place = (346, 57);
place = (346, 57);
type = Stem;
},
{
place = (447, 63);
place = (447, 63);
type = Stem;
},
{
horizontal = 1;
place = (-18, 54);
place = (-18, 54);
type = Stem;
}
);
layerId = m01;
shapes = (
{
closed = 1;
nodes = (
(257,623,l),
(257,609,o),
(251,598,o),
(248,584,c),
(248,576,o),
(266,534,o),
(271,524,c),
(273,524,l),
(287,513,o),
(315,499,o),
(331,499,cs),
(341,499,o),
(378,514,o),
(389,518,cs),
(411,527,o),
(425,539,o),
(433,562,c),
(435,561,o),
(436,561,o),
(438,561,cs),
(441,561,o),
(444,562,o),
(447,565,c),
(450,576,o),
(459,585,o),
(469,590,c),
(469,587,l),
(479,597,o),
(507,631,o),
(510,645,c),
(510,653,o),
(505,687,o),
(505,694,c),
(503,694,o),
(502,695,o),
(502,697,c),
(498,702,o),
(497,711,o),
(497,716,c),
(483,732,o),
(472,749,o),
(461,766,c),
(459,766,o),
(458,767,o),
(458,769,c),
(444,774,o),
(431,782,o),
(419,791,c),
(417,791,o),
(417,792,o),
(417,793,c),
(384,794,l),
(378,791,o),
(373,790,o),
(367,790,cs),
(362,790,o),
(357,790,o),
(353,791,c),
(320,757,o),
(278,723,o),
(273,672,c),
(268,670,o),
(266,665,o),
(262,661,c),
(262,654,o),
(255,631,o),
(251,623,c)
);
},
{
closed = 1;
nodes = (
(411,601,l),
(387,589,o),
(360,567,o),
(332,567,cs),
(328,567,o),
(324,567,o),
(320,568,c),
(318,572,o),
(310,581,o),
(309,584,cs),
(308,589,o),
(307,595,o),
(307,600,cs),
(307,640,o),
(337,686,o),
(337,696,cs),
(337,697,l),
(349,712,o),
(362,716,o),
(381,716,c),
(387,712,o),
(394,709,o),
(400,709,cs),
(406,709,o),
(412,711,o),
(417,716,c),
(419,716,ls),
(432,716,o),
(445,691,o),
(447,681,c),
(450,681,l),
(447,669,o),
(447,657,o),
(447,645,c),
(434,632,o),
(424,616,o),
(411,604,c)
);
},
{
closed = 1;
nodes = (
(395,380,o),
(370,397,o),
(350,400,c),
(343,400,ls),
(323,400,o),
(291,394,o),
(276,386,cs),
(244,368,o),
(213,341,o),
(188,315,cs),
(180,307,o),
(173,297,o),
(166,289,cs),
(162,285,o),
(156,282,o),
(151,278,cs),
(133,263,o),
(117,241,o),
(105,220,cs),
(86,188,o),
(47,108,o),
(47,71,cs),
(47,69,ls),
(47,64,o),
(59,29,o),
(61,25,cs),
(69,13,o),
(111,-12,o),
(124,-19,c),
(127,-18,o),
(130,-18,o),
(134,-18,cs),
(140,-18,o),
(147,-19,o),
(152,-22,c),
(231,4,o),
(290,54,o),
(342,118,c),
(346,112,o),
(347,101,o),
(347,86,cs),
(347,73,o),
(346,58,o),
(346,43,cs),
(346,15,o),
(349,-14,o),
(367,-25,cs),
(372,-28,o),
(399,-33,o),
(410,-33,cs),
(430,-33,o),
(440,1,o),
(441,16,c),
(431,24,o),
(420,33,o),
(408,39,c),
(405,58,o),
(403,78,o),
(403,98,cs),
(403,132,o),
(408,165,o),
(417,195,cs),
(420,208,o),
(438,275,o),
(441,281,cs),
(445,288,o),
(451,295,o),
(451,302,cs),
(451,306,o),
(448,311,o),
(441,314,c),
(436,327,o),
(427,331,o),
(414,331,c),
(409,341,o),
(406,352,o),
(406,364,c)
);
},
{
closed = 1;
nodes = (
(392,306,l),
(384,284,o),
(375,259,o),
(370,231,c),
(337,190,o),
(304,149,o),
(271,110,c),
(268,110,o),
(265,107,o),
(262,102,c),
(229,80,o),
(196,58,o),
(160,36,c),
(146,36,o),
(133,39,o),
(119,41,c),
(113,50,o),
(111,55,o),
(105,61,c),
(106,64,o),
(106,67,o),
(106,70,cs),
(106,77,o),
(104,83,o),
(102,91,c),
(105,102,o),
(108,116,o),
(111,132,c),
(119,138,o),
(122,143,o),
(122,157,c),
(160,234,o),
(218,298,o),
(295,339,c),
(312,342,o),
(328,342,o),
(345,342,c),
(364,331,o),
(378,322,o),
(389,309,cs)
);
}
);
width = 500;
}
);
note = aring;
unicode = 229;
},
{
glyphname = atilde;
lastChange = "2023-01-15 02:08:54 +0000";
layers = (
{
hints = (
{
horizontal = 1;
place = (-23, 21);
target = up;
type = BottomGhost;
},
{
horizontal = 1;
place = (405, 56);
place = (405, 56);
type = Stem;
},
{
horizontal = 1;
place = (567, 51);
place = (567, 51);
type = Stem;
},
{
horizontal = 1;
place = (640, 62);
place = (640, 62);
type = Stem;
},
{
place = (52, 47);
place = (52, 47);
type = Stem;
},
{
place = (311, 44);
place = (311, 44);
type = Stem;
},
{
place = (551, 26);
place = (551, 26);
type = Stem;
},
{
horizontal = 1;
place = (-19, 55);
place = (-19, 55);
type = Stem;
}
);
layerId = m01;
shapes = (
{
closed = 1;
nodes = (
(570,614,l),
(574,638,o),
(577,656,o),
(577,677,cs),
(577,684,o),
(577,691,o),
(576,699,cs),
(576,702,l),
(567,705,o),
(559,711,o),
(551,716,c),
(551,713,l),
(497,693,o),
(524,650,o),
(507,625,c),
(504,625,l),
(482,621,o),
(461,618,o),
(441,618,cs),
(397,618,o),
(358,631,o),
(320,669,c),
(318,669,o),
(316,670,o),
(314,670,cs),
(309,670,o),
(304,669,o),
(300,669,c),
(300,672,l),
(276,691,l),
(264,691,o),
(260,696,o),
(251,702,c),
(198,702,o),
(188,682,o),
(160,644,c),
(157,642,l),
(152,641,o),
(147,637,o),
(143,633,c),
(143,624,o),
(135,603,o),
(129,595,c),
(132,578,o),
(136,557,o),
(152,548,c),
(154,548,ls),
(199,556,o),
(197,592,o),
(214,621,c),
(222,624,o),
(226,630,o),
(228,638,c),
(231,638,l),
(233,640,o),
(236,640,o),
(239,640,cs),
(244,640,l),
(250,625,o),
(348,567,o),
(369,567,cs),
(372,567,l),
(372,564,l),
(381,561,o),
(389,558,o),
(397,553,c),
(412,552,o),
(423,551,o),
(438,548,c),
(441,548,ls),
(470,551,o),
(503,563,o),
(532,570,c),
(532,573,l),
(537,578,o),
(551,585,o),
(554,589,cs),
(560,598,o),
(561,605,o),
(570,611,c)
);
},
{
closed = 1;
nodes = (
(267,461,l),
(210,427,o),
(113,347,o),
(104,276,c),
(80,249,o),
(79,224,o),
(71,191,cs),
(64,161,o),
(52,131,o),
(52,101,cs),
(52,97,ls),
(52,77,o),
(58,54,o),
(60,34,c),
(88,7,o),
(111,-19,o),
(147,-19,cs),
(157,-19,o),
(167,-17,o),
(179,-13,cs),
(181,-12,o),
(181,-11,o),
(184,-10,c),
(224,14,o),
(259,45,o),
(286,83,c),
(286,74,o),
(303,19,o),
(308,12,cs),
(320,-5,o),
(347,-23,o),
(361,-23,cs),
(387,-23,o),
(413,15,o),
(413,38,cs),
(413,48,o),
(402,57,o),
(394,59,c),
(384,52,o),
(374,47,o),
(363,42,c),
(358,57,o),
(344,100,o),
(344,114,cs),
(344,118,o),
(351,160,o),
(352,163,cs),
(355,170,o),
(415,271,o),
(421,279,cs),
(434,293,o),
(442,303,o),
(442,318,cs),
(442,324,o),
(441,330,o),
(438,337,c),
(427,342,o),
(417,349,o),
(410,359,c),
(385,348,o),
(368,327,o),
(358,301,c),
(352,298,o),
(349,292,o),
(344,287,c),
(344,282,o),
(344,281,o),
(341,276,cs),
(326,249,o),
(327,223,o),
(319,199,cs),
(313,181,o),
(274,133,o),
(259,119,cs),
(255,116,o),
(250,113,o),
(248,108,cs),
(240,93,o),
(240,87,o),
(220,83,c),
(199,51,o),
(167,36,o),
(129,36,c),
(110,50,o),
(101,68,o),
(99,92,cs),
(99,97,ls),
(99,127,o),
(124,189,o),
(124,230,c),
(133,239,o),
(138,252,o),
(140,265,c),
(164,289,o),
(150,305,o),
(181,329,c),
(182,335,o),
(184,342,o),
(187,348,c),
(202,351,o),
(201,358,o),
(209,367,cs),
(212,371,o),
(219,370,o),
(223,373,cs),
(239,384,o),
(240,394,o),
(261,400,cs),
(267,402,o),
(280,405,o),
(291,405,cs),
(301,405,o),
(308,403,o),
(308,395,cs),
(308,392,o),
(309,391,o),
(311,389,c),
(311,375,o),
(318,338,o),
(336,338,cs),
(338,338,o),
(341,338,o),
(344,340,cs),
(354,346,o),
(355,351,o),
(355,358,cs),
(355,373,ls),
(355,379,o),
(358,385,o),
(358,391,cs),
(358,395,ls),
(358,410,o),
(352,421,o),
(352,436,c),
(335,442,o),
(318,451,o),
(303,461,c)
);
}
);
width = 500;
}
);
note = atilde;
unicode = 227;
},
{
glyphname = ae;
lastChange = "2023-01-15 02:08:54 +0000";
layers = (
{
hints = (
{
horizontal = 1;
place = (-2, 68);
place = (-2, 68);
type = Stem;
},
{
horizontal = 1;
place = (251, 57);
place = (251, 57);
type = Stem;
},
{
horizontal = 1;
place = (414, 61);
place = (414, 61);
type = Stem;
},
{
place = (54, 60);
place = (54, 60);
type = Stem;
},
{
place = (315, 59);
place = (315, 59);
type = Stem;
},
{
horizontal = 1;
place = (-27, 66);
place = (-27, 66);
type = Stem;
},
{
horizontal = 1;
place = (399, 58);
place = (399, 58);
type = Stem;
}
);
layerId = m01;
shapes = (
{
closed = 1;
nodes = (
(415,381,o),
(407,374,o),
(398,370,c),
(379,405,o),
(342,451,o),
(304,463,cs),
(289,468,o),
(255,475,o),
(220,475,cs),
(173,475,o),
(128,464,o),
(128,427,c),
(138,420,o),
(147,411,o),
(158,405,c),
(177,413,o),
(199,414,o),
(220,414,cs),
(226,414,o),
(233,414,o),
(239,414,cs),
(252,414,l),
(253,413,o),
(309,387,o),
(313,386,c),
(330,366,o),
(338,341,o),
(338,315,cs),
(338,310,o),
(338,306,o),
(337,301,c),
(319,306,o),
(303,308,o),
(288,308,cs),
(259,308,o),
(234,300,o),
(202,284,cs),
(155,261,o),
(131,258,o),
(92,215,c),
(92,211,o),
(60,141,o),
(59,141,c),
(59,126,o),
(54,113,o),
(54,100,cs),
(54,93,ls),
(54,15,o),
(110,-27,o),
(181,-27,cs),
(240,-27,o),
(274,3,o),
(329,3,c),
(332,16,o),
(338,26,o),
(346,36,c),
(389,9,o),
(441,-2,o),
(493,-2,cs),
(505,-2,o),
(516,-1,o),
(528,0,cs),
(553,3,o),
(567,12,o),
(588,22,cs),
(604,30,o),
(628,17,o),
(635,39,c),
(641,39,l),
(660,64,o),
(684,64,o),
(701,100,c),
(698,111,o),
(692,122,o),
(682,130,c),
(656,118,o),
(622,93,o),
(596,86,cs),
(576,80,o),
(553,79,o),
(536,66,c),
(530,67,o),
(523,67,o),
(517,67,cs),
(504,67,o),
(491,66,o),
(478,66,c),
(463,82,o),
(441,89,o),
(420,91,c),
(408,100,o),
(395,108,o),
(382,116,c),
(377,132,o),
(374,148,o),
(374,163,cs),
(374,186,o),
(381,209,o),
(395,232,c),
(454,238,o),
(605,258,o),
(638,314,cs),
(645,326,o),
(646,333,o),
(660,339,c),
(660,347,o),
(663,358,o),
(663,367,cs),
(663,370,ls),
(655,424,o),
(592,457,o),
(536,457,cs),
(519,457,o),
(503,454,o),
(489,447,cs),
(464,435,o),
(435,410,o),
(415,392,c)
);
},
{
closed = 1;
nodes = (
(452,361,o),
(451,364,o),
(517,400,c),
(520,399,o),
(522,399,o),
(525,399,cs),
(531,399,o),
(538,402,o),
(544,405,c),
(553,399,o),
(564,397,o),
(574,397,c),
(590,388,o),
(600,373,o),
(605,356,c),
(596,350,o),
(563,328,o),
(555,325,cs),
(523,315,o),
(498,312,o),
(467,295,c),
(453,302,o),
(415,298,o),
(415,309,c)
);
},
{
closed = 1;
nodes = (
(114,130,l),
(122,171,o),
(144,201,o),
(178,218,cs),
(209,234,o),
(246,245,o),
(293,251,c),
(302,245,o),
(307,243,o),
(315,237,c),
(314,228,o),
(314,219,o),
(314,210,cs),
(314,201,o),
(314,193,o),
(315,185,c),
(296,155,o),
(285,116,o),
(280,66,c),
(266,58,o),
(249,50,o),
(230,42,c),
(228,43,o),
(226,43,o),
(223,43,cs),
(216,43,o),
(208,41,o),
(200,39,c),
(166,39,l),
(139,47,o),
(122,66,o),
(114,94,c)
);
}
);
width = 750;
}
);
note = ae;
unicode = 230;
},
{
glyphname = b;
lastChange = "2023-01-15 02:08:54 +0000";
layers = (
{
hints = (
{
horizontal = 1;
place = (-39, 52);
place = (-39, 52);
type = Stem;
},
{
horizontal = 1;
place = (391, 60);
place = (391, 60);
type = Stem;
},
{
place = (201, 59);
place = (201, 59);
type = Stem;
},
{
place = (372, 78);
place = (372, 78);
type = Stem;
},
{
horizontal = 1;
place = (19, 30);
place = (19, 30);
type = Stem;
}
);
layerId = m01;
shapes = (
{
closed = 1;
nodes = (
(259,674,o),
(252,680,o),
(232,680,c),
(212,660,o),
(201,635,o),
(201,603,cs),
(201,595,l),
(193,584,o),
(190,575,o),
(188,562,cs),
(182,523,o),
(177,487,o),
(168,460,c),
(157,438,o),
(152,416,o),
(149,391,c),
(144,377,o),
(138,363,o),
(130,355,c),
(124,330,o),
(116,313,o),
(105,300,c),
(105,289,o),
(105,280,o),
(102,278,c),
(94,261,o),
(86,245,o),
(83,225,c),
(75,201,o),
(64,179,o),
(53,157,c),
(50,146,o),
(50,134,o),
(47,123,c),
(33,99,o),
(25,77,o),
(20,52,c),
(22,41,o),
(25,32,o),
(33,27,c),
(36,29,o),
(39,30,o),
(42,30,cs),
(47,30,o),
(52,26,o),
(55,19,c),
(61,22,o),
(66,23,o),
(70,23,cs),
(74,23,o),
(78,22,o),
(80,19,c),
(89,-17,o),
(116,-42,o),
(163,-50,c),
(177,-48,o),
(185,-45,o),
(196,-39,c),
(215,-39,l),
(223,-34,o),
(232,-28,o),
(237,-23,c),
(259,-9,ls),
(276,2,o),
(287,16,o),
(295,35,c),
(314,55,o),
(334,74,o),
(353,101,c),
(356,104,o),
(359,110,o),
(359,118,c),
(394,151,o),
(419,195,o),
(436,250,c),
(444,261,l),
(448,276,o),
(450,292,o),
(450,309,cs),
(450,330,o),
(447,352,o),
(441,377,c),
(439,380,o),
(436,385,o),
(433,388,c),
(419,424,o),
(392,443,o),
(350,449,cs),
(338,450,o),
(327,451,o),
(315,451,cs),
(282,451,o),
(251,446,o),
(218,435,c),
(221,454,o),
(223,468,o),
(223,473,c),
(237,507,o),
(246,537,o),
(254,567,c),
(258,593,o),
(260,619,o),
(260,642,cs),
(260,650,o),
(260,659,o),
(259,666,cs)
);
},
{
closed = 1;
nodes = (
(116,49,l),
(105,49,o),
(97,55,o),
(89,68,c),
(89,68,o),
(86,71,o),
(86,74,c),
(91,88,o),
(94,104,o),
(94,123,c),
(100,123,o),
(102,129,o),
(105,132,c),
(122,179,o),
(135,223,o),
(152,267,c),
(166,313,o),
(190,349,o),
(226,377,c),
(248,382,o),
(273,385,o),
(301,391,c),
(305,390,o),
(309,389,o),
(313,389,cs),
(317,389,o),
(321,390,o),
(325,391,c),
(345,388,o),
(359,377,o),
(372,363,c),
(381,343,o),
(385,324,o),
(385,305,cs),
(385,286,o),
(380,269,o),
(372,250,cs),
(359,217,o),
(345,187,o),
(328,154,c),
(323,151,o),
(317,151,o),
(314,146,c),
(314,140,o),
(312,137,o),
(309,132,c),
(303,129,o),
(301,126,o),
(295,121,c),
(290,112,o),
(290,107,o),
(284,96,c),
(273,93,o),
(268,85,o),
(262,71,c),
(257,68,o),
(251,66,o),
(246,60,c),
(246,55,o),
(246,52,o),
(240,46,c),
(221,41,o),
(207,32,o),
(196,16,c),
(185,13,o),
(166,13,o),
(144,13,c),
(135,24,o),
(124,35,o),
(116,46,c)
);
}
);
width = 478;
}
);
note = b;
unicode = 98;
},
{
glyphname = c;
lastChange = "2023-01-15 02:08:54 +0000";
layers = (
{
hints = (
{
horizontal = 1;
place = (2, 60);
place = (2, 60);
type = Stem;
},
{
horizontal = 1;
place = (115, 60);
place = (115, 60);
type = Stem;
},
{
horizontal = 1;
place = (420, 52);
place = (420, 52);
type = Stem;
},
{
place = (23, 61);
place = (23, 61);
type = Stem;
}
);
layerId = m01;
shapes = (
{
closed = 1;
nodes = (
(293,418,l),
(295,417,o),
(297,417,o),
(298,417,cs),
(302,417,o),
(307,419,o),
(313,420,c),
(332,418,o),
(351,409,o),
(368,398,c),
(382,401,o),
(393,409,o),
(395,426,cs),
(395,439,o),
(385,454,o),
(368,462,cs),
(351,469,o),
(335,472,o),
(319,472,cs),
(308,472,o),
(296,471,o),
(285,467,cs),
(266,459,o),
(249,451,o),
(230,448,c),
(213,440,o),
(200,429,o),
(183,415,cs),
(166,401,o),
(150,393,o),
(133,387,c),
(122,379,o),
(120,371,o),
(120,357,c),
(109,349,o),
(95,338,o),
(78,321,c),
(75,307,o),
(67,299,o),
(59,294,c),
(51,280,o),
(45,263,o),
(40,241,c),
(35,240,o),
(33,237,o),
(33,233,cs),
(33,230,o),
(34,226,o),
(37,222,c),
(29,203,o),
(23,186,o),
(20,164,c),
(23,156,o),
(23,150,o),
(23,145,cs),
(23,120,l),
(28,110,o),
(30,101,o),
(30,92,cs),
(30,90,o),
(30,87,o),
(29,84,c),
(42,62,o),
(59,40,o),
(78,24,c),
(84,21,o),
(89,21,o),
(95,18,c),
(114,5,o),
(141,2,o),
(164,2,cs),
(213,2,o),
(254,17,o),
(291,46,c),
(307,48,o),
(324,57,o),
(340,73,c),
(346,76,o),
(351,76,o),
(354,76,c),
(376,87,o),
(393,101,o),
(412,115,c),
(424,115,o),
(424,120,o),
(437,131,c),
(439,131,o),
(445,134,o),
(450,137,cs),
(461,145,o),
(467,159,o),
(470,175,c),
(470,186,o),
(461,197,o),
(448,203,c),
(434,195,o),
(423,183,o),
(412,175,c),
(408,177,o),
(405,177,o),
(402,177,cs),
(399,177,o),
(397,177,o),
(395,175,c),
(362,153,o),
(332,131,o),
(299,112,cs),
(260,90,o),
(222,70,o),
(178,57,c),
(166,59,o),
(153,62,o),
(136,62,c),
(103,70,o),
(87,92,o),
(78,126,c),
(83,130,o),
(85,135,o),
(85,141,cs),
(85,143,o),
(85,146,o),
(84,148,c),
(84,166,ls),
(84,204,o),
(92,242,o),
(111,283,c),
(153,343,o),
(211,390,o),
(291,418,c)
);
}
);
width = 470;
}
);
note = c;
unicode = 99;
},
{
glyphname = ccedilla;
lastChange = "2023-01-15 02:08:54 +0000";
layers = (
{
hints = (
{
horizontal = 1;
place = (-266, 60);
place = (-266, 60);
type = Stem;
},
{
horizontal = 1;
place = (-104, 55);
place = (-104, 55);
type = Stem;
},
{
horizontal = 1;
place = (367, 54);
place = (367, 54);
type = Stem;
},
{
place = (60, 64);
place = (60, 64);
type = Stem;
}
);
layerId = m01;
shapes = (
{
closed = 1;
nodes = (
(410,334,l),
(418,342,o),
(423,348,o),
(429,362,c),
(426,373,o),
(423,384,o),
(418,392,c),
(395,411,o),
(371,421,o),
(344,421,cs),
(324,421,o),
(303,416,o),
(280,406,cs),
(239,389,o),
(198,367,o),
(159,339,cs),
(107,304,o),
(73,248,o),
(60,174,c),
(62,158,o),
(62,138,o),
(65,116,c),
(82,75,o),
(109,42,o),
(148,20,c),
(142,12,o),
(142,0,o),
(140,-8,c),
(137,-13,o),
(134,-16,o),
(131,-22,c),
(129,-33,o),
(126,-41,o),
(123,-49,c),
(112,-57,o),
(107,-68,o),
(101,-82,c),
(100,-86,o),
(100,-89,o),
(100,-92,cs),
(100,-100,o),
(103,-104,o),
(107,-110,c),
(109,-110,o),
(112,-113,o),
(115,-113,cs),
(119,-113,o),
(123,-114,o),
(127,-114,cs),
(150,-114,o),
(170,-109,o),
(189,-102,c),
(198,-104,o),
(206,-104,o),
(211,-104,c),
(217,-110,o),
(225,-113,o),
(236,-115,c),
(244,-118,o),
(253,-126,o),
(255,-137,c),
(253,-148,o),
(250,-157,o),
(242,-168,c),
(225,-184,o),
(206,-193,o),
(184,-195,c),
(162,-204,o),
(140,-206,o),
(123,-206,c),
(118,-215,o),
(112,-223,o),
(107,-234,c),
(112,-248,o),
(123,-256,o),
(131,-264,c),
(139,-265,o),
(147,-266,o),
(154,-266,cs),
(165,-266,o),
(174,-265,o),
(184,-261,cs),
(189,-259,o),
(198,-256,o),
(203,-250,c),
(214,-245,o),
(225,-242,o),
(239,-242,c),
(278,-212,o),
(302,-173,o),
(319,-124,c),
(316,-121,o),
(316,-121,o),
(316,-118,c),
(308,-104,o),
(302,-91,o),
(291,-77,c),
(275,-71,o),
(258,-60,o),
(242,-52,c),
(222,-52,o),
(203,-49,o),
(181,-49,c),
(189,-27,o),
(200,-5,o),
(209,17,c),
(261,28,o),
(308,45,o),
(352,64,c),
(368,78,o),
(388,89,o),
(407,100,cs),
(423,111,o),
(435,130,o),
(440,149,c),
(438,163,o),
(428,169,o),
(415,169,cs),
(413,169,o),
(410,169,o),
(407,168,cs),
(388,160,o),
(368,149,o),
(355,133,c),
(344,127,o),
(327,124,o),
(313,119,c),
(297,105,l),
(269,97,o),
(244,89,o),
(217,80,c),
(211,83,o),
(200,83,o),
(189,83,c),
(181,86,o),
(173,91,o),
(167,94,cs),
(142,108,o),
(129,130,o),
(126,158,cs),
(125,167,o),
(124,175,o),
(124,183,cs),
(124,207,o),
(130,231,o),
(142,259,c),
(151,262,o),
(153,271,o),
(156,279,c),
(181,295,o),
(206,312,o),
(231,331,c),
(255,345,o),
(283,359,o),
(316,370,c),
(324,370,o),
(335,367,o),
(346,367,c),
(355,364,o),
(360,362,o),
(368,356,cs),
(377,348,o),
(382,339,o),
(388,334,c)
);
}
);
width = 500;
}
);
note = ccedilla;
unicode = 231;
},
{
glyphname = d;
lastChange = "2023-01-15 02:08:54 +0000";
layers = (
{
hints = (
{
horizontal = 1;
place = (0, 21);
target = up;
type = BottomGhost;
},
{
horizontal = 1;
place = (500, -20);
target = down;
type = TopGhost;
},
{
place = (31, 53);
place = (31, 53);
type = Stem;
},
{
place = (287, 51);
place = (287, 51);
type = Stem;
},
{
place = (376.5, 59.5);
place = (376.5, 59.5);
type = Stem;
},
{
horizontal = 1;
place = (-34, 62);
place = (-34, 62);
type = Stem;
},
{
horizontal = 1;
place = (-16, 76);
place = (-16, 76);
type = Stem;
},
{
place = (397, 55);
place = (397, 55);
type = Stem;
}
);
layerId = m01;
shapes = (
{
closed = 1;
nodes = (
(32,138,l),
(34,132,o),
(35,126,o),
(35,120,cs),
(35,109,o),
(33,97,o),
(30,83,c),
(31,75,o),
(31,67,o),
(31,59,cs),
(31,34,l),
(35,25,o),
(40,14,o),
(47,1,c),
(53,-7,o),
(60,-13,o),
(73,-23,c),
(87,-27,o),
(105,-33,o),
(125,-34,c),
(164,-24,o),
(192,-3,o),
(207,27,c),
(220,35,o),
(228,44,o),
(233,59,c),
(250,77,o),
(268,102,o),
(287,131,c),
(291,125,o),
(293,120,o),
(293,113,cs),
(293,108,o),
(291,102,o),
(287,96,c),
(287,89,l),
(284,71,o),
(281,55,o),
(279,30,c),
(286,22,o),
(287,13,o),
(291,6,c),
(298,-2,o),
(304,-6,o),
(309,-11,c),
(317,-12,o),
(322,-15,o),
(328,-17,c),
(339,-17,o),
(350,-16,o),
(361,-16,cs),
(369,-16,l),
(375,-13,o),
(379,-7,o),
(381,0,c),
(383,-1,o),
(384,-1,o),
(385,-1,cs),
(389,-1,o),
(393,3,o),
(396,7,cs),
(403,16,o),
(407,27,o),
(407,37,cs),
(407,44,o),
(405,51,o),
(403,58,c),
(396,59,o),
(389,60,o),
(381,60,cs),
(369,60,o),
(357,59,o),
(343,55,c),
(338,71,o),
(338,89,o),
(338,105,c),
(343,122,o),
(343,138,o),
(348,154,cs),
(358,185,o),
(361,217,o),
(364,252,c),
(386,314,o),
(407,379,o),
(425,445,c),
(433,456,o),
(436,461,o),
(437,475,cs),
(437,480,o),
(436,485,o),
(436,490,cs),
(436,496,o),
(437,503,o),
(440,509,c),
(440,511,ls),
(440,527,o),
(451,577,o),
(452,590,cs),
(452,612,o),
(447,625,o),
(435,631,c),
(429,639,o),
(423,644,o),
(416,644,cs),
(410,644,o),
(403,640,o),
(395,632,c),
(396,626,o),
(397,620,o),
(397,614,cs),
(397,599,o),
(394,585,o),
(390,570,c),
(391,570,o),
(391,569,o),
(391,566,cs),
(391,554,o),
(383,518,o),
(382,509,c),
(381,506,o),
(379,500,o),
(376,500,c),
(377,494,l),
(376,475,l),
(371,467,o),
(369,462,o),
(369,454,cs),
(369,448,l),
(364,429,o),
(358,408,o),
(350,387,c),
(346,397,o),
(336,408,o),
(329,417,c),
(320,425,o),
(310,432,o),
(301,437,c),
(288,440,o),
(275,446,o),
(263,450,c),
(239,447,o),
(214,440,o),
(197,426,cs),
(119,365,o),
(68,282,o),
(40,184,c),
(40,180,o),
(41,176,o),
(41,171,cs),
(41,161,o),
(39,150,o),
(32,141,c)
);
},
{
closed = 1;
nodes = (
(264,172,l),
(238,144,o),
(218,117,o),
(196,87,cs),
(180,66,o),
(160,45,o),
(141,28,c),
(132,22,o),
(121,18,o),
(109,16,c),
(105,20,o),
(99,22,o),
(94,28,c),
(91,41,l),
(84,46,o),
(81,54,o),
(79,68,c),
(82,81,o),
(84,95,o),
(84,110,cs),
(84,121,o),
(83,133,o),
(81,145,c),
(88,154,o),
(91,163,o),
(91,174,cs),
(91,177,o),
(91,180,o),
(90,183,c),
(92,189,o),
(95,191,o),
(96,194,cs),
(102,221,o),
(107,240,o),
(113,259,c),
(115,261,o),
(117,267,o),
(122,272,c),
(126,280,o),
(130,288,o),
(138,296,c),
(139,307,o),
(143,316,o),
(151,325,c),
(155,325,ls),
(159,325,o),
(163,327,o),
(168,337,c),
(182,358,o),
(202,376,o),
(230,390,cs),
(237,393,o),
(248,397,o),
(257,402,c),
(270,396,o),
(284,388,o),
(296,379,c),
(305,356,o),
(315,338,o),
(331,324,c),
(319,280,o),
(296,241,o),
(274,201,c),
(268,193,o),
(264,183,o),
(264,175,cs)
);
}
);
width = 471;
}
);
note = d;
unicode = 100;
},
{
glyphname = eth;
lastChange = "2023-01-15 02:08:54 +0000";
layers = (
{
hints = (
{
horizontal = 1;
place = (-77, 62);
place = (-77, 62);
type = Stem;
},
{
place = (39, 58);
place = (39, 58);
type = Stem;
},
{
place = (439, 71);
place = (439, 71);
type = Stem;
}
);
layerId = m01;
shapes = (
{
closed = 1;
nodes = (
(61,39,l),
(92,-21,o),
(131,-71,o),
(213,-77,c),
(213,-75,o),
(215,-75,o),
(221,-72,c),
(216,-72,o),
(392,-30,o),
(414,36,c),
(477,94,o),
(510,180,o),
(510,294,cs),
(510,321,o),
(499,351,o),
(494,380,c),
(472,433,o),
(447,480,o),
(419,518,c),
(406,529,o),
(395,540,o),
(386,560,c),
(444,595,o),
(502,631,o),
(568,664,c),
(568,670,o),
(571,675,o),
(574,681,c),
(564,690,o),
(570,707,o),
(552,707,cs),
(517,707,o),
(476,682,o),
(450,656,c),
(431,632,o),
(379,616,o),
(348,590,c),
(305,617,o),
(223,668,o),
(197,668,cs),
(171,668,o),
(156,655,o),
(152,626,c),
(152,611,o),
(254,558,o),
(279,540,c),
(275,526,o),
(252,517,o),
(243,507,cs),
(223,483,o),
(168,481,o),
(168,438,cs),
(168,427,o),
(174,419,o),
(188,419,c),
(215,426,o),
(230,433,o),
(323,507,c),
(364,471,o),
(395,424,o),
(414,366,c),
(391,384,o),
(360,395,o),
(332,395,cs),
(259,395,o),
(68,317,o),
(39,110,c),
(39,80,o),
(58,57,o),
(58,39,c)
);
},
{
closed = 1;
nodes = (
(240,303,o),
(259,318,o),
(323,328,c),
(369,311,o),
(384,307,o),
(439,273,c),
(439,242,o),
(436,212,o),
(431,176,cs),
(431,177,o),
(390,107,o),
(370,61,c),
(324,26,o),
(265,-15,o),
(216,-15,cs),
(157,-15,o),
(124,30,o),
(97,102,c),
(97,121,l),
(102,137,o),
(107,161,o),
(119,204,c),
(169,262,ls),
(172,265,o),
(185,281,o),
(191,284,cs)
);
}
);
width = 549;
}
);
note = eth;
unicode = 240;
},
